SplineFontDB: 3.0
FontName: Geneva-Bold
FullName: Geneva Bold
FamilyName: Geneva
Weight: Bold
Copyright: Copyright 2011 Google Inc. All Rights Reserved.
Version: 2.001150; 2014
DefaultBaseFilename: Geneva-700
ItalicAngle: 0
UnderlinePosition: -200
UnderlineWidth: 100
Ascent: 1536
Descent: 512
InvalidEm: 0
sfntRevision: 0x00020000
LayerCount: 2
Layer: 0 1 "Back" 1
Layer: 1 1 "Fore" 0
XUID: [1021 805 -1179658985 3804084]
FSType: 0
OS2Version: 3
OS2_WeightWidthSlopeOnly: 0
OS2_UseTypoMetrics: 1
CreationTime: 1221222574
ModificationTime: 1431279549
PfmFamily: 17
TTFWeight: 700
TTFWidth: 5
LineGap: 0
VLineGap: 0
Panose: 2 0 0 0 0 0 0 0 0 0
OS2TypoAscent: 1536
OS2TypoAOffset: 0
OS2TypoDescent: -512
OS2TypoDOffset: 0
OS2TypoLinegap: 102
OS2WinAscent: 1946
OS2WinAOffset: 0
OS2WinDescent: 512
OS2WinDOffset: 0
HheadAscent: 1900
HheadAOffset: 0
HheadDescent: -500
HheadDOffset: 0
OS2SubXSize: 1434
OS2SubYSize: 1331
OS2SubXOff: 0
OS2SubYOff: 287
OS2SupXSize: 1434
OS2SupYSize: 1331
OS2SupXOff: 0
OS2SupYOff: 977
OS2StrikeYSize: 102
OS2StrikeYPos: 512
OS2CapHeight: 1456
OS2XHeight: 1082
OS2Vendor: 'GOOG'
OS2CodePages: 2000019f.00000000
OS2UnicodeRanges: e0000aff.5000217f.00000021.00000000
Lookup: 1 0 0 "'c2sc' Capitals to Small Capitals lookup 0" { "'c2sc' Capitals to Small Capitals lookup 0 subtable"  } ['c2sc' ('DFLT' <'dflt' > 'cyrl' <'dflt' > 'grek' <'dflt' > 'latn' <'AZE ' 'CRT ' 'MOL ' 'NAV ' 'ROM ' 'TUR ' 'dflt' > ) ]
Lookup: 1 0 0 "'smcp' Lowercase to Small Capitals lookup 1" { "'smcp' Lowercase to Small Capitals lookup 1 subtable"  } ['smcp' ('DFLT' <'dflt' > 'cyrl' <'dflt' > 'grek' <'dflt' > 'latn' <'AZE ' 'CRT ' 'MOL ' 'NAV ' 'ROM ' 'TUR ' 'dflt' > ) ]

StartChar: .notdef
Encoding: 1114112 -1 0
Width: 908
Flags: W
LayerCount: 2
Back
Fore
SplineSet
808 0 m 1,0,-1
 100 0 l 1,1,-1
 100 1456 l 1,2,-1
 808 1456 l 1,3,-1
 808 0 l 1,0,-1
754 84 m 1,4,-1
 754 1371 l 1,5,-1
 480 728 l 1,6,-1
 754 84 l 1,4,-1
154 1359 m 1,7,-1
 154 96 l 1,8,-1
 422 728 l 1,9,-1
 154 1359 l 1,7,-1
194 54 m 1,10,-1
 709 54 l 1,11,-1
 451 660 l 1,12,-1
 194 54 l 1,10,-1
451 796 m 1,13,-1
 709 1402 l 1,14,-1
 194 1402 l 1,15,-1
 451 796 l 1,13,-1
EndSplineSet
EndChar

StartChar: exclam
Encoding: 33 33 5
Width: 557
Flags: W
LayerCount: 2
Back
Fore
SplineSet
405 447 m 1,0,-1
 165 447 l 1,1,-1
 131 1456 l 1,2,-1
 439 1456 l 1,3,-1
 405 447 l 1,0,-1
285 289 m 0,4,5
 358 289 358 289 402.5 246 c 128,-1,6
 447 203 447 203 447 136 c 0,7,8
 447 70 447 70 402.5 27 c 128,-1,9
 358 -16 358 -16 285 -16 c 0,10,11
 213 -16 213 -16 168.5 27 c 128,-1,12
 124 70 124 70 124 136 c 128,-1,13
 124 202 124 202 168.5 245.5 c 128,-1,14
 213 289 213 289 285 289 c 0,4,5
EndSplineSet
EndChar

StartChar: quotedbl
Encoding: 34 34 6
Width: 657
Flags: W
LayerCount: 2
Back
Fore
SplineSet
266 1398 m 1,0,-1
 226 987 l 1,1,-1
 64 987 l 1,2,-1
 64 1536 l 1,3,-1
 266 1536 l 1,4,-1
 266 1398 l 1,0,-1
591 1398 m 1,5,-1
 552 987 l 1,6,-1
 390 987 l 1,7,-1
 390 1536 l 1,8,-1
 591 1536 l 1,9,-1
 591 1398 l 1,5,-1
EndSplineSet
EndChar

StartChar: numbersign
Encoding: 35 35 7
Width: 1220
Flags: W
LayerCount: 2
Back
Fore
SplineSet
667 410 m 1,0,-1
 474 410 l 1,1,-1
 402 0 l 1,2,-1
 219 0 l 1,3,-1
 291 410 l 1,4,-1
 64 410 l 1,5,-1
 64 582 l 1,6,-1
 321 582 l 1,7,-1
 371 866 l 1,8,-1
 139 866 l 1,9,-1
 139 1040 l 1,10,-1
 402 1040 l 1,11,-1
 475 1456 l 1,12,-1
 657 1456 l 1,13,-1
 584 1040 l 1,14,-1
 778 1040 l 1,15,-1
 851 1456 l 1,16,-1
 1034 1456 l 1,17,-1
 961 1040 l 1,18,-1
 1180 1040 l 1,19,-1
 1180 866 l 1,20,-1
 930 866 l 1,21,-1
 880 582 l 1,22,-1
 1104 582 l 1,23,-1
 1104 410 l 1,24,-1
 850 410 l 1,25,-1
 778 0 l 1,26,-1
 595 0 l 1,27,-1
 667 410 l 1,0,-1
504 582 m 1,28,-1
 697 582 l 1,29,-1
 747 866 l 1,30,-1
 553 866 l 1,31,-1
 504 582 l 1,28,-1
EndSplineSet
EndChar

StartChar: dollar
Encoding: 36 36 8
Width: 1175
Flags: W
LayerCount: 2
Back
Fore
SplineSet
790 383 m 0,0,1
 790 465 790 465 744.5 513.5 c 128,-1,2
 699 562 699 562 590 603 c 128,-1,3
 481 644 481 644 402 684.5 c 128,-1,4
 323 725 323 725 266.5 777.5 c 128,-1,5
 210 830 210 830 178.5 901 c 128,-1,6
 147 972 147 972 147 1070 c 0,7,8
 147 1239 147 1239 255 1347 c 128,-1,9
 363 1455 363 1455 542 1473 c 1,10,-1
 542 1687 l 1,11,-1
 702 1687 l 1,12,-1
 702 1470 l 1,13,14
 879 1445 879 1445 979 1322.5 c 128,-1,15
 1079 1200 1079 1200 1079 1005 c 1,16,-1
 790 1005 l 1,17,18
 790 1125 790 1125 740.5 1184.5 c 128,-1,19
 691 1244 691 1244 608 1244 c 0,20,21
 526 1244 526 1244 481 1197.5 c 128,-1,22
 436 1151 436 1151 436 1069 c 0,23,24
 436 993 436 993 480 947 c 128,-1,25
 524 901 524 901 643.5 853 c 128,-1,26
 763 805 763 805 840 762.5 c 128,-1,27
 917 720 917 720 970 666.5 c 128,-1,28
 1023 613 1023 613 1051 544.5 c 128,-1,29
 1079 476 1079 476 1079 385 c 0,30,31
 1079 215 1079 215 973 109 c 128,-1,32
 867 3 867 3 681 -16 c 1,33,-1
 681 -215 l 1,34,-1
 522 -215 l 1,35,-1
 522 -17 l 1,36,37
 317 5 317 5 204.5 128.5 c 128,-1,38
 92 252 92 252 92 457 c 1,39,-1
 381 457 l 1,40,41
 381 338 381 338 437.5 274.5 c 128,-1,42
 494 211 494 211 600 211 c 0,43,44
 688 211 688 211 739 257.5 c 128,-1,45
 790 304 790 304 790 383 c 0,0,1
EndSplineSet
Substitution2: "'c2sc' Capitals to Small Capitals lookup 0 subtable" dollar.c2sc
Position2: "'cpsp' Capital Spacing lookup 0 subtable" dx=36 dy=0 dh=72 dv=0
EndChar

StartChar: percent
Encoding: 37 37 9
Width: 1512
Flags: W
LayerCount: 2
Back
Fore
SplineSet
95 1176 m 2,0,1
 95 1310 95 1310 182 1393.5 c 128,-1,2
 269 1477 269 1477 410 1477 c 0,3,4
 553 1477 553 1477 640 1394.5 c 128,-1,5
 727 1312 727 1312 727 1171 c 2,6,-1
 727 1099 l 2,7,8
 727 964 727 964 640 882 c 128,-1,9
 553 800 553 800 412 800 c 0,10,11
 270 800 270 800 182.5 882.5 c 128,-1,12
 95 965 95 965 95 1105 c 2,13,-1
 95 1176 l 2,0,1
287 1099 m 2,14,15
 287 1039 287 1039 321.5 1002.5 c 128,-1,16
 356 966 356 966 412 966 c 128,-1,17
 468 966 468 966 501 1003 c 128,-1,18
 534 1040 534 1040 534 1102 c 2,19,-1
 534 1176 l 2,20,21
 534 1236 534 1236 501 1273 c 128,-1,22
 468 1310 468 1310 410 1310 c 0,23,24
 355 1310 355 1310 321 1273.5 c 128,-1,25
 287 1237 287 1237 287 1172 c 2,26,-1
 287 1099 l 2,14,15
791 357 m 2,27,28
 791 492 791 492 879 574.5 c 128,-1,29
 967 657 967 657 1107 657 c 0,30,31
 1249 657 1249 657 1336.5 575.5 c 128,-1,32
 1424 494 1424 494 1424 351 c 2,33,-1
 1424 279 l 2,34,35
 1424 145 1424 145 1338 62.5 c 128,-1,36
 1252 -20 1252 -20 1109 -20 c 0,37,38
 965 -20 965 -20 878 63 c 128,-1,39
 791 146 791 146 791 283 c 2,40,-1
 791 357 l 2,27,28
983 279 m 2,41,42
 983 224 983 224 1019 185 c 128,-1,43
 1055 146 1055 146 1109 146 c 0,44,45
 1231 146 1231 146 1231 281 c 2,46,-1
 1231 357 l 2,47,48
 1231 417 1231 417 1197 453.5 c 128,-1,49
 1163 490 1163 490 1107 490 c 128,-1,50
 1051 490 1051 490 1017 453.5 c 128,-1,51
 983 417 983 417 983 354 c 2,52,-1
 983 279 l 2,41,42
469 109 m 1,53,-1
 328 185 l 1,54,-1
 1039 1323 l 1,55,-1
 1180 1247 l 1,56,-1
 469 109 l 1,53,-1
EndSplineSet
EndChar

StartChar: ampersand
Encoding: 38 38 10
Width: 1344
Flags: W
LayerCount: 2
Back
Fore
SplineSet
71 392 m 0,0,1
 71 493 71 493 127.5 579 c 128,-1,2
 184 665 184 665 335 770 c 1,3,4
 270 857 270 857 233 933.5 c 128,-1,5
 196 1010 196 1010 196 1093 c 0,6,7
 196 1263 196 1263 303.5 1369.5 c 128,-1,8
 411 1476 411 1476 593 1476 c 0,9,10
 756 1476 756 1476 860.5 1379 c 128,-1,11
 965 1282 965 1282 965 1137 c 0,12,13
 965 963 965 963 789 830 c 1,14,-1
 677 749 l 1,15,-1
 928 457 l 1,16,17
 987 573 987 573 987 713 c 1,18,-1
 1233 713 l 1,19,20
 1233 429 1233 429 1102 253 c 1,21,-1
 1320 0 l 1,22,-1
 992 0 l 1,23,-1
 917 86 l 1,24,25
 756 -20 756 -20 547 -20 c 0,26,27
 331 -20 331 -20 201 93.5 c 128,-1,28
 71 207 71 207 71 392 c 0,0,1
561 212 m 0,29,30
 665 212 665 212 758 270 c 1,31,-1
 471 602 l 1,32,-1
 450 587 l 1,33,34
 361 511 361 511 361 408 c 0,35,36
 361 321 361 321 416.5 266.5 c 128,-1,37
 472 212 472 212 561 212 c 0,29,30
455 1097 m 0,38,39
 455 1022 455 1022 543 908 c 1,40,-1
 620 959 l 2,41,42
 679 997 679 997 701.5 1033 c 128,-1,43
 724 1069 724 1069 724 1119 c 128,-1,44
 724 1169 724 1169 687 1206 c 128,-1,45
 650 1243 650 1243 592 1243 c 0,46,47
 530 1243 530 1243 492.5 1203 c 128,-1,48
 455 1163 455 1163 455 1097 c 0,38,39
EndSplineSet
EndChar

StartChar: quotesingle
Encoding: 39 39 11
Width: 331
Flags: W
LayerCount: 2
Back
Fore
SplineSet
275 1389 m 1,0,-1
 246 985 l 1,1,-1
 63 985 l 1,2,-1
 63 1536 l 1,3,-1
 275 1536 l 1,4,-1
 275 1389 l 1,0,-1
EndSplineSet
EndChar

StartChar: parenleft
Encoding: 40 40 12
Width: 719
Flags: W
LayerCount: 2
Back
Fore
SplineSet
124 592 m 2,0,1
 124 821 124 821 185 1028 c 128,-1,2
 246 1235 246 1235 365 1394.5 c 128,-1,3
 484 1554 484 1554 623 1616 c 1,4,-1
 679 1460 l 1,5,6
 533 1352 533 1352 451 1126 c 128,-1,7
 369 900 369 900 369 598 c 2,8,-1
 369 567 l 2,9,10
 369 264 369 264 450 37 c 128,-1,11
 531 -190 531 -190 679 -302 c 1,12,-1
 623 -455 l 1,13,14
 487 -394 487 -394 369.5 -239.5 c 128,-1,15
 252 -85 252 -85 190 117 c 128,-1,16
 128 319 128 319 124 539 c 1,17,-1
 124 592 l 2,0,1
EndSplineSet
EndChar

StartChar: parenright
Encoding: 41 41 13
Width: 722
Flags: W
LayerCount: 2
Back
Fore
SplineSet
609 569 m 2,0,1
 609 343 609 343 544 134 c 128,-1,2
 479 -75 479 -75 357 -235 c 128,-1,3
 235 -395 235 -395 96 -455 c 1,4,-1
 40 -302 l 1,5,6
 182 -195 182 -195 264 28 c 128,-1,7
 346 251 346 251 349 541 c 2,8,-1
 349 594 l 2,9,10
 349 893 349 893 267.5 1121 c 128,-1,11
 186 1349 186 1349 40 1463 c 1,12,-1
 96 1616 l 1,13,14
 232 1557 232 1557 352.5 1402 c 128,-1,15
 473 1247 473 1247 539.5 1041 c 128,-1,16
 606 835 606 835 609 614 c 2,17,-1
 609 569 l 2,0,1
EndSplineSet
EndChar

StartChar: asterisk
Encoding: 42 42 14
Width: 928
Flags: W
LayerCount: 2
Back
Fore
SplineSet
341 962 m 1,0,-1
 27 1051 l 1,1,-1
 86 1232 l 1,2,-1
 397 1107 l 1,3,-1
 377 1456 l 1,4,-1
 573 1456 l 1,5,-1
 553 1100 l 1,6,-1
 856 1223 l 1,7,-1
 915 1040 l 1,8,-1
 595 951 l 1,9,-1
 805 685 l 1,10,-1
 646 572 l 1,11,-1
 464 864 l 1,12,-1
 284 582 l 1,13,-1
 125 690 l 1,14,-1
 341 962 l 1,0,-1
EndSplineSet
EndChar

StartChar: plus
Encoding: 43 43 15
Width: 1118
Flags: W
LayerCount: 2
Back
Fore
SplineSet
694 815 m 1,0,-1
 1055 815 l 1,1,-1
 1055 554 l 1,2,-1
 694 554 l 1,3,-1
 694 146 l 1,4,-1
 419 146 l 1,5,-1
 419 554 l 1,6,-1
 57 554 l 1,7,-1
 57 815 l 1,8,-1
 419 815 l 1,9,-1
 419 1206 l 1,10,-1
 694 1206 l 1,11,-1
 694 815 l 1,0,-1
EndSplineSet
EndChar

StartChar: comma
Encoding: 44 44 16
Width: 500
Flags: W
LayerCount: 2
Back
Fore
SplineSet
186 -365 m 1,0,-1
 35 -286 l 1,1,-1
 71 -221 l 2,2,3
 138 -99 138 -99 140 22 c 2,4,-1
 140 246 l 1,5,-1
 384 246 l 1,6,-1
 383 46 l 2,7,8
 382 -65 382 -65 327 -178 c 128,-1,9
 272 -291 272 -291 186 -365 c 1,0,-1
EndSplineSet
EndChar

StartChar: hyphen
Encoding: 45 45 17
Width: 794
Flags: W
LayerCount: 2
Back
Fore
SplineSet
673 507 m 1,0,-1
 110 507 l 1,1,-1
 110 740 l 1,2,-1
 673 740 l 1,3,-1
 673 507 l 1,0,-1
EndSplineSet
EndChar

StartChar: period
Encoding: 46 46 18
Width: 595
Flags: W
LayerCount: 2
Back
Fore
SplineSet
126 142 m 0,0,1
 126 211 126 211 172.5 254 c 128,-1,2
 219 297 219 297 289 297 c 0,3,4
 360 297 360 297 406.5 254 c 128,-1,5
 453 211 453 211 453 142 c 0,6,7
 453 74 453 74 407 31.5 c 128,-1,8
 361 -11 361 -11 289 -11 c 0,9,10
 218 -11 218 -11 172 31.5 c 128,-1,11
 126 74 126 74 126 142 c 0,0,1
EndSplineSet
EndChar

StartChar: slash
Encoding: 47 47 19
Width: 765
Flags: W
LayerCount: 2
Back
Fore
SplineSet
202 -125 m 1,0,-1
 -13 -125 l 1,1,-1
 523 1456 l 1,2,-1
 738 1456 l 1,3,-1
 202 -125 l 1,0,-1
EndSplineSet
Substitution2: "'frac' Diagonal Fractions lookup 21 subtable" fraction
EndChar

StartChar: zero
Encoding: 48 48 20
Width: 1175
Flags: W
LayerCount: 2
Back
Fore
SplineSet
1079 602 m 2,0,1
 1079 300 1079 300 954 140 c 128,-1,2
 829 -20 829 -20 588 -20 c 0,3,4
 350 -20 350 -20 224 137 c 128,-1,5
 98 294 98 294 95 587 c 2,6,-1
 95 855 l 2,7,8
 95 1160 95 1160 221.5 1318 c 128,-1,9
 348 1476 348 1476 586 1476 c 128,-1,10
 824 1476 824 1476 950 1319.5 c 128,-1,11
 1076 1163 1076 1163 1079 870 c 2,12,-1
 1079 602 l 2,0,1
790 896 m 2,13,14
 790 1077 790 1077 740.5 1159.5 c 128,-1,15
 691 1242 691 1242 586 1242 c 0,16,17
 484 1242 484 1242 435.5 1163.5 c 128,-1,18
 387 1085 387 1085 384 918 c 2,19,-1
 384 564 l 2,20,21
 384 386 384 386 432.5 299.5 c 128,-1,22
 481 213 481 213 588 213 c 0,23,24
 694 213 694 213 741 296 c 128,-1,25
 788 379 788 379 790 550 c 2,26,-1
 790 896 l 2,13,14
EndSplineSet
Substitution2: "Single Substitution lookup 26 subtable" zero.dnom
Substitution2: "'numr' Numerators lookup 25 subtable" zero.frac
Substitution2: "'dnom' Denominators lookup 24 subtable" zero.dnom
Substitution2: "'frac' Diagonal Fractions lookup 23 subtable" zero.frac
Substitution2: "'pnum' Proportional Numbers lookup 19 subtable" zero.pnum
Substitution2: "'onum' Oldstyle Figures lookup 17 subtable" zero.oldstyle
EndChar

StartChar: one
Encoding: 49 49 21
Width: 1175
Flags: W
LayerCount: 2
Back
Fore
SplineSet
801 0 m 1,0,-1
 512 0 l 1,1,-1
 512 1114 l 1,2,-1
 167 1007 l 1,3,-1
 167 1242 l 1,4,-1
 770 1458 l 1,5,-1
 801 1458 l 1,6,-1
 801 0 l 1,0,-1
EndSplineSet
Substitution2: "Single Substitution lookup 26 subtable" one.dnom
Substitution2: "'numr' Numerators lookup 25 subtable" uni00B9
Substitution2: "'dnom' Denominators lookup 24 subtable" one.dnom
Substitution2: "'frac' Diagonal Fractions lookup 23 subtable" uni00B9
Substitution2: "'pnum' Proportional Numbers lookup 19 subtable" one.pnum
Substitution2: "'onum' Oldstyle Figures lookup 17 subtable" one.oldstyle
EndChar

StartChar: two
Encoding: 50 50 22
Width: 1175
Flags: W
LayerCount: 2
Back
Fore
SplineSet
1097 0 m 1,0,-1
 99 0 l 1,1,-1
 99 198 l 1,2,-1
 570 700 l 2,3,4
 667 806 667 806 713.5 885 c 128,-1,5
 760 964 760 964 760 1035 c 0,6,7
 760 1132 760 1132 711 1187.5 c 128,-1,8
 662 1243 662 1243 571 1243 c 0,9,10
 473 1243 473 1243 416.5 1175.5 c 128,-1,11
 360 1108 360 1108 360 998 c 1,12,-1
 70 998 l 1,13,14
 70 1131 70 1131 133.5 1241 c 128,-1,15
 197 1351 197 1351 313 1413.5 c 128,-1,16
 429 1476 429 1476 576 1476 c 0,17,18
 801 1476 801 1476 925.5 1368 c 128,-1,19
 1050 1260 1050 1260 1050 1063 c 0,20,21
 1050 955 1050 955 994 843 c 128,-1,22
 938 731 938 731 802 582 c 2,23,-1
 471 233 l 1,24,-1
 1097 233 l 1,25,-1
 1097 0 l 1,0,-1
EndSplineSet
Substitution2: "Single Substitution lookup 26 subtable" two.dnom
Substitution2: "'numr' Numerators lookup 25 subtable" uni00B2
Substitution2: "'dnom' Denominators lookup 24 subtable" two.dnom
Substitution2: "'frac' Diagonal Fractions lookup 23 subtable" uni00B2
Substitution2: "'pnum' Proportional Numbers lookup 19 subtable" two.pnum
Substitution2: "'onum' Oldstyle Figures lookup 17 subtable" two.oldstyle
EndChar

StartChar: three
Encoding: 51 51 23
Width: 1175
Flags: W
LayerCount: 2
Back
Fore
SplineSet
393 856 m 1,0,-1
 547 856 l 2,1,2
 657 856 657 856 710 911 c 128,-1,3
 763 966 763 966 763 1057 c 0,4,5
 763 1145 763 1145 710.5 1194 c 128,-1,6
 658 1243 658 1243 566 1243 c 0,7,8
 483 1243 483 1243 427 1197.5 c 128,-1,9
 371 1152 371 1152 371 1079 c 1,10,-1
 82 1079 l 1,11,12
 82 1193 82 1193 143.5 1283.5 c 128,-1,13
 205 1374 205 1374 315.5 1425 c 128,-1,14
 426 1476 426 1476 559 1476 c 0,15,16
 790 1476 790 1476 921 1365.5 c 128,-1,17
 1052 1255 1052 1255 1052 1061 c 0,18,19
 1052 961 1052 961 991 877 c 128,-1,20
 930 793 930 793 831 748 c 1,21,22
 954 704 954 704 1014.5 616 c 128,-1,23
 1075 528 1075 528 1075 408 c 0,24,25
 1075 214 1075 214 933.5 97 c 128,-1,26
 792 -20 792 -20 559 -20 c 0,27,28
 341 -20 341 -20 202.5 95 c 128,-1,29
 64 210 64 210 64 399 c 1,30,-1
 353 399 l 1,31,32
 353 317 353 317 414.5 265 c 128,-1,33
 476 213 476 213 566 213 c 0,34,35
 669 213 669 213 727.5 267.5 c 128,-1,36
 786 322 786 322 786 412 c 0,37,38
 786 630 786 630 546 630 c 2,39,-1
 393 630 l 1,40,-1
 393 856 l 1,0,-1
EndSplineSet
Substitution2: "Single Substitution lookup 26 subtable" three.dnom
Substitution2: "'numr' Numerators lookup 25 subtable" uni00B3
Substitution2: "'dnom' Denominators lookup 24 subtable" three.dnom
Substitution2: "'frac' Diagonal Fractions lookup 23 subtable" uni00B3
Substitution2: "'pnum' Proportional Numbers lookup 19 subtable" three.pnum
Substitution2: "'onum' Oldstyle Figures lookup 17 subtable" three.oldstyle
EndChar

StartChar: four
Encoding: 52 52 24
Width: 1175
Flags: W
LayerCount: 2
Back
Fore
SplineSet
954 548 m 1,0,-1
 1119 548 l 1,1,-1
 1119 315 l 1,2,-1
 954 315 l 1,3,-1
 954 0 l 1,4,-1
 665 0 l 1,5,-1
 665 315 l 1,6,-1
 68 315 l 1,7,-1
 55 497 l 1,8,-1
 662 1456 l 1,9,-1
 954 1456 l 1,10,-1
 954 548 l 1,0,-1
343 548 m 1,11,-1
 665 548 l 1,12,-1
 665 1062 l 1,13,-1
 646 1029 l 1,14,-1
 343 548 l 1,11,-1
EndSplineSet
Substitution2: "Single Substitution lookup 26 subtable" four.dnom
Substitution2: "'numr' Numerators lookup 25 subtable" four.frac
Substitution2: "'dnom' Denominators lookup 24 subtable" four.dnom
Substitution2: "'frac' Diagonal Fractions lookup 23 subtable" four.frac
Substitution2: "'pnum' Proportional Numbers lookup 19 subtable" four.pnum
Substitution2: "'onum' Oldstyle Figures lookup 17 subtable" four.oldstyle
EndChar

StartChar: five
Encoding: 53 53 25
Width: 1175
Flags: W
LayerCount: 2
Back
Fore
SplineSet
142 716 m 1,0,-1
 226 1456 l 1,1,-1
 1042 1456 l 1,2,-1
 1042 1215 l 1,3,-1
 463 1215 l 1,4,-1
 427 902 l 1,5,6
 530 957 530 957 646 957 c 0,7,8
 854 957 854 957 972 828 c 128,-1,9
 1090 699 1090 699 1090 467 c 0,10,11
 1090 326 1090 326 1030.5 214.5 c 128,-1,12
 971 103 971 103 860 41.5 c 128,-1,13
 749 -20 749 -20 598 -20 c 0,14,15
 466 -20 466 -20 353 33.5 c 128,-1,16
 240 87 240 87 174.5 184 c 128,-1,17
 109 281 109 281 105 405 c 1,18,-1
 391 405 l 1,19,20
 400 314 400 314 454.5 263.5 c 128,-1,21
 509 213 509 213 597 213 c 0,22,23
 695 213 695 213 748 283.5 c 128,-1,24
 801 354 801 354 801 483 c 0,25,26
 801 607 801 607 740 673 c 128,-1,27
 679 739 679 739 567 739 c 0,28,29
 464 739 464 739 400 685 c 2,30,-1
 372 659 l 1,31,-1
 142 716 l 1,0,-1
EndSplineSet
Substitution2: "Single Substitution lookup 26 subtable" five.dnom
Substitution2: "'numr' Numerators lookup 25 subtable" five.frac
Substitution2: "'dnom' Denominators lookup 24 subtable" five.dnom
Substitution2: "'frac' Diagonal Fractions lookup 23 subtable" five.frac
Substitution2: "'pnum' Proportional Numbers lookup 19 subtable" five.pnum
Substitution2: "'onum' Oldstyle Figures lookup 17 subtable" five.oldstyle
EndChar

StartChar: six
Encoding: 54 54 26
Width: 1175
Flags: W
LayerCount: 2
Back
Fore
SplineSet
883 1471 m 1,0,-1
 883 1233 l 1,1,-1
 855 1233 l 2,2,3
 659 1230 659 1230 539.5 1131 c 128,-1,4
 420 1032 420 1032 396 856 c 1,5,6
 512 974 512 974 689 974 c 0,7,8
 879 974 879 974 991 838 c 128,-1,9
 1103 702 1103 702 1103 480 c 0,10,11
 1103 338 1103 338 1041.5 223 c 128,-1,12
 980 108 980 108 867.5 44 c 128,-1,13
 755 -20 755 -20 613 -20 c 0,14,15
 383 -20 383 -20 241.5 140 c 128,-1,16
 100 300 100 300 100 567 c 2,17,-1
 100 671 l 2,18,19
 100 908 100 908 189.5 1089.5 c 128,-1,20
 279 1271 279 1271 446.5 1370.5 c 128,-1,21
 614 1470 614 1470 835 1471 c 2,22,-1
 883 1471 l 1,0,-1
601 742 m 0,23,24
 531 742 531 742 474 705.5 c 128,-1,25
 417 669 417 669 390 609 c 1,26,-1
 390 521 l 2,27,28
 390 376 390 376 447 294.5 c 128,-1,29
 504 213 504 213 607 213 c 0,30,31
 700 213 700 213 757.5 286.5 c 128,-1,32
 815 360 815 360 815 477 c 0,33,34
 815 596 815 596 757 669 c 128,-1,35
 699 742 699 742 601 742 c 0,23,24
EndSplineSet
Substitution2: "Single Substitution lookup 26 subtable" six.dnom
Substitution2: "'numr' Numerators lookup 25 subtable" six.frac
Substitution2: "'dnom' Denominators lookup 24 subtable" six.dnom
Substitution2: "'frac' Diagonal Fractions lookup 23 subtable" six.frac
EndChar

StartChar: seven
Encoding: 55 55 27
Width: 1175
Flags: W
LayerCount: 2
Back
Fore
SplineSet
1089 1294 m 1,0,-1
 526 0 l 1,1,-1
 221 0 l 1,2,-1
 785 1222 l 1,3,-1
 61 1222 l 1,4,-1
 61 1456 l 1,5,-1
 1089 1456 l 1,6,-1
 1089 1294 l 1,0,-1
EndSplineSet
Substitution2: "Single Substitution lookup 26 subtable" seven.dnom
Substitution2: "'numr' Numerators lookup 25 subtable" seven.frac
Substitution2: "'dnom' Denominators lookup 24 subtable" seven.dnom
Substitution2: "'frac' Diagonal Fractions lookup 23 subtable" seven.frac
Substitution2: "'pnum' Proportional Numbers lookup 19 subtable" seven.pnum
Substitution2: "'onum' Oldstyle Figures lookup 17 subtable" seven.oldstyle
EndChar

StartChar: eight
Encoding: 56 56 28
Width: 1175
Flags: W
LayerCount: 2
Back
Fore
SplineSet
1048 1069 m 0,0,1
 1048 963 1048 963 995 881 c 128,-1,2
 942 799 942 799 849 750 c 1,3,4
 955 699 955 699 1017 609.5 c 128,-1,5
 1079 520 1079 520 1079 399 c 0,6,7
 1079 205 1079 205 947 92.5 c 128,-1,8
 815 -20 815 -20 588 -20 c 128,-1,9
 361 -20 361 -20 228 93 c 128,-1,10
 95 206 95 206 95 399 c 0,11,12
 95 520 95 520 157 610 c 128,-1,13
 219 700 219 700 324 750 c 1,14,15
 231 799 231 799 178.5 881 c 128,-1,16
 126 963 126 963 126 1069 c 0,17,18
 126 1255 126 1255 250 1365.5 c 128,-1,19
 374 1476 374 1476 587 1476 c 0,20,21
 799 1476 799 1476 923.5 1366.5 c 128,-1,22
 1048 1257 1048 1257 1048 1069 c 0,0,1
789 420 m 0,23,24
 789 515 789 515 734 572 c 128,-1,25
 679 629 679 629 586 629 c 0,26,27
 494 629 494 629 439 572.5 c 128,-1,28
 384 516 384 516 384 420 c 0,29,30
 384 327 384 327 438 270 c 128,-1,31
 492 213 492 213 588 213 c 0,32,33
 682 213 682 213 735.5 268 c 128,-1,34
 789 323 789 323 789 420 c 0,23,24
759 1055 m 0,35,36
 759 1140 759 1140 714 1191.5 c 128,-1,37
 669 1243 669 1243 587 1243 c 0,38,39
 506 1243 506 1243 461 1193 c 128,-1,40
 416 1143 416 1143 416 1055 c 0,41,42
 416 968 416 968 461 915 c 128,-1,43
 506 862 506 862 588 862 c 128,-1,44
 670 862 670 862 714.5 915 c 128,-1,45
 759 968 759 968 759 1055 c 0,35,36
EndSplineSet
Substitution2: "Single Substitution lookup 26 subtable" eight.dnom
Substitution2: "'numr' Numerators lookup 25 subtable" eight.frac
Substitution2: "'dnom' Denominators lookup 24 subtable" eight.dnom
Substitution2: "'frac' Diagonal Fractions lookup 23 subtable" eight.frac
EndChar

StartChar: nine
Encoding: 57 57 29
Width: 1175
Flags: W
LayerCount: 2
Back
Fore
SplineSet
775 582 m 1,0,1
 662 471 662 471 511 471 c 0,2,3
 318 471 318 471 202 603.5 c 128,-1,4
 86 736 86 736 86 961 c 0,5,6
 86 1104 86 1104 148.5 1223.5 c 128,-1,7
 211 1343 211 1343 323 1409.5 c 128,-1,8
 435 1476 435 1476 575 1476 c 0,9,10
 719 1476 719 1476 831 1404 c 128,-1,11
 943 1332 943 1332 1005 1197 c 128,-1,12
 1067 1062 1067 1062 1068 888 c 2,13,-1
 1068 781 l 2,14,15
 1068 417 1068 417 887 209 c 128,-1,16
 706 1 706 1 374 -13 c 1,17,-1
 303 -14 l 1,18,-1
 303 227 l 1,19,-1
 367 228 l 1,20,21
 744 245 744 245 775 582 c 1,0,1
582 692 m 0,22,23
 652 692 652 692 702.5 728 c 128,-1,24
 753 764 753 764 779 815 c 1,25,-1
 779 934 l 2,26,27
 779 1081 779 1081 723 1162 c 128,-1,28
 667 1243 667 1243 573 1243 c 0,29,30
 486 1243 486 1243 430 1163.5 c 128,-1,31
 374 1084 374 1084 374 964 c 0,32,33
 374 845 374 845 428.5 768.5 c 128,-1,34
 483 692 483 692 582 692 c 0,22,23
EndSplineSet
Substitution2: "Single Substitution lookup 26 subtable" nine.dnom
Substitution2: "'numr' Numerators lookup 25 subtable" nine.frac
Substitution2: "'dnom' Denominators lookup 24 subtable" nine.dnom
Substitution2: "'frac' Diagonal Fractions lookup 23 subtable" nine.frac
Substitution2: "'pnum' Proportional Numbers lookup 19 subtable" nine.pnum
Substitution2: "'onum' Oldstyle Figures lookup 17 subtable" nine.oldstyle
EndChar

StartChar: less
Encoding: 60 60 32
Width: 1042
Flags: W
LayerCount: 2
Back
Fore
SplineSet
345 618 m 1,0,-1
 915 417 l 1,1,-1
 915 137 l 1,2,-1
 54 502 l 1,3,-1
 54 738 l 1,4,-1
 915 1103 l 1,5,-1
 915 823 l 1,6,-1
 345 618 l 1,0,-1
EndSplineSet
EndChar

StartChar: equal
Encoding: 61 61 33
Width: 1172
Flags: W
LayerCount: 2
Back
Fore
SplineSet
1030 746 m 1,0,-1
 136 746 l 1,1,-1
 136 982 l 1,2,-1
 1030 982 l 1,3,-1
 1030 746 l 1,0,-1
1030 313 m 1,4,-1
 136 313 l 1,5,-1
 136 549 l 1,6,-1
 1030 549 l 1,7,-1
 1030 313 l 1,4,-1
EndSplineSet
EndChar

StartChar: greater
Encoding: 62 62 34
Width: 1058
Flags: W
LayerCount: 2
Back
Fore
SplineSet
701 621 m 1,0,-1
 120 824 l 1,1,-1
 120 1102 l 1,2,-1
 991 737 l 1,3,-1
 991 502 l 1,4,-1
 120 136 l 1,5,-1
 120 415 l 1,6,-1
 701 621 l 1,0,-1
EndSplineSet
EndChar

StartChar: question
Encoding: 63 63 35
Width: 1019
Flags: W
LayerCount: 2
Back
Fore
SplineSet
347 447 m 1,0,1
 347 587 347 587 381 670 c 128,-1,2
 415 753 415 753 505.5 833.5 c 128,-1,3
 596 914 596 914 626 964.5 c 128,-1,4
 656 1015 656 1015 656 1071 c 0,5,6
 656 1240 656 1240 500 1240 c 0,7,8
 426 1240 426 1240 381.5 1194.5 c 128,-1,9
 337 1149 337 1149 335 1069 c 1,10,-1
 45 1069 l 1,11,12
 47 1260 47 1260 168.5 1368 c 128,-1,13
 290 1476 290 1476 500 1476 c 0,14,15
 712 1476 712 1476 829 1373.5 c 128,-1,16
 946 1271 946 1271 946 1084 c 0,17,18
 946 999 946 999 908 923.5 c 128,-1,19
 870 848 870 848 775 756 c 2,20,-1
 694 679 l 2,21,22
 618 606 618 606 607 508 c 1,23,-1
 603 447 l 1,24,-1
 347 447 l 1,0,1
318 140 m 0,25,26
 318 207 318 207 363.5 250.5 c 128,-1,27
 409 294 409 294 480 294 c 128,-1,28
 551 294 551 294 596.5 250.5 c 128,-1,29
 642 207 642 207 642 140 c 0,30,31
 642 74 642 74 597.5 31 c 128,-1,32
 553 -12 553 -12 480 -12 c 128,-1,33
 407 -12 407 -12 362.5 31 c 128,-1,34
 318 74 318 74 318 140 c 0,25,26
EndSplineSet
EndChar

StartChar: at
Encoding: 64 64 36
Width: 1833
Flags: W
LayerCount: 2
Back
Fore
SplineSet
1749 536 m 0,0,1
 1738 280 1738 280 1622.5 129.5 c 128,-1,2
 1507 -21 1507 -21 1312 -21 c 0,3,4
 1226 -21 1226 -21 1163.5 16 c 128,-1,5
 1101 53 1101 53 1069 122 c 1,6,7
 969 -18 969 -18 808 -18 c 0,8,9
 662 -18 662 -18 582 105 c 128,-1,10
 502 228 502 228 522 430 c 0,11,12
 540 595 540 595 605.5 723.5 c 128,-1,13
 671 852 671 852 771 921 c 128,-1,14
 871 990 871 990 987 990 c 0,15,16
 1130 990 1130 990 1231 924 c 2,17,-1
 1294 881 l 1,18,-1
 1243 303 l 2,19,20
 1233 224 1233 224 1260.5 182 c 128,-1,21
 1288 140 1288 140 1348 140 c 0,22,23
 1440 140 1440 140 1502 247.5 c 128,-1,24
 1564 355 1564 355 1570 529 c 0,25,26
 1587 878 1587 878 1429.5 1065.5 c 128,-1,27
 1272 1253 1272 1253 963 1253 c 0,28,29
 770 1253 770 1253 619 1155 c 128,-1,30
 468 1057 468 1057 381 876.5 c 128,-1,31
 294 696 294 696 283 463 c 0,32,33
 267 109 267 109 425 -84.5 c 128,-1,34
 583 -278 583 -278 898 -278 c 0,35,36
 981 -278 981 -278 1072 -259.5 c 128,-1,37
 1163 -241 1163 -241 1229 -210 c 1,38,-1
 1267 -364 l 1,39,40
 1206 -404 1206 -404 1102.5 -428.5 c 128,-1,41
 999 -453 999 -453 894 -453 c 0,42,43
 630 -453 630 -453 444 -346.5 c 128,-1,44
 258 -240 258 -240 166.5 -32.5 c 128,-1,45
 75 175 75 175 87 463 c 0,46,47
 99 739 99 739 213 958 c 128,-1,48
 327 1177 327 1177 523.5 1296.5 c 128,-1,49
 720 1416 720 1416 967 1416 c 0,50,51
 1218 1416 1218 1416 1399 1308.5 c 128,-1,52
 1580 1201 1580 1201 1670 1001 c 128,-1,53
 1760 801 1760 801 1749 536 c 0,0,1
744 430 m 0,54,55
 733 298 733 298 767 229.5 c 128,-1,56
 801 161 801 161 877 161 c 0,57,58
 926 161 926 161 970 204 c 128,-1,59
 1014 247 1014 247 1043 328 c 1,60,-1
 1085 801 l 1,61,62
 1046 814 1046 814 1005 814 c 0,63,64
 890 814 890 814 826.5 716 c 128,-1,65
 763 618 763 618 744 430 c 0,54,55
EndSplineSet
EndChar

StartChar: A
Encoding: 65 65 37
Width: 1378
GlyphClass: 2
Flags: W
LayerCount: 2
Back
Fore
SplineSet
952 300 m 1,0,-1
 426 300 l 1,1,-1
 326 0 l 1,2,-1
 7 0 l 1,3,-1
 549 1456 l 1,4,-1
 827 1456 l 1,5,-1
 1372 0 l 1,6,-1
 1053 0 l 1,7,-1
 952 300 l 1,0,-1
507 543 m 1,8,-1
 871 543 l 1,9,-1
 688 1088 l 1,10,-1
 507 543 l 1,8,-1
EndSplineSet
Substitution2: "'c2sc' Capitals to Small Capitals lookup 0 subtable" A.c2sc
Position2: "'cpsp' Capital Spacing lookup 0 subtable" dx=36 dy=0 dh=72 dv=0
EndChar

StartChar: B
Encoding: 66 66 38
Width: 1307
GlyphClass: 2
Flags: W
LayerCount: 2
Back
Fore
SplineSet
130 0 m 1,0,-1
 130 1456 l 1,1,-1
 640 1456 l 2,2,3
 905 1456 905 1456 1042 1354.5 c 128,-1,4
 1179 1253 1179 1253 1179 1057 c 0,5,6
 1179 950 1179 950 1124 868.5 c 128,-1,7
 1069 787 1069 787 971 749 c 1,8,9
 1083 721 1083 721 1147.5 636 c 128,-1,10
 1212 551 1212 551 1212 428 c 0,11,12
 1212 218 1212 218 1078 110 c 128,-1,13
 944 2 944 2 696 0 c 2,14,-1
 130 0 l 1,0,-1
430 634 m 1,15,-1
 430 241 l 1,16,-1
 687 241 l 2,17,18
 793 241 793 241 852.5 291.5 c 128,-1,19
 912 342 912 342 912 431 c 0,20,21
 912 631 912 631 705 634 c 2,22,-1
 430 634 l 1,15,-1
430 846 m 1,23,-1
 652 846 l 1,24,25
 879 850 879 850 879 1027 c 0,26,27
 879 1126 879 1126 821.5 1169.5 c 128,-1,28
 764 1213 764 1213 640 1213 c 2,29,-1
 430 1213 l 1,30,-1
 430 846 l 1,23,-1
EndSplineSet
Substitution2: "'c2sc' Capitals to Small Capitals lookup 0 subtable" B.c2sc
Position2: "'cpsp' Capital Spacing lookup 0 subtable" dx=36 dy=0 dh=72 dv=0
EndChar

StartChar: C
Encoding: 67 67 39
Width: 1340
GlyphClass: 2
Flags: W
LayerCount: 2
Back
Fore
SplineSet
1273 485 m 1,0,1
 1256 250 1256 250 1099.5 115 c 128,-1,2
 943 -20 943 -20 687 -20 c 0,3,4
 407 -20 407 -20 246.5 168.5 c 128,-1,5
 86 357 86 357 86 686 c 2,6,-1
 86 775 l 2,7,8
 86 985 86 985 160 1145 c 128,-1,9
 234 1305 234 1305 371.5 1390.5 c 128,-1,10
 509 1476 509 1476 691 1476 c 0,11,12
 943 1476 943 1476 1097 1341 c 128,-1,13
 1251 1206 1251 1206 1275 962 c 1,14,-1
 975 962 l 1,15,16
 964 1103 964 1103 896.5 1166.5 c 128,-1,17
 829 1230 829 1230 691 1230 c 0,18,19
 541 1230 541 1230 466.5 1122.5 c 128,-1,20
 392 1015 392 1015 390 789 c 2,21,-1
 390 679 l 2,22,23
 390 443 390 443 461.5 334 c 128,-1,24
 533 225 533 225 687 225 c 0,25,26
 826 225 826 225 894.5 288.5 c 128,-1,27
 963 352 963 352 973 485 c 1,28,-1
 1273 485 l 1,0,1
EndSplineSet
Substitution2: "'ss06' Style Set 6 lookup 15 subtable" C.ss06
Substitution2: "'c2sc' Capitals to Small Capitals lookup 0 subtable" C.c2sc
Position2: "'cpsp' Capital Spacing lookup 0 subtable" dx=36 dy=0 dh=72 dv=0
EndChar

StartChar: D
Encoding: 68 68 40
Width: 1331
GlyphClass: 2
Flags: W
LayerCount: 2
Back
Fore
SplineSet
130 0 m 1,0,-1
 130 1456 l 1,1,-1
 578 1456 l 2,2,3
 770 1456 770 1456 921.5 1369.5 c 128,-1,4
 1073 1283 1073 1283 1158 1123.5 c 128,-1,5
 1243 964 1243 964 1243 761 c 2,6,-1
 1243 694 l 2,7,8
 1243 491 1243 491 1159.5 333 c 128,-1,9
 1076 175 1076 175 924 88 c 128,-1,10
 772 1 772 1 581 0 c 2,11,-1
 130 0 l 1,0,-1
430 1213 m 1,12,-1
 430 241 l 1,13,-1
 575 241 l 2,14,15
 751 241 751 241 844 356 c 128,-1,16
 937 471 937 471 939 685 c 2,17,-1
 939 762 l 2,18,19
 939 984 939 984 847 1098.5 c 128,-1,20
 755 1213 755 1213 578 1213 c 2,21,-1
 430 1213 l 1,12,-1
EndSplineSet
Substitution2: "'ss06' Style Set 6 lookup 15 subtable" D.ss06
Substitution2: "'c2sc' Capitals to Small Capitals lookup 0 subtable" D.c2sc
Position2: "'cpsp' Capital Spacing lookup 0 subtable" dx=36 dy=0 dh=72 dv=0
EndChar

StartChar: E
Encoding: 69 69 41
Width: 1152
GlyphClass: 2
Flags: W
LayerCount: 2
Back
Fore
SplineSet
1006 631 m 1,0,-1
 430 631 l 1,1,-1
 430 241 l 1,2,-1
 1106 241 l 1,3,-1
 1106 0 l 1,4,-1
 130 0 l 1,5,-1
 130 1456 l 1,6,-1
 1104 1456 l 1,7,-1
 1104 1213 l 1,8,-1
 430 1213 l 1,9,-1
 430 866 l 1,10,-1
 1006 866 l 1,11,-1
 1006 631 l 1,0,-1
EndSplineSet
Substitution2: "'c2sc' Capitals to Small Capitals lookup 0 subtable" E.c2sc
Position2: "'cpsp' Capital Spacing lookup 0 subtable" dx=36 dy=0 dh=72 dv=0
EndChar

StartChar: F
Encoding: 70 70 42
Width: 1122
GlyphClass: 2
Flags: W
LayerCount: 2
Back
Fore
SplineSet
1006 595 m 1,0,-1
 430 595 l 1,1,-1
 430 0 l 1,2,-1
 130 0 l 1,3,-1
 130 1456 l 1,4,-1
 1078 1456 l 1,5,-1
 1078 1213 l 1,6,-1
 430 1213 l 1,7,-1
 430 837 l 1,8,-1
 1006 837 l 1,9,-1
 1006 595 l 1,0,-1
EndSplineSet
Substitution2: "'c2sc' Capitals to Small Capitals lookup 0 subtable" F.c2sc
Position2: "'cpsp' Capital Spacing lookup 0 subtable" dx=36 dy=0 dh=72 dv=0
EndChar

StartChar: G
Encoding: 71 71 43
Width: 1395
GlyphClass: 2
Flags: W
LayerCount: 2
Back
Fore
SplineSet
1282 184 m 1,0,1
 1201 87 1201 87 1053 33.5 c 128,-1,2
 905 -20 905 -20 725 -20 c 0,3,4
 536 -20 536 -20 393.5 62.5 c 128,-1,5
 251 145 251 145 173.5 302 c 128,-1,6
 96 459 96 459 94 671 c 2,7,-1
 94 770 l 2,8,9
 94 988 94 988 167.5 1147.5 c 128,-1,10
 241 1307 241 1307 379.5 1391.5 c 128,-1,11
 518 1476 518 1476 704 1476 c 0,12,13
 963 1476 963 1476 1109 1352.5 c 128,-1,14
 1255 1229 1255 1229 1282 993 c 1,15,-1
 990 993 l 1,16,17
 970 1118 970 1118 901.5 1176 c 128,-1,18
 833 1234 833 1234 713 1234 c 0,19,20
 560 1234 560 1234 480 1119 c 128,-1,21
 400 1004 400 1004 399 777 c 2,22,-1
 399 684 l 2,23,24
 399 455 399 455 486 338 c 128,-1,25
 573 221 573 221 741 221 c 0,26,27
 910 221 910 221 982 293 c 1,28,-1
 982 544 l 1,29,-1
 709 544 l 1,30,-1
 709 765 l 1,31,-1
 1282 765 l 1,32,-1
 1282 184 l 1,0,1
EndSplineSet
Substitution2: "'ss06' Style Set 6 lookup 15 subtable" G.ss06
Substitution2: "'c2sc' Capitals to Small Capitals lookup 0 subtable" G.c2sc
Position2: "'cpsp' Capital Spacing lookup 0 subtable" dx=36 dy=0 dh=72 dv=0
EndChar

StartChar: H
Encoding: 72 72 44
Width: 1447
GlyphClass: 2
Flags: W
LayerCount: 2
Back
Fore
SplineSet
1315 0 m 1,0,-1
 1015 0 l 1,1,-1
 1015 624 l 1,2,-1
 430 624 l 1,3,-1
 430 0 l 1,4,-1
 130 0 l 1,5,-1
 130 1456 l 1,6,-1
 430 1456 l 1,7,-1
 430 866 l 1,8,-1
 1015 866 l 1,9,-1
 1015 1456 l 1,10,-1
 1315 1456 l 1,11,-1
 1315 0 l 1,0,-1
EndSplineSet
Substitution2: "'c2sc' Capitals to Small Capitals lookup 0 subtable" H.c2sc
Position2: "'cpsp' Capital Spacing lookup 0 subtable" dx=36 dy=0 dh=72 dv=0
EndChar

StartChar: I
Encoding: 73 73 45
Width: 597
GlyphClass: 2
Flags: W
LayerCount: 2
Back
Fore
SplineSet
449 0 m 1,0,-1
 149 0 l 1,1,-1
 149 1456 l 1,2,-1
 449 1456 l 1,3,-1
 449 0 l 1,0,-1
EndSplineSet
Substitution2: "'c2sc' Capitals to Small Capitals lookup 0 subtable" I.c2sc
Position2: "'cpsp' Capital Spacing lookup 0 subtable" dx=36 dy=0 dh=72 dv=0
EndChar

StartChar: J
Encoding: 74 74 46
Width: 1144
GlyphClass: 2
Flags: W
LayerCount: 2
Back
Fore
SplineSet
717 1456 m 1,0,-1
 1017 1456 l 1,1,-1
 1017 448 l 2,2,3
 1017 309 1017 309 955.5 202.5 c 128,-1,4
 894 96 894 96 782 38 c 128,-1,5
 670 -20 670 -20 529 -20 c 0,6,7
 298 -20 298 -20 169 97.5 c 128,-1,8
 40 215 40 215 40 430 c 1,9,-1
 342 430 l 1,10,11
 342 323 342 323 387 272 c 128,-1,12
 432 221 432 221 529 221 c 0,13,14
 615 221 615 221 666 280 c 128,-1,15
 717 339 717 339 717 448 c 2,16,-1
 717 1456 l 1,0,-1
EndSplineSet
Substitution2: "'c2sc' Capitals to Small Capitals lookup 0 subtable" J.c2sc
Position2: "'cpsp' Capital Spacing lookup 0 subtable" dx=36 dy=0 dh=72 dv=0
EndChar

StartChar: K
Encoding: 75 75 47
Width: 1300
GlyphClass: 2
Flags: W
LayerCount: 2
Back
Fore
SplineSet
586 584 m 1,0,-1
 430 416 l 1,1,-1
 430 0 l 1,2,-1
 130 0 l 1,3,-1
 130 1456 l 1,4,-1
 430 1456 l 1,5,-1
 430 796 l 1,6,-1
 562 977 l 1,7,-1
 933 1456 l 1,8,-1
 1302 1456 l 1,9,-1
 785 809 l 1,10,-1
 1317 0 l 1,11,-1
 960 0 l 1,12,-1
 586 584 l 1,0,-1
EndSplineSet
Substitution2: "'ss05' Style Set 5 lookup 14 subtable" K.ss05
Substitution2: "'ss04' Style Set 4 lookup 13 subtable" K.ss04
Substitution2: "'c2sc' Capitals to Small Capitals lookup 0 subtable" K.c2sc
Position2: "'cpsp' Capital Spacing lookup 0 subtable" dx=36 dy=0 dh=72 dv=0
EndChar

StartChar: L
Encoding: 76 76 48
Width: 1109
GlyphClass: 2
Flags: W
LayerCount: 2
Back
Fore
SplineSet
430 241 m 1,0,-1
 1067 241 l 1,1,-1
 1067 0 l 1,2,-1
 130 0 l 1,3,-1
 130 1456 l 1,4,-1
 430 1456 l 1,5,-1
 430 241 l 1,0,-1
EndSplineSet
Substitution2: "'c2sc' Capitals to Small Capitals lookup 0 subtable" L.c2sc
Position2: "'cpsp' Capital Spacing lookup 0 subtable" dx=36 dy=0 dh=72 dv=0
EndChar

StartChar: M
Encoding: 77 77 49
Width: 1794
GlyphClass: 2
Flags: W
LayerCount: 2
Back
Fore
SplineSet
522 1456 m 1,0,-1
 896 400 l 1,1,-1
 1268 1456 l 1,2,-1
 1662 1456 l 1,3,-1
 1662 0 l 1,4,-1
 1361 0 l 1,5,-1
 1361 398 l 1,6,-1
 1391 1085 l 1,7,-1
 998 0 l 1,8,-1
 792 0 l 1,9,-1
 400 1084 l 1,10,-1
 430 398 l 1,11,-1
 430 0 l 1,12,-1
 130 0 l 1,13,-1
 130 1456 l 1,14,-1
 522 1456 l 1,0,-1
EndSplineSet
Substitution2: "'c2sc' Capitals to Small Capitals lookup 0 subtable" M.c2sc
Position2: "'cpsp' Capital Spacing lookup 0 subtable" dx=36 dy=0 dh=72 dv=0
EndChar

StartChar: N
Encoding: 78 78 50
Width: 1446
GlyphClass: 2
Flags: W
LayerCount: 2
Back
Fore
SplineSet
1314 0 m 1,0,-1
 1014 0 l 1,1,-1
 430 958 l 1,2,-1
 430 0 l 1,3,-1
 130 0 l 1,4,-1
 130 1456 l 1,5,-1
 430 1456 l 1,6,-1
 1015 496 l 1,7,-1
 1015 1456 l 1,8,-1
 1314 1456 l 1,9,-1
 1314 0 l 1,0,-1
EndSplineSet
Substitution2: "'c2sc' Capitals to Small Capitals lookup 0 subtable" N.c2sc
Position2: "'cpsp' Capital Spacing lookup 0 subtable" dx=36 dy=0 dh=72 dv=0
EndChar

StartChar: O
Encoding: 79 79 51
Width: 1414
GlyphClass: 2
Flags: W
LayerCount: 2
Back
Fore
SplineSet
1326 695 m 2,0,1
 1326 480 1326 480 1250 318 c 128,-1,2
 1174 156 1174 156 1032.5 68 c 128,-1,3
 891 -20 891 -20 708 -20 c 0,4,5
 527 -20 527 -20 385 67 c 128,-1,6
 243 154 243 154 165 315.5 c 128,-1,7
 87 477 87 477 86 687 c 2,8,-1
 86 759 l 2,9,10
 86 974 86 974 163.5 1137.5 c 128,-1,11
 241 1301 241 1301 382.5 1388.5 c 128,-1,12
 524 1476 524 1476 706 1476 c 128,-1,13
 888 1476 888 1476 1029.5 1388.5 c 128,-1,14
 1171 1301 1171 1301 1248.5 1137.5 c 128,-1,15
 1326 974 1326 974 1326 760 c 2,16,-1
 1326 695 l 2,0,1
1022 761 m 2,17,18
 1022 990 1022 990 940 1109 c 128,-1,19
 858 1228 858 1228 706 1228 c 0,20,21
 555 1228 555 1228 473 1110.5 c 128,-1,22
 391 993 391 993 390 766 c 2,23,-1
 390 695 l 2,24,25
 390 472 390 472 472 349 c 128,-1,26
 554 226 554 226 708 226 c 0,27,28
 859 226 859 226 940 344.5 c 128,-1,29
 1021 463 1021 463 1022 690 c 2,30,-1
 1022 761 l 2,17,18
EndSplineSet
Substitution2: "'ss06' Style Set 6 lookup 15 subtable" O.ss06
Substitution2: "'c2sc' Capitals to Small Capitals lookup 0 subtable" O.c2sc
Position2: "'cpsp' Capital Spacing lookup 0 subtable" dx=36 dy=0 dh=72 dv=0
EndChar

StartChar: P
Encoding: 80 80 52
Width: 1321
GlyphClass: 2
Flags: W
LayerCount: 2
Back
Fore
SplineSet
430 513 m 1,0,-1
 430 0 l 1,1,-1
 130 0 l 1,2,-1
 130 1456 l 1,3,-1
 698 1456 l 2,4,5
 862 1456 862 1456 986.5 1396 c 128,-1,6
 1111 1336 1111 1336 1178 1225.5 c 128,-1,7
 1245 1115 1245 1115 1245 974 c 0,8,9
 1245 760 1245 760 1098.5 636.5 c 128,-1,10
 952 513 952 513 693 513 c 2,11,-1
 430 513 l 1,0,-1
430 756 m 1,12,-1
 698 756 l 2,13,14
 817 756 817 756 879.5 812 c 128,-1,15
 942 868 942 868 942 972 c 0,16,17
 942 1079 942 1079 879 1145 c 128,-1,18
 816 1211 816 1211 705 1213 c 2,19,-1
 430 1213 l 1,20,-1
 430 756 l 1,12,-1
EndSplineSet
Substitution2: "'c2sc' Capitals to Small Capitals lookup 0 subtable" P.c2sc
Position2: "'cpsp' Capital Spacing lookup 0 subtable" dx=36 dy=0 dh=72 dv=0
EndChar

StartChar: Q
Encoding: 81 81 53
Width: 1414
GlyphClass: 2
Flags: W
LayerCount: 2
Back
Fore
SplineSet
1324 695 m 2,0,1
 1324 491 1324 491 1258 340.5 c 128,-1,2
 1192 190 1192 190 1075 99 c 1,3,-1
 1317 -91 l 1,4,-1
 1126 -260 l 1,5,-1
 816 -11 l 1,6,7
 763 -20 763 -20 706 -20 c 0,8,9
 525 -20 525 -20 383 67 c 128,-1,10
 241 154 241 154 163 315.5 c 128,-1,11
 85 477 85 477 84 687 c 2,12,-1
 84 759 l 2,13,14
 84 974 84 974 161.5 1137.5 c 128,-1,15
 239 1301 239 1301 380.5 1388.5 c 128,-1,16
 522 1476 522 1476 704 1476 c 128,-1,17
 886 1476 886 1476 1027.5 1388.5 c 128,-1,18
 1169 1301 1169 1301 1246.5 1137.5 c 128,-1,19
 1324 974 1324 974 1324 760 c 2,20,-1
 1324 695 l 2,0,1
1020 761 m 2,21,22
 1020 990 1020 990 938 1109 c 128,-1,23
 856 1228 856 1228 704 1228 c 0,24,25
 553 1228 553 1228 471 1110.5 c 128,-1,26
 389 993 389 993 388 766 c 2,27,-1
 388 695 l 2,28,29
 388 472 388 472 470 349 c 128,-1,30
 552 226 552 226 706 226 c 0,31,32
 857 226 857 226 938 344.5 c 128,-1,33
 1019 463 1019 463 1020 690 c 2,34,-1
 1020 761 l 2,21,22
EndSplineSet
Substitution2: "'ss06' Style Set 6 lookup 15 subtable" Q.ss06
Substitution2: "'c2sc' Capitals to Small Capitals lookup 0 subtable" Q.c2sc
Position2: "'cpsp' Capital Spacing lookup 0 subtable" dx=36 dy=0 dh=72 dv=0
EndChar

StartChar: R
Encoding: 82 82 54
Width: 1307
GlyphClass: 2
Flags: W
LayerCount: 2
Back
Fore
SplineSet
669 533 m 1,0,-1
 430 533 l 1,1,-1
 430 0 l 1,2,-1
 130 0 l 1,3,-1
 130 1456 l 1,4,-1
 671 1456 l 2,5,6
 929 1456 929 1456 1069 1341 c 128,-1,7
 1209 1226 1209 1226 1209 1016 c 0,8,9
 1209 867 1209 867 1144.5 767.5 c 128,-1,10
 1080 668 1080 668 949 609 c 1,11,-1
 1264 14 l 1,12,-1
 1264 0 l 1,13,-1
 942 0 l 1,14,-1
 669 533 l 1,0,-1
430 776 m 1,15,-1
 672 776 l 2,16,17
 785 776 785 776 847 833.5 c 128,-1,18
 909 891 909 891 909 992 c 0,19,20
 909 1095 909 1095 850.5 1154 c 128,-1,21
 792 1213 792 1213 671 1213 c 2,22,-1
 430 1213 l 1,23,-1
 430 776 l 1,15,-1
EndSplineSet
Substitution2: "'ss03' Style Set 3 lookup 12 subtable" R.ss03
Substitution2: "'c2sc' Capitals to Small Capitals lookup 0 subtable" R.c2sc
Position2: "'cpsp' Capital Spacing lookup 0 subtable" dx=36 dy=0 dh=72 dv=0
EndChar

StartChar: S
Encoding: 83 83 55
Width: 1259
GlyphClass: 2
Flags: W
LayerCount: 2
Back
Fore
SplineSet
885 382 m 0,0,1
 885 467 885 467 825 512.5 c 128,-1,2
 765 558 765 558 609 608.5 c 128,-1,3
 453 659 453 659 362 708 c 0,4,5
 114 842 114 842 114 1069 c 0,6,7
 114 1187 114 1187 180.5 1279.5 c 128,-1,8
 247 1372 247 1372 371.5 1424 c 128,-1,9
 496 1476 496 1476 651 1476 c 0,10,11
 807 1476 807 1476 929 1419.5 c 128,-1,12
 1051 1363 1051 1363 1118.5 1260 c 128,-1,13
 1186 1157 1186 1157 1186 1026 c 1,14,-1
 886 1026 l 1,15,16
 886 1126 886 1126 823 1181.5 c 128,-1,17
 760 1237 760 1237 646 1237 c 0,18,19
 536 1237 536 1237 475 1190.5 c 128,-1,20
 414 1144 414 1144 414 1068 c 0,21,22
 414 997 414 997 485.5 949 c 128,-1,23
 557 901 557 901 696 859 c 0,24,25
 952 782 952 782 1069 668 c 128,-1,26
 1186 554 1186 554 1186 384 c 0,27,28
 1186 195 1186 195 1043 87.5 c 128,-1,29
 900 -20 900 -20 658 -20 c 0,30,31
 490 -20 490 -20 352 41.5 c 128,-1,32
 214 103 214 103 141.5 210 c 128,-1,33
 69 317 69 317 69 458 c 1,34,-1
 370 458 l 1,35,36
 370 217 370 217 658 217 c 0,37,38
 765 217 765 217 825 260.5 c 128,-1,39
 885 304 885 304 885 382 c 0,0,1
EndSplineSet
Substitution2: "'c2sc' Capitals to Small Capitals lookup 0 subtable" S.c2sc
Position2: "'cpsp' Capital Spacing lookup 0 subtable" dx=36 dy=0 dh=72 dv=0
EndChar

StartChar: T
Encoding: 84 84 56
Width: 1267
GlyphClass: 2
Flags: W
LayerCount: 2
Back
Fore
SplineSet
1226 1213 m 1,0,-1
 780 1213 l 1,1,-1
 780 0 l 1,2,-1
 480 0 l 1,3,-1
 480 1213 l 1,4,-1
 40 1213 l 1,5,-1
 40 1456 l 1,6,-1
 1226 1456 l 1,7,-1
 1226 1213 l 1,0,-1
EndSplineSet
Substitution2: "'c2sc' Capitals to Small Capitals lookup 0 subtable" T.c2sc
Position2: "'cpsp' Capital Spacing lookup 0 subtable" dx=36 dy=0 dh=72 dv=0
EndChar

StartChar: U
Encoding: 85 85 57
Width: 1348
GlyphClass: 2
Flags: W
LayerCount: 2
Back
Fore
SplineSet
1232 1456 m 1,0,-1
 1232 497 l 2,1,2
 1232 258 1232 258 1082.5 119 c 128,-1,3
 933 -20 933 -20 674 -20 c 0,4,5
 419 -20 419 -20 269 115 c 128,-1,6
 119 250 119 250 116 486 c 2,7,-1
 116 1456 l 1,8,-1
 416 1456 l 1,9,-1
 416 495 l 2,10,11
 416 352 416 352 484.5 286.5 c 128,-1,12
 553 221 553 221 674 221 c 0,13,14
 927 221 927 221 931 487 c 1,15,-1
 931 1456 l 1,16,-1
 1232 1456 l 1,0,-1
EndSplineSet
Substitution2: "'c2sc' Capitals to Small Capitals lookup 0 subtable" U.c2sc
Position2: "'cpsp' Capital Spacing lookup 0 subtable" dx=36 dy=0 dh=72 dv=0
EndChar

StartChar: V
Encoding: 86 86 58
Width: 1339
GlyphClass: 2
Flags: W
LayerCount: 2
Back
Fore
SplineSet
668 361 m 1,0,-1
 998 1456 l 1,1,-1
 1332 1456 l 1,2,-1
 825 0 l 1,3,-1
 512 0 l 1,4,-1
 7 1456 l 1,5,-1
 340 1456 l 1,6,-1
 668 361 l 1,0,-1
EndSplineSet
Substitution2: "'c2sc' Capitals to Small Capitals lookup 0 subtable" V.c2sc
Position2: "'cpsp' Capital Spacing lookup 0 subtable" dx=36 dy=0 dh=72 dv=0
EndChar

StartChar: W
Encoding: 87 87 59
Width: 1791
GlyphClass: 2
Flags: W
LayerCount: 2
Back
Fore
SplineSet
1264 420 m 1,0,-1
 1460 1456 l 1,1,-1
 1759 1456 l 1,2,-1
 1436 0 l 1,3,-1
 1134 0 l 1,4,-1
 897 974 l 1,5,-1
 660 0 l 1,6,-1
 358 0 l 1,7,-1
 35 1456 l 1,8,-1
 334 1456 l 1,9,-1
 531 422 l 1,10,-1
 771 1456 l 1,11,-1
 1025 1456 l 1,12,-1
 1264 420 l 1,0,-1
EndSplineSet
Substitution2: "'c2sc' Capitals to Small Capitals lookup 0 subtable" W.c2sc
Position2: "'cpsp' Capital Spacing lookup 0 subtable" dx=36 dy=0 dh=72 dv=0
EndChar

StartChar: X
Encoding: 88 88 60
Width: 1301
GlyphClass: 2
Flags: W
LayerCount: 2
Back
Fore
SplineSet
651 954 m 1,0,-1
 924 1456 l 1,1,-1
 1269 1456 l 1,2,-1
 845 734 l 1,3,-1
 1280 0 l 1,4,-1
 931 0 l 1,5,-1
 651 510 l 1,6,-1
 371 0 l 1,7,-1
 22 0 l 1,8,-1
 457 734 l 1,9,-1
 33 1456 l 1,10,-1
 378 1456 l 1,11,-1
 651 954 l 1,0,-1
EndSplineSet
Substitution2: "'c2sc' Capitals to Small Capitals lookup 0 subtable" X.c2sc
Position2: "'cpsp' Capital Spacing lookup 0 subtable" dx=36 dy=0 dh=72 dv=0
EndChar

StartChar: Y
Encoding: 89 89 61
Width: 1266
GlyphClass: 2
Flags: W
LayerCount: 2
Back
Fore
SplineSet
632 800 m 1,0,-1
 935 1456 l 1,1,-1
 1263 1456 l 1,2,-1
 785 528 l 1,3,-1
 785 0 l 1,4,-1
 480 0 l 1,5,-1
 480 528 l 1,6,-1
 2 1456 l 1,7,-1
 331 1456 l 1,8,-1
 632 800 l 1,0,-1
EndSplineSet
Substitution2: "'c2sc' Capitals to Small Capitals lookup 0 subtable" Y.c2sc
Position2: "'cpsp' Capital Spacing lookup 0 subtable" dx=36 dy=0 dh=72 dv=0
EndChar

StartChar: Z
Encoding: 90 90 62
Width: 1241
GlyphClass: 2
Flags: W
LayerCount: 2
Back
Fore
SplineSet
448 241 m 1,0,-1
 1182 241 l 1,1,-1
 1182 0 l 1,2,-1
 73 0 l 1,3,-1
 73 176 l 1,4,-1
 793 1213 l 1,5,-1
 74 1213 l 1,6,-1
 74 1456 l 1,7,-1
 1166 1456 l 1,8,-1
 1166 1284 l 1,9,-1
 448 241 l 1,0,-1
EndSplineSet
Substitution2: "'c2sc' Capitals to Small Capitals lookup 0 subtable" Z.c2sc
Position2: "'cpsp' Capital Spacing lookup 0 subtable" dx=36 dy=0 dh=72 dv=0
EndChar

StartChar: bracketleft
Encoding: 91 91 63
Width: 569
Flags: W
LayerCount: 2
Back
Fore
SplineSet
552 1471 m 1,0,-1
 410 1471 l 1,1,-1
 410 -116 l 1,2,-1
 552 -116 l 1,3,-1
 552 -339 l 1,4,-1
 120 -339 l 1,5,-1
 120 1694 l 1,6,-1
 552 1694 l 1,7,-1
 552 1471 l 1,0,-1
EndSplineSet
EndChar

StartChar: backslash
Encoding: 92 92 64
Width: 864
Flags: W
LayerCount: 2
Back
Fore
SplineSet
0 1456 m 1,0,-1
 295 1456 l 1,1,-1
 903 -125 l 1,2,-1
 607 -125 l 1,3,-1
 0 1456 l 1,0,-1
EndSplineSet
EndChar

StartChar: bracketright
Encoding: 93 93 65
Width: 569
Flags: W
LayerCount: 2
Back
Fore
SplineSet
13 1694 m 1,0,-1
 445 1694 l 1,1,-1
 445 -339 l 1,2,-1
 13 -339 l 1,3,-1
 13 -116 l 1,4,-1
 156 -116 l 1,5,-1
 156 1471 l 1,6,-1
 13 1471 l 1,7,-1
 13 1694 l 1,0,-1
EndSplineSet
EndChar

StartChar: asciicircum
Encoding: 94 94 66
Width: 895
Flags: W
LayerCount: 2
Back
Fore
SplineSet
448 1186 m 1,0,-1
 274 729 l 1,1,-1
 44 729 l 1,2,-1
 343 1456 l 1,3,-1
 553 1456 l 1,4,-1
 852 729 l 1,5,-1
 623 729 l 1,6,-1
 448 1186 l 1,0,-1
EndSplineSet
EndChar

StartChar: underscore
Encoding: 95 95 67
Width: 914
Flags: W
LayerCount: 2
Back
Fore
SplineSet
912 -226 m 1,0,-1
 1 -226 l 1,1,-1
 1 0 l 1,2,-1
 912 0 l 1,3,-1
 912 -226 l 1,0,-1
EndSplineSet
EndChar

StartChar: grave
Encoding: 96 96 68
Width: 677
Flags: W
LayerCount: 2
Back
Fore
SplineSet
565 1226 m 1,0,-1
 328 1226 l 1,1,-1
 52 1536 l 1,2,-1
 367 1536 l 1,3,-1
 565 1226 l 1,0,-1
EndSplineSet
EndChar

StartChar: a
Encoding: 97 97 69
Width: 1098
GlyphClass: 2
Flags: W
LayerCount: 2
Back
Fore
SplineSet
738 0 m 1,0,1
 718 39 718 39 709 97 c 1,2,3
 604 -20 604 -20 436 -20 c 0,4,5
 277 -20 277 -20 172.5 72 c 128,-1,6
 68 164 68 164 68 304 c 0,7,8
 68 476 68 476 195.5 568 c 128,-1,9
 323 660 323 660 564 661 c 2,10,-1
 697 661 l 1,11,-1
 697 723 l 2,12,13
 697 798 697 798 658.5 843 c 128,-1,14
 620 888 620 888 537 888 c 0,15,16
 464 888 464 888 422.5 853 c 128,-1,17
 381 818 381 818 381 757 c 1,18,-1
 92 757 l 1,19,20
 92 851 92 851 150 931 c 128,-1,21
 208 1011 208 1011 314 1056.5 c 128,-1,22
 420 1102 420 1102 552 1102 c 0,23,24
 752 1102 752 1102 869.5 1001.5 c 128,-1,25
 987 901 987 901 987 719 c 2,26,-1
 987 250 l 2,27,28
 988 96 988 96 1030 17 c 1,29,-1
 1030 0 l 1,30,-1
 738 0 l 1,0,1
499 201 m 0,31,32
 563 201 563 201 617 229.5 c 128,-1,33
 671 258 671 258 697 306 c 1,34,-1
 697 492 l 1,35,-1
 589 492 l 2,36,37
 372 492 372 492 358 342 c 1,38,-1
 357 325 l 2,39,40
 357 271 357 271 395 236 c 128,-1,41
 433 201 433 201 499 201 c 0,31,32
EndSplineSet
Substitution2: "'smcp' Lowercase to Small Capitals lookup 1 subtable" A.c2sc
EndChar

StartChar: b
Encoding: 98 98 70
Width: 1153
GlyphClass: 2
Flags: W
LayerCount: 2
Back
Fore
SplineSet
1086 531 m 2,0,1
 1086 271 1086 271 975 125.5 c 128,-1,2
 864 -20 864 -20 665 -20 c 0,3,4
 489 -20 489 -20 384 115 c 1,5,-1
 371 0 l 1,6,-1
 111 0 l 1,7,-1
 111 1536 l 1,8,-1
 400 1536 l 1,9,-1
 400 985 l 1,10,11
 500 1102 500 1102 663 1102 c 0,12,13
 861 1102 861 1102 973.5 956.5 c 128,-1,14
 1086 811 1086 811 1086 547 c 2,15,-1
 1086 531 l 2,0,1
797 552 m 0,16,17
 797 716 797 716 745 791.5 c 128,-1,18
 693 867 693 867 590 867 c 0,19,20
 452 867 452 867 400 754 c 1,21,-1
 400 327 l 1,22,23
 453 213 453 213 592 213 c 0,24,25
 732 213 732 213 776 351 c 0,26,27
 797 417 797 417 797 552 c 0,16,17
EndSplineSet
Substitution2: "'ss06' Style Set 6 lookup 15 subtable" b.ss06
Substitution2: "'smcp' Lowercase to Small Capitals lookup 1 subtable" B.c2sc
EndChar

StartChar: c
Encoding: 99 99 71
Width: 1068
GlyphClass: 2
Flags: W
LayerCount: 2
Back
Fore
SplineSet
561 213 m 0,0,1
 641 213 641 213 691 257 c 128,-1,2
 741 301 741 301 743 374 c 1,3,-1
 1014 374 l 1,4,5
 1013 264 1013 264 954 172.5 c 128,-1,6
 895 81 895 81 792.5 30.5 c 128,-1,7
 690 -20 690 -20 566 -20 c 0,8,9
 334 -20 334 -20 200 127.5 c 128,-1,10
 66 275 66 275 66 535 c 2,11,-1
 66 554 l 2,12,13
 66 804 66 804 199 953 c 128,-1,14
 332 1102 332 1102 564 1102 c 0,15,16
 767 1102 767 1102 889.5 986.5 c 128,-1,17
 1012 871 1012 871 1014 679 c 1,18,-1
 743 679 l 1,19,20
 741 763 741 763 691 815.5 c 128,-1,21
 641 868 641 868 559 868 c 0,22,23
 458 868 458 868 406.5 794.5 c 128,-1,24
 355 721 355 721 355 556 c 2,25,-1
 355 526 l 2,26,27
 355 359 355 359 406 286 c 128,-1,28
 457 213 457 213 561 213 c 0,0,1
EndSplineSet
Substitution2: "'ss06' Style Set 6 lookup 15 subtable" c.ss06
Substitution2: "'smcp' Lowercase to Small Capitals lookup 1 subtable" C.c2sc
EndChar

StartChar: d
Encoding: 100 100 72
Width: 1154
GlyphClass: 2
Flags: W
LayerCount: 2
Back
Fore
SplineSet
66 549 m 0,0,1
 66 802 66 802 179.5 952 c 128,-1,2
 293 1102 293 1102 490 1102 c 0,3,4
 648 1102 648 1102 751 984 c 1,5,-1
 751 1536 l 1,6,-1
 1041 1536 l 1,7,-1
 1041 0 l 1,8,-1
 780 0 l 1,9,-1
 766 115 l 1,10,11
 658 -20 658 -20 488 -20 c 0,12,13
 297 -20 297 -20 181.5 130.5 c 128,-1,14
 66 281 66 281 66 549 c 0,0,1
355 528 m 0,15,16
 355 376 355 376 408 295 c 128,-1,17
 461 214 461 214 562 214 c 0,18,19
 696 214 696 214 751 327 c 1,20,-1
 751 754 l 1,21,22
 697 867 697 867 564 867 c 0,23,24
 355 867 355 867 355 528 c 0,15,16
EndSplineSet
Substitution2: "'ss06' Style Set 6 lookup 15 subtable" d.ss06
Substitution2: "'smcp' Lowercase to Small Capitals lookup 1 subtable" D.c2sc
EndChar

StartChar: e
Encoding: 101 101 73
Width: 1107
GlyphClass: 2
Flags: W
LayerCount: 2
Back
Fore
SplineSet
609 -20 m 0,0,1
 371 -20 371 -20 221.5 126 c 128,-1,2
 72 272 72 272 72 515 c 2,3,-1
 72 543 l 2,4,5
 72 706 72 706 135 834.5 c 128,-1,6
 198 963 198 963 313.5 1032.5 c 128,-1,7
 429 1102 429 1102 577 1102 c 0,8,9
 799 1102 799 1102 926.5 962 c 128,-1,10
 1054 822 1054 822 1054 565 c 2,11,-1
 1054 447 l 1,12,-1
 365 447 l 1,13,14
 379 341 379 341 449.5 277 c 128,-1,15
 520 213 520 213 628 213 c 0,16,17
 795 213 795 213 889 334 c 1,18,-1
 1031 175 l 1,19,20
 966 83 966 83 855 31.5 c 128,-1,21
 744 -20 744 -20 609 -20 c 0,0,1
576 868 m 0,22,23
 490 868 490 868 436.5 810 c 128,-1,24
 383 752 383 752 368 644 c 1,25,-1
 770 644 l 1,26,-1
 770 667 l 2,27,28
 768 763 768 763 718 815.5 c 128,-1,29
 668 868 668 868 576 868 c 0,22,23
EndSplineSet
Substitution2: "'ss07' Style Set 7 lookup 16 subtable" e.ss07
Substitution2: "'smcp' Lowercase to Small Capitals lookup 1 subtable" E.c2sc
EndChar

StartChar: f
Encoding: 102 102 74
Width: 734
GlyphClass: 2
Flags: W
LayerCount: 2
Back
Fore
SplineSet
190 0 m 1,0,-1
 190 870 l 1,1,-1
 29 870 l 1,2,-1
 29 1082 l 1,3,-1
 190 1082 l 1,4,-1
 190 1174 l 2,5,6
 190 1356 190 1356 294.5 1456.5 c 128,-1,7
 399 1557 399 1557 587 1557 c 0,8,9
 647 1557 647 1557 734 1537 c 1,10,-1
 731 1313 l 1,11,12
 695 1322 695 1322 643 1322 c 0,13,14
 480 1322 480 1322 480 1169 c 2,15,-1
 480 1082 l 1,16,-1
 695 1082 l 1,17,-1
 695 870 l 1,18,-1
 480 870 l 1,19,-1
 480 0 l 1,20,-1
 190 0 l 1,0,-1
EndSplineSet
Substitution2: "'smcp' Lowercase to Small Capitals lookup 1 subtable" F.c2sc
EndChar

StartChar: g
Encoding: 103 103 75
Width: 1169
GlyphClass: 2
Flags: W
LayerCount: 2
Back
Fore
SplineSet
69 549 m 2,0,1
 69 798 69 798 187.5 950 c 128,-1,2
 306 1102 306 1102 507 1102 c 0,3,4
 685 1102 685 1102 784 980 c 1,5,-1
 796 1082 l 1,6,-1
 1058 1082 l 1,7,-1
 1058 36 l 2,8,9
 1058 -106 1058 -106 993.5 -211 c 128,-1,10
 929 -316 929 -316 812 -371 c 128,-1,11
 695 -426 695 -426 538 -426 c 0,12,13
 419 -426 419 -426 306 -378.5 c 128,-1,14
 193 -331 193 -331 135 -256 c 1,15,-1
 263 -80 l 1,16,17
 371 -201 371 -201 525 -201 c 0,18,19
 640 -201 640 -201 704 -139.5 c 128,-1,20
 768 -78 768 -78 768 35 c 2,21,-1
 768 93 l 1,22,23
 668 -20 668 -20 505 -20 c 0,24,25
 310 -20 310 -20 189.5 132.5 c 128,-1,26
 69 285 69 285 69 537 c 2,27,-1
 69 549 l 2,0,1
358 528 m 0,28,29
 358 381 358 381 417 297.5 c 128,-1,30
 476 214 476 214 579 214 c 0,31,32
 711 214 711 214 768 313 c 1,33,-1
 768 768 l 1,34,35
 710 867 710 867 581 867 c 0,36,37
 477 867 477 867 417.5 782 c 128,-1,38
 358 697 358 697 358 528 c 0,28,29
EndSplineSet
Substitution2: "'ss07' Style Set 7 lookup 16 subtable" g.ss07
Substitution2: "'ss06' Style Set 6 lookup 15 subtable" g.ss06
Substitution2: "'ss01' Style Set 1 lookup 10 subtable" g.ss01
Substitution2: "'smcp' Lowercase to Small Capitals lookup 1 subtable" G.c2sc
EndChar

StartChar: h
Encoding: 104 104 76
Width: 1146
GlyphClass: 2
Flags: W
LayerCount: 2
Back
Fore
SplineSet
393 964 m 1,0,1
 508 1102 508 1102 682 1102 c 0,2,3
 1034 1102 1034 1102 1039 693 c 1,4,-1
 1039 0 l 1,5,-1
 750 0 l 1,6,-1
 750 685 l 2,7,8
 750 778 750 778 710 822.5 c 128,-1,9
 670 867 670 867 577 867 c 0,10,11
 450 867 450 867 393 769 c 1,12,-1
 393 0 l 1,13,-1
 104 0 l 1,14,-1
 104 1536 l 1,15,-1
 393 1536 l 1,16,-1
 393 964 l 1,0,1
EndSplineSet
Substitution2: "'smcp' Lowercase to Small Capitals lookup 1 subtable" H.c2sc
EndChar

StartChar: i
Encoding: 105 105 77
Width: 543
GlyphClass: 2
Flags: W
LayerCount: 2
Back
Fore
SplineSet
416 0 m 1,0,-1
 126 0 l 1,1,-1
 126 1082 l 1,2,-1
 416 1082 l 1,3,-1
 416 0 l 1,0,-1
109 1362 m 0,4,5
 109 1427 109 1427 152.5 1469 c 128,-1,6
 196 1511 196 1511 271 1511 c 0,7,8
 345 1511 345 1511 389 1469 c 128,-1,9
 433 1427 433 1427 433 1362 c 0,10,11
 433 1296 433 1296 388.5 1254 c 128,-1,12
 344 1212 344 1212 271 1212 c 128,-1,13
 198 1212 198 1212 153.5 1254 c 128,-1,14
 109 1296 109 1296 109 1362 c 0,4,5
EndSplineSet
Substitution2: "Single Substitution lookup 26 subtable" glyph576
Substitution2: "'smcp' Lowercase to Small Capitals lookup 1 subtable" I.c2sc
EndChar

StartChar: j
Encoding: 106 106 78
Width: 532
GlyphClass: 2
Flags: W
LayerCount: 2
Back
Fore
SplineSet
417 1082 m 1,0,-1
 417 -59 l 2,1,2
 417 -238 417 -238 322 -337.5 c 128,-1,3
 227 -437 227 -437 48 -437 c 0,4,5
 -27 -437 -27 -437 -95 -420 c 1,6,-1
 -95 -191 l 1,7,8
 -43 -200 -43 -200 -4 -200 c 0,9,10
 127 -200 127 -200 127 -61 c 2,11,-1
 127 1082 l 1,12,-1
 417 1082 l 1,0,-1
104 1362 m 0,13,14
 104 1427 104 1427 147.5 1469 c 128,-1,15
 191 1511 191 1511 266 1511 c 128,-1,16
 341 1511 341 1511 384.5 1469 c 128,-1,17
 428 1427 428 1427 428 1362 c 0,18,19
 428 1296 428 1296 383.5 1254 c 128,-1,20
 339 1212 339 1212 266 1212 c 128,-1,21
 193 1212 193 1212 148.5 1254 c 128,-1,22
 104 1296 104 1296 104 1362 c 0,13,14
EndSplineSet
Substitution2: "Single Substitution lookup 26 subtable" glyph574
Substitution2: "'smcp' Lowercase to Small Capitals lookup 1 subtable" J.c2sc
EndChar

StartChar: k
Encoding: 107 107 79
Width: 1094
GlyphClass: 2
Flags: W
LayerCount: 2
Back
Fore
SplineSet
504 434 m 1,0,-1
 400 330 l 1,1,-1
 400 0 l 1,2,-1
 111 0 l 1,3,-1
 111 1536 l 1,4,-1
 400 1536 l 1,5,-1
 400 685 l 1,6,-1
 456 757 l 1,7,-1
 733 1082 l 1,8,-1
 1080 1082 l 1,9,-1
 689 631 l 1,10,-1
 1114 0 l 1,11,-1
 782 0 l 1,12,-1
 504 434 l 1,0,-1
EndSplineSet
Substitution2: "'ss05' Style Set 5 lookup 14 subtable" k.ss05
Substitution2: "'ss04' Style Set 4 lookup 13 subtable" k.ss04
Substitution2: "'smcp' Lowercase to Small Capitals lookup 1 subtable" K.c2sc
EndChar

StartChar: l
Encoding: 108 108 80
Width: 543
GlyphClass: 2
Flags: W
LayerCount: 2
Back
Fore
SplineSet
416 0 m 1,0,-1
 126 0 l 1,1,-1
 126 1536 l 1,2,-1
 416 1536 l 1,3,-1
 416 0 l 1,0,-1
EndSplineSet
Substitution2: "'smcp' Lowercase to Small Capitals lookup 1 subtable" L.c2sc
EndChar

StartChar: m
Encoding: 109 109 81
Width: 1773
GlyphClass: 2
Flags: W
LayerCount: 2
Back
Fore
SplineSet
382 1082 m 1,0,-1
 391 961 l 1,1,2
 506 1102 506 1102 702 1102 c 0,3,4
 911 1102 911 1102 989 937 c 1,5,6
 1103 1102 1103 1102 1314 1102 c 0,7,8
 1490 1102 1490 1102 1576 999.5 c 128,-1,9
 1662 897 1662 897 1662 691 c 2,10,-1
 1662 0 l 1,11,-1
 1372 0 l 1,12,-1
 1372 690 l 2,13,14
 1372 782 1372 782 1336 824.5 c 128,-1,15
 1300 867 1300 867 1209 867 c 0,16,17
 1079 867 1079 867 1029 743 c 1,18,-1
 1030 0 l 1,19,-1
 741 0 l 1,20,-1
 741 689 l 2,21,22
 741 783 741 783 704 825 c 128,-1,23
 667 867 667 867 578 867 c 0,24,25
 455 867 455 867 400 765 c 1,26,-1
 400 0 l 1,27,-1
 111 0 l 1,28,-1
 111 1082 l 1,29,-1
 382 1082 l 1,0,-1
EndSplineSet
Substitution2: "'smcp' Lowercase to Small Capitals lookup 1 subtable" M.c2sc
EndChar

StartChar: n
Encoding: 110 110 82
Width: 1147
GlyphClass: 2
Flags: W
LayerCount: 2
Back
Fore
SplineSet
377 1082 m 1,0,-1
 386 957 l 1,1,2
 502 1102 502 1102 697 1102 c 0,3,4
 869 1102 869 1102 953 1001 c 128,-1,5
 1037 900 1037 900 1039 699 c 2,6,-1
 1039 0 l 1,7,-1
 750 0 l 1,8,-1
 750 692 l 2,9,10
 750 784 750 784 710 825.5 c 128,-1,11
 670 867 670 867 577 867 c 0,12,13
 455 867 455 867 394 763 c 1,14,-1
 394 0 l 1,15,-1
 105 0 l 1,16,-1
 105 1082 l 1,17,-1
 377 1082 l 1,0,-1
EndSplineSet
Substitution2: "'smcp' Lowercase to Small Capitals lookup 1 subtable" N.c2sc
EndChar

StartChar: o
Encoding: 111 111 83
Width: 1158
GlyphClass: 2
Flags: W
LayerCount: 2
Back
Fore
SplineSet
66 551 m 2,0,1
 66 712 66 712 128 838 c 128,-1,2
 190 964 190 964 306.5 1033 c 128,-1,3
 423 1102 423 1102 577 1102 c 0,4,5
 796 1102 796 1102 934.5 968 c 128,-1,6
 1073 834 1073 834 1089 604 c 1,7,-1
 1091 530 l 1,8,9
 1091 281 1091 281 952 130.5 c 128,-1,10
 813 -20 813 -20 579 -20 c 128,-1,11
 345 -20 345 -20 205.5 130 c 128,-1,12
 66 280 66 280 66 538 c 2,13,-1
 66 551 l 2,0,1
355 530 m 0,14,15
 355 376 355 376 413 294.5 c 128,-1,16
 471 213 471 213 579 213 c 0,17,18
 684 213 684 213 743 293.5 c 128,-1,19
 802 374 802 374 802 551 c 0,20,21
 802 702 802 702 743 785 c 128,-1,22
 684 868 684 868 577 868 c 0,23,24
 471 868 471 868 413 785.5 c 128,-1,25
 355 703 355 703 355 530 c 0,14,15
EndSplineSet
Substitution2: "'ss06' Style Set 6 lookup 15 subtable" o.ss06
Substitution2: "'smcp' Lowercase to Small Capitals lookup 1 subtable" O.c2sc
EndChar

StartChar: p
Encoding: 112 112 84
Width: 1153
GlyphClass: 2
Flags: W
LayerCount: 2
Back
Fore
SplineSet
1085 531 m 2,0,1
 1085 281 1085 281 971.5 130.5 c 128,-1,2
 858 -20 858 -20 665 -20 c 0,3,4
 501 -20 501 -20 400 94 c 1,5,-1
 400 -416 l 1,6,-1
 111 -416 l 1,7,-1
 111 1082 l 1,8,-1
 379 1082 l 1,9,-1
 389 976 l 1,10,11
 494 1102 494 1102 663 1102 c 0,12,13
 863 1102 863 1102 974 954 c 128,-1,14
 1085 806 1085 806 1085 546 c 2,15,-1
 1085 531 l 2,0,1
796 552 m 0,16,17
 796 703 796 703 742.5 785 c 128,-1,18
 689 867 689 867 587 867 c 0,19,20
 451 867 451 867 400 763 c 1,21,-1
 400 320 l 1,22,23
 453 213 453 213 589 213 c 0,24,25
 796 213 796 213 796 552 c 0,16,17
EndSplineSet
Substitution2: "'ss06' Style Set 6 lookup 15 subtable" p.ss06
Substitution2: "'smcp' Lowercase to Small Capitals lookup 1 subtable" P.c2sc
EndChar

StartChar: q
Encoding: 113 113 85
Width: 1157
GlyphClass: 2
Flags: W
LayerCount: 2
Back
Fore
SplineSet
66 551 m 0,0,1
 66 806 66 806 179.5 954 c 128,-1,2
 293 1102 293 1102 491 1102 c 0,3,4
 665 1102 665 1102 768 969 c 1,5,-1
 787 1082 l 1,6,-1
 1041 1082 l 1,7,-1
 1041 -416 l 1,8,-1
 751 -416 l 1,9,-1
 751 93 l 1,10,11
 651 -20 651 -20 489 -20 c 0,12,13
 296 -20 296 -20 181 130 c 128,-1,14
 66 280 66 280 66 551 c 0,0,1
355 530 m 0,15,16
 355 375 355 375 409.5 294 c 128,-1,17
 464 213 464 213 563 213 c 0,18,19
 696 213 696 213 751 319 c 1,20,-1
 751 766 l 1,21,22
 697 868 697 868 565 868 c 0,23,24
 465 868 465 868 410 787 c 128,-1,25
 355 706 355 706 355 530 c 0,15,16
EndSplineSet
Substitution2: "'ss06' Style Set 6 lookup 15 subtable" q.ss06
Substitution2: "'smcp' Lowercase to Small Capitals lookup 1 subtable" Q.c2sc
EndChar

StartChar: r
Encoding: 114 114 86
Width: 747
GlyphClass: 2
Flags: W
LayerCount: 2
Back
Fore
SplineSet
719 811 m 1,0,1
 660 819 660 819 615 819 c 0,2,3
 451 819 451 819 400 708 c 1,4,-1
 400 0 l 1,5,-1
 111 0 l 1,6,-1
 111 1082 l 1,7,-1
 384 1082 l 1,8,-1
 392 953 l 1,9,10
 479 1102 479 1102 633 1102 c 0,11,12
 681 1102 681 1102 723 1089 c 1,13,-1
 719 811 l 1,0,1
EndSplineSet
Substitution2: "'smcp' Lowercase to Small Capitals lookup 1 subtable" R.c2sc
EndChar

StartChar: s
Encoding: 115 115 87
Width: 1053
GlyphClass: 2
Flags: W
LayerCount: 2
Back
Fore
SplineSet
697 299 m 0,0,1
 697 352 697 352 644.5 382.5 c 128,-1,2
 592 413 592 413 476 437 c 0,3,4
 90 518 90 518 90 765 c 0,5,6
 90 909 90 909 209.5 1005.5 c 128,-1,7
 329 1102 329 1102 522 1102 c 0,8,9
 728 1102 728 1102 851.5 1005 c 128,-1,10
 975 908 975 908 975 753 c 1,11,-1
 686 753 l 1,12,13
 686 815 686 815 646 855.5 c 128,-1,14
 606 896 606 896 521 896 c 0,15,16
 448 896 448 896 408 863 c 128,-1,17
 368 830 368 830 368 779 c 0,18,19
 368 731 368 731 413.5 701.5 c 128,-1,20
 459 672 459 672 567 650.5 c 128,-1,21
 675 629 675 629 749 602 c 0,22,23
 978 518 978 518 978 311 c 0,24,25
 978 163 978 163 851 71.5 c 128,-1,26
 724 -20 724 -20 523 -20 c 0,27,28
 387 -20 387 -20 281.5 28.5 c 128,-1,29
 176 77 176 77 116 161.5 c 128,-1,30
 56 246 56 246 56 344 c 1,31,-1
 330 344 l 1,32,33
 334 267 334 267 387 226 c 128,-1,34
 440 185 440 185 529 185 c 0,35,36
 612 185 612 185 654.5 216.5 c 128,-1,37
 697 248 697 248 697 299 c 0,0,1
EndSplineSet
Substitution2: "'smcp' Lowercase to Small Capitals lookup 1 subtable" S.c2sc
EndChar

StartChar: t
Encoding: 116 116 88
Width: 692
GlyphClass: 2
Flags: W
LayerCount: 2
Back
Fore
SplineSet
457 1348 m 1,0,-1
 457 1082 l 1,1,-1
 642 1082 l 1,2,-1
 642 870 l 1,3,-1
 457 870 l 1,4,-1
 457 330 l 2,5,6
 457 270 457 270 480 244 c 128,-1,7
 503 218 503 218 568 218 c 0,8,9
 616 218 616 218 653 225 c 1,10,-1
 653 6 l 1,11,12
 568 -20 568 -20 478 -20 c 0,13,14
 174 -20 174 -20 168 287 c 1,15,-1
 168 870 l 1,16,-1
 10 870 l 1,17,-1
 10 1082 l 1,18,-1
 168 1082 l 1,19,-1
 168 1348 l 1,20,-1
 457 1348 l 1,0,-1
EndSplineSet
Substitution2: "'smcp' Lowercase to Small Capitals lookup 1 subtable" T.c2sc
EndChar

StartChar: u
Encoding: 117 117 89
Width: 1146
GlyphClass: 2
Flags: W
LayerCount: 2
Back
Fore
SplineSet
759 110 m 1,0,1
 652 -20 652 -20 463 -20 c 0,2,3
 289 -20 289 -20 197.5 80 c 128,-1,4
 106 180 106 180 104 373 c 2,5,-1
 104 1082 l 1,6,-1
 393 1082 l 1,7,-1
 393 383 l 2,8,9
 393 214 393 214 547 214 c 0,10,11
 694 214 694 214 749 316 c 1,12,-1
 749 1082 l 1,13,-1
 1039 1082 l 1,14,-1
 1039 0 l 1,15,-1
 767 0 l 1,16,-1
 759 110 l 1,0,1
EndSplineSet
Substitution2: "'smcp' Lowercase to Small Capitals lookup 1 subtable" U.c2sc
EndChar

StartChar: v
Encoding: 118 118 90
Width: 1035
GlyphClass: 2
Flags: W
LayerCount: 2
Back
Fore
SplineSet
516 353 m 1,0,-1
 717 1082 l 1,1,-1
 1019 1082 l 1,2,-1
 654 0 l 1,3,-1
 378 0 l 1,4,-1
 13 1082 l 1,5,-1
 315 1082 l 1,6,-1
 516 353 l 1,0,-1
EndSplineSet
Substitution2: "'smcp' Lowercase to Small Capitals lookup 1 subtable" V.c2sc
EndChar

StartChar: w
Encoding: 119 119 91
Width: 1505
GlyphClass: 2
Flags: W
LayerCount: 2
Back
Fore
SplineSet
1052 393 m 1,0,-1
 1194 1082 l 1,1,-1
 1473 1082 l 1,2,-1
 1197 0 l 1,3,-1
 955 0 l 1,4,-1
 750 681 l 1,5,-1
 545 0 l 1,6,-1
 304 0 l 1,7,-1
 28 1082 l 1,8,-1
 307 1082 l 1,9,-1
 448 394 l 1,10,-1
 646 1082 l 1,11,-1
 855 1082 l 1,12,-1
 1052 393 l 1,0,-1
EndSplineSet
Substitution2: "'smcp' Lowercase to Small Capitals lookup 1 subtable" W.c2sc
EndChar

StartChar: x
Encoding: 120 120 92
Width: 1042
GlyphClass: 2
Flags: W
LayerCount: 2
Back
Fore
SplineSet
523 759 m 1,0,-1
 705 1082 l 1,1,-1
 1014 1082 l 1,2,-1
 706 552 l 1,3,-1
 1027 0 l 1,4,-1
 717 0 l 1,5,-1
 524 340 l 1,6,-1
 332 0 l 1,7,-1
 21 0 l 1,8,-1
 342 552 l 1,9,-1
 35 1082 l 1,10,-1
 345 1082 l 1,11,-1
 523 759 l 1,0,-1
EndSplineSet
Substitution2: "'smcp' Lowercase to Small Capitals lookup 1 subtable" X.c2sc
EndChar

StartChar: y
Encoding: 121 121 93
Width: 1028
GlyphClass: 2
Flags: W
LayerCount: 2
Back
Fore
SplineSet
515 409 m 1,0,-1
 715 1082 l 1,1,-1
 1025 1082 l 1,2,-1
 590 -168 l 1,3,-1
 566 -225 l 1,4,5
 469 -437 469 -437 246 -437 c 0,6,7
 183 -437 183 -437 118 -418 c 1,8,-1
 118 -199 l 1,9,-1
 162 -200 l 2,10,11
 244 -200 244 -200 284.5 -175 c 128,-1,12
 325 -150 325 -150 348 -92 c 2,13,-1
 382 -3 l 1,14,-1
 3 1082 l 1,15,-1
 314 1082 l 1,16,-1
 515 409 l 1,0,-1
EndSplineSet
Substitution2: "'smcp' Lowercase to Small Capitals lookup 1 subtable" Y.c2sc
EndChar

StartChar: z
Encoding: 122 122 94
Width: 1042
GlyphClass: 2
Flags: W
LayerCount: 2
Back
Fore
SplineSet
443 233 m 1,0,-1
 972 233 l 1,1,-1
 972 0 l 1,2,-1
 74 0 l 1,3,-1
 74 176 l 1,4,-1
 583 848 l 1,5,-1
 89 848 l 1,6,-1
 89 1082 l 1,7,-1
 956 1082 l 1,8,-1
 956 911 l 1,9,-1
 443 233 l 1,0,-1
EndSplineSet
Substitution2: "'smcp' Lowercase to Small Capitals lookup 1 subtable" Z.c2sc
EndChar

StartChar: braceleft
Encoding: 123 123 95
Width: 676
Flags: W
LayerCount: 2
Back
Fore
SplineSet
586 -360 m 1,0,1
 226 -259 226 -259 226 105 c 2,2,-1
 226 304 l 2,3,4
 226 515 226 515 48 515 c 1,5,-1
 48 722 l 1,6,7
 222 722 222 722 226 921 c 1,8,-1
 226 1133 l 2,9,10
 226 1318 226 1318 316 1432 c 128,-1,11
 406 1546 406 1546 586 1597 c 1,12,-1
 642 1436 l 1,13,14
 566 1408 566 1408 527 1338.5 c 128,-1,15
 488 1269 488 1269 486 1146 c 2,16,-1
 486 936 l 2,17,18
 486 710 486 710 307 619 c 1,19,20
 486 527 486 527 486 300 c 2,21,-1
 486 88 l 1,22,23
 491 -146 491 -146 642 -198 c 1,24,-1
 586 -360 l 1,0,1
EndSplineSet
EndChar

StartChar: bar
Encoding: 124 124 96
Width: 518
Flags: W
LayerCount: 2
Back
Fore
SplineSet
348 -270 m 1,0,-1
 173 -270 l 1,1,-1
 173 1456 l 1,2,-1
 348 1456 l 1,3,-1
 348 -270 l 1,0,-1
EndSplineSet
EndChar

StartChar: braceright
Encoding: 125 125 97
Width: 676
Flags: W
LayerCount: 2
Back
Fore
SplineSet
34 -198 m 1,0,1
 186 -144 186 -144 190 92 c 1,2,-1
 190 304 l 2,3,4
 190 530 190 530 373 618 c 1,5,6
 190 706 190 706 190 937 c 2,7,-1
 190 1146 l 1,8,9
 186 1379 186 1379 34 1436 c 1,10,-1
 90 1597 l 1,11,12
 269 1547 269 1547 359 1433.5 c 128,-1,13
 449 1320 449 1320 450 1136 c 2,14,-1
 450 921 l 1,15,16
 454 722 454 722 628 722 c 1,17,-1
 628 515 l 1,18,19
 450 515 450 515 450 306 c 2,20,-1
 450 89 l 1,21,22
 442 -261 442 -261 90 -360 c 1,23,-1
 34 -198 l 1,0,1
EndSplineSet
EndChar

StartChar: asciitilde
Encoding: 126 126 98
Width: 1328
Flags: W
LayerCount: 2
Back
Fore
SplineSet
1221 793 m 1,0,1
 1221 607 1221 607 1128 491 c 128,-1,2
 1035 375 1035 375 888 375 c 0,3,4
 814 375 814 375 750.5 403.5 c 128,-1,5
 687 432 687 432 604 511.5 c 128,-1,6
 521 591 521 591 451 591 c 0,7,8
 393 591 393 591 357 541 c 128,-1,9
 321 491 321 491 321 413 c 1,10,-1
 106 415 l 1,11,12
 106 601 106 601 196.5 714 c 128,-1,13
 287 827 287 827 437 827 c 0,14,15
 515 827 515 827 579 797 c 128,-1,16
 643 767 643 767 724.5 689.5 c 128,-1,17
 806 612 806 612 873 612 c 0,18,19
 932 612 932 612 969.5 665 c 128,-1,20
 1007 718 1007 718 1007 794 c 1,21,-1
 1221 793 l 1,0,1
EndSplineSet
EndChar

StartChar: exclamdown
Encoding: 161 161 99
Width: 578
Flags: W
LayerCount: 2
Back
Fore
SplineSet
170 639 m 1,0,-1
 411 639 l 1,1,-1
 444 -369 l 1,2,-1
 137 -369 l 1,3,-1
 170 639 l 1,0,-1
452 948 m 256,4,5
 452 881 452 881 406 838 c 128,-1,6
 360 795 360 795 290 795 c 128,-1,7
 220 795 220 795 174 838 c 128,-1,8
 128 881 128 881 128 948 c 128,-1,9
 128 1015 128 1015 172.5 1058 c 128,-1,10
 217 1101 217 1101 290 1101 c 128,-1,11
 363 1101 363 1101 407.5 1058 c 128,-1,12
 452 1015 452 1015 452 948 c 256,4,5
EndSplineSet
EndChar

StartChar: cent
Encoding: 162 162 100
Width: 1178
Flags: W
LayerCount: 2
Back
Fore
SplineSet
594 213 m 0,0,1
 674 213 674 213 724 257 c 128,-1,2
 774 301 774 301 776 374 c 1,3,-1
 1048 374 l 1,4,5
 1046 229 1046 229 949.5 123.5 c 128,-1,6
 853 18 853 18 698 -11 c 1,7,-1
 698 -245 l 1,8,-1
 498 -245 l 1,9,-1
 498 -12 l 1,10,11
 311 18 311 18 205 162 c 128,-1,12
 99 306 99 306 99 532 c 2,13,-1
 99 554 l 2,14,15
 99 772 99 772 204 917 c 128,-1,16
 309 1062 309 1062 498 1094 c 1,17,-1
 498 1318 l 1,18,-1
 698 1318 l 1,19,-1
 698 1093 l 1,20,21
 861 1064 861 1064 953.5 953 c 128,-1,22
 1046 842 1046 842 1048 679 c 1,23,-1
 776 679 l 1,24,25
 774 765 774 765 724 816.5 c 128,-1,26
 674 868 674 868 593 868 c 0,27,28
 491 868 491 868 440 793.5 c 128,-1,29
 389 719 389 719 388 559 c 2,30,-1
 388 526 l 2,31,32
 388 358 388 358 439.5 285.5 c 128,-1,33
 491 213 491 213 594 213 c 0,0,1
EndSplineSet
EndChar

StartChar: sterling
Encoding: 163 163 101
Width: 1217
Flags: W
LayerCount: 2
Back
Fore
SplineSet
564 576 m 1,0,-1
 570 437 l 1,1,2
 570 314 570 314 508 241 c 1,3,-1
 1161 241 l 1,4,-1
 1161 0 l 1,5,-1
 102 0 l 1,6,-1
 102 241 l 1,7,-1
 194 241 l 1,8,9
 266 259 266 259 266 420 c 1,10,-1
 261 576 l 1,11,-1
 99 576 l 1,12,-1
 99 812 l 1,13,-1
 253 812 l 1,14,-1
 246 1039 l 1,15,16
 246 1241 246 1241 369.5 1358 c 128,-1,17
 493 1475 493 1475 700 1475 c 0,18,19
 912 1475 912 1475 1033 1362.5 c 128,-1,20
 1154 1250 1154 1250 1154 1058 c 1,21,-1
 867 1058 l 1,22,23
 867 1143 867 1143 823.5 1188 c 128,-1,24
 780 1233 780 1233 699 1233 c 0,25,26
 633 1233 633 1233 589.5 1184 c 128,-1,27
 546 1135 546 1135 546 1039 c 2,28,-1
 555 812 l 1,29,-1
 864 812 l 1,30,-1
 864 576 l 1,31,-1
 564 576 l 1,0,-1
EndSplineSet
Substitution2: "'c2sc' Capitals to Small Capitals lookup 0 subtable" sterling.c2sc
Position2: "'cpsp' Capital Spacing lookup 0 subtable" dx=36 dy=0 dh=72 dv=0
EndChar

StartChar: currency
Encoding: 164 164 102
Width: 1418
Flags: W
LayerCount: 2
Back
Fore
SplineSet
1073 107 m 1,0,1
 914 -20 914 -20 712 -20 c 0,2,3
 509 -20 509 -20 351 106 c 1,4,-1
 222 -26 l 1,5,-1
 81 118 l 1,6,-1
 216 255 l 1,7,8
 116 411 116 411 116 608 c 0,9,10
 116 812 116 812 225 973 c 1,11,-1
 81 1120 l 1,12,-1
 222 1264 l 1,13,-1
 364 1119 l 1,14,15
 519 1234 519 1234 712 1234 c 0,16,17
 906 1234 906 1234 1061 1117 c 1,18,-1
 1205 1265 l 1,19,-1
 1347 1120 l 1,20,-1
 1199 969 l 1,21,22
 1306 810 1306 810 1306 608 c 0,23,24
 1306 415 1306 415 1208 259 c 1,25,-1
 1347 118 l 1,26,-1
 1205 -27 l 1,27,-1
 1073 107 l 1,0,1
302 608 m 0,28,29
 302 490 302 490 356 388.5 c 128,-1,30
 410 287 410 287 505.5 228.5 c 128,-1,31
 601 170 601 170 712 170 c 0,32,33
 822 170 822 170 917.5 228.5 c 128,-1,34
 1013 287 1013 287 1067 388.5 c 128,-1,35
 1121 490 1121 490 1121 608 c 0,36,37
 1121 727 1121 727 1067 827.5 c 128,-1,38
 1013 928 1013 928 918 986 c 128,-1,39
 823 1044 823 1044 712 1044 c 0,40,41
 600 1044 600 1044 505 986 c 128,-1,42
 410 928 410 928 356 827.5 c 128,-1,43
 302 727 302 727 302 608 c 0,28,29
EndSplineSet
EndChar

StartChar: yen
Encoding: 165 165 103
Width: 1254
Flags: W
LayerCount: 2
Back
Fore
SplineSet
626 850 m 1,0,-1
 903 1456 l 1,1,-1
 1232 1456 l 1,2,-1
 857 742 l 1,3,-1
 1091 742 l 1,4,-1
 1091 567 l 1,5,-1
 772 567 l 1,6,-1
 772 452 l 1,7,-1
 1091 452 l 1,8,-1
 1091 278 l 1,9,-1
 772 278 l 1,10,-1
 772 0 l 1,11,-1
 472 0 l 1,12,-1
 472 278 l 1,13,-1
 136 278 l 1,14,-1
 136 452 l 1,15,-1
 472 452 l 1,16,-1
 472 567 l 1,17,-1
 136 567 l 1,18,-1
 136 742 l 1,19,-1
 396 742 l 1,20,-1
 20 1456 l 1,21,-1
 350 1456 l 1,22,-1
 626 850 l 1,0,-1
EndSplineSet
Substitution2: "'c2sc' Capitals to Small Capitals lookup 0 subtable" yen.c2sc
Position2: "'cpsp' Capital Spacing lookup 0 subtable" dx=36 dy=0 dh=72 dv=0
EndChar

StartChar: brokenbar
Encoding: 166 166 104
Width: 516
Flags: W
LayerCount: 2
Back
Fore
SplineSet
128 -270 m 1,0,-1
 128 525 l 1,1,-1
 388 525 l 1,2,-1
 388 -270 l 1,3,-1
 128 -270 l 1,0,-1
388 698 m 1,4,-1
 128 698 l 1,5,-1
 128 1456 l 1,6,-1
 388 1456 l 1,7,-1
 388 698 l 1,4,-1
EndSplineSet
EndChar

StartChar: section
Encoding: 167 167 105
Width: 1287
Flags: W
LayerCount: 2
Back
Fore
SplineSet
1180 481 m 0,0,1
 1180 299 1180 299 1018 210 c 1,2,3
 1153 108 1153 108 1153 -78 c 0,4,5
 1153 -253 1153 -253 1015.5 -352.5 c 128,-1,6
 878 -452 878 -452 636 -452 c 0,7,8
 379 -452 379 -452 235.5 -345 c 128,-1,9
 92 -238 92 -238 92 -35 c 1,10,-1
 381 -34 l 1,11,12
 381 -123 381 -123 445 -170.5 c 128,-1,13
 509 -218 509 -218 636 -218 c 0,14,15
 748 -218 748 -218 806 -180.5 c 128,-1,16
 864 -143 864 -143 864 -80 c 0,17,18
 864 -15 864 -15 799.5 26 c 128,-1,19
 735 67 735 67 552.5 117.5 c 128,-1,20
 370 168 370 168 277.5 223 c 128,-1,21
 185 278 185 278 139.5 353 c 128,-1,22
 94 428 94 428 94 534 c 0,23,24
 94 714 94 714 256 807 c 1,25,26
 120 910 120 910 120 1095 c 0,27,28
 120 1266 120 1266 260.5 1371 c 128,-1,29
 401 1476 401 1476 640 1476 c 0,30,31
 887 1476 887 1476 1023 1363 c 128,-1,32
 1159 1250 1159 1250 1159 1049 c 1,33,-1
 870 1049 l 1,34,35
 870 1136 870 1136 808.5 1189.5 c 128,-1,36
 747 1243 747 1243 640 1243 c 0,37,38
 530 1243 530 1243 470 1204 c 128,-1,39
 410 1165 410 1165 410 1097 c 0,40,41
 410 1024 410 1024 465.5 987 c 128,-1,42
 521 950 521 950 706 901 c 128,-1,43
 891 852 891 852 988.5 797 c 128,-1,44
 1086 742 1086 742 1133 665.5 c 128,-1,45
 1180 589 1180 589 1180 481 c 0,0,1
458 704 m 1,46,47
 383 662 383 662 383 563 c 0,48,49
 383 494 383 494 424.5 456.5 c 128,-1,50
 466 419 466 419 590 379 c 2,51,-1
 812 312 l 1,52,53
 894 359 894 359 894 452 c 0,54,55
 894 514 894 514 848.5 553.5 c 128,-1,56
 803 593 803 593 685 633 c 2,57,-1
 458 704 l 1,46,47
EndSplineSet
EndChar

StartChar: dieresis
Encoding: 168 168 106
Width: 956
Flags: W
LayerCount: 2
Back
Fore
SplineSet
93 1365 m 0,0,1
 93 1419 93 1419 131.5 1455.5 c 128,-1,2
 170 1492 170 1492 231 1492 c 0,3,4
 293 1492 293 1492 331 1454.5 c 128,-1,5
 369 1417 369 1417 369 1365 c 128,-1,6
 369 1313 369 1313 331 1276 c 128,-1,7
 293 1239 293 1239 231 1239 c 0,8,9
 172 1239 172 1239 132.5 1274.5 c 128,-1,10
 93 1310 93 1310 93 1365 c 0,0,1
580 1365 m 0,11,12
 580 1418 580 1418 619.5 1455 c 128,-1,13
 659 1492 659 1492 718 1492 c 0,14,15
 776 1492 776 1492 816.5 1455.5 c 128,-1,16
 857 1419 857 1419 857 1365 c 0,17,18
 857 1313 857 1313 818.5 1275.5 c 128,-1,19
 780 1238 780 1238 718 1238 c 128,-1,20
 656 1238 656 1238 618 1275.5 c 128,-1,21
 580 1313 580 1313 580 1365 c 0,11,12
EndSplineSet
EndChar

StartChar: copyright
Encoding: 169 169 107
Width: 1606
Flags: W
LayerCount: 2
Back
Fore
SplineSet
1117 596 m 1,0,1
 1117 444 1117 444 1029.5 363 c 128,-1,2
 942 282 942 282 782 282 c 128,-1,3
 622 282 622 282 527.5 388.5 c 128,-1,4
 433 495 433 495 433 675 c 2,5,-1
 433 788 l 2,6,7
 433 962 433 962 528.5 1068.5 c 128,-1,8
 624 1175 624 1175 782 1175 c 0,9,10
 945 1175 945 1175 1031.5 1092.5 c 128,-1,11
 1118 1010 1118 1010 1118 861 c 1,12,-1
 962 861 l 1,13,14
 962 957 962 957 916 998.5 c 128,-1,15
 870 1040 870 1040 782 1040 c 0,16,17
 690 1040 690 1040 639.5 972.5 c 128,-1,18
 589 905 589 905 588 792 c 2,19,-1
 588 669 l 2,20,21
 588 552 588 552 639 484.5 c 128,-1,22
 690 417 690 417 782 417 c 0,23,24
 871 417 871 417 916 457.5 c 128,-1,25
 961 498 961 498 961 596 c 1,26,-1
 1117 596 l 1,0,1
1383 729 m 0,27,28
 1383 895 1383 895 1308 1037.5 c 128,-1,29
 1233 1180 1233 1180 1096 1265.5 c 128,-1,30
 959 1351 959 1351 796 1351 c 0,31,32
 637 1351 637 1351 500.5 1269 c 128,-1,33
 364 1187 364 1187 286 1043 c 128,-1,34
 208 899 208 899 208 729 c 128,-1,35
 208 559 208 559 285.5 415 c 128,-1,36
 363 271 363 271 499.5 187.5 c 128,-1,37
 636 104 636 104 796 104 c 128,-1,38
 956 104 956 104 1093.5 189 c 128,-1,39
 1231 274 1231 274 1307 418 c 128,-1,40
 1383 562 1383 562 1383 729 c 0,27,28
86 729 m 0,41,42
 86 931 86 931 179.5 1104 c 128,-1,43
 273 1277 273 1277 438.5 1376.5 c 128,-1,44
 604 1476 604 1476 796 1476 c 128,-1,45
 988 1476 988 1476 1153.5 1376.5 c 128,-1,46
 1319 1277 1319 1277 1412.5 1104 c 128,-1,47
 1506 931 1506 931 1506 729 c 0,48,49
 1506 525 1506 525 1411 351.5 c 128,-1,50
 1316 178 1316 178 1151.5 79 c 128,-1,51
 987 -20 987 -20 796 -20 c 0,52,53
 603 -20 603 -20 438.5 80 c 128,-1,54
 274 180 274 180 180 353 c 128,-1,55
 86 526 86 526 86 729 c 0,41,42
EndSplineSet
EndChar

StartChar: ordfeminine
Encoding: 170 170 108
Width: 909
Flags: W
LayerCount: 2
Back
Fore
SplineSet
604 705 m 1,0,1
 594 732 594 732 587 773 c 1,2,3
 510 691 510 691 386 691 c 0,4,5
 268 691 268 691 202.5 752.5 c 128,-1,6
 137 814 137 814 137 919 c 0,7,8
 137 1029 137 1029 221 1089.5 c 128,-1,9
 305 1150 305 1150 478 1150 c 2,10,-1
 580 1150 l 1,11,-1
 580 1201 l 2,12,13
 580 1328 580 1328 464 1328 c 0,14,15
 399 1328 399 1328 362.5 1302.5 c 128,-1,16
 326 1277 326 1277 326 1229 c 1,17,-1
 153 1243 l 1,18,19
 153 1347 153 1347 240.5 1411.5 c 128,-1,20
 328 1476 328 1476 464 1476 c 0,21,22
 599 1476 599 1476 677 1404 c 128,-1,23
 755 1332 755 1332 755 1199 c 2,24,-1
 755 883 l 2,25,26
 755 786 755 786 781 705 c 1,27,-1
 604 705 l 1,0,1
429 835 m 0,28,29
 469 835 469 835 511 853.5 c 128,-1,30
 553 872 553 872 580 897 c 1,31,-1
 580 1033 l 1,32,-1
 474 1033 l 2,33,34
 398 1032 398 1032 355 1002 c 128,-1,35
 312 972 312 972 312 923 c 0,36,37
 312 835 312 835 429 835 c 0,28,29
EndSplineSet
EndChar

StartChar: logicalnot
Encoding: 172 172 110
Width: 1129
Flags: W
LayerCount: 2
Back
Fore
SplineSet
961 374 m 1,0,-1
 761 374 l 1,1,-1
 761 634 l 1,2,-1
 126 634 l 1,3,-1
 126 805 l 1,4,-1
 961 805 l 1,5,-1
 961 374 l 1,0,-1
EndSplineSet
EndChar

StartChar: registered
Encoding: 174 174 111
Width: 1606
Flags: W
LayerCount: 2
Back
Fore
SplineSet
86 729 m 0,0,1
 86 931 86 931 179.5 1104 c 128,-1,2
 273 1277 273 1277 438.5 1376.5 c 128,-1,3
 604 1476 604 1476 796 1476 c 128,-1,4
 988 1476 988 1476 1153.5 1376.5 c 128,-1,5
 1319 1277 1319 1277 1412.5 1104 c 128,-1,6
 1506 931 1506 931 1506 729 c 0,7,8
 1506 525 1506 525 1411 351.5 c 128,-1,9
 1316 178 1316 178 1151.5 79 c 128,-1,10
 987 -20 987 -20 796 -20 c 0,11,12
 603 -20 603 -20 438.5 80 c 128,-1,13
 274 180 274 180 180 353 c 128,-1,14
 86 526 86 526 86 729 c 0,0,1
1383 729 m 0,15,16
 1383 895 1383 895 1308 1037.5 c 128,-1,17
 1233 1180 1233 1180 1096 1265.5 c 128,-1,18
 959 1351 959 1351 796 1351 c 0,19,20
 637 1351 637 1351 500.5 1269 c 128,-1,21
 364 1187 364 1187 286 1043 c 128,-1,22
 208 899 208 899 208 729 c 128,-1,23
 208 559 208 559 285.5 415 c 128,-1,24
 363 271 363 271 499.5 187.5 c 128,-1,25
 636 104 636 104 796 104 c 128,-1,26
 956 104 956 104 1093.5 189 c 128,-1,27
 1231 274 1231 274 1307 418 c 128,-1,28
 1383 562 1383 562 1383 729 c 0,15,16
652 653 m 1,29,-1
 652 316 l 1,30,-1
 501 316 l 1,31,-1
 501 1166 l 1,32,-1
 782 1166 l 2,33,34
 933 1166 933 1166 1020 1097.5 c 128,-1,35
 1107 1029 1107 1029 1107 903 c 0,36,37
 1107 791 1107 791 994 729 c 1,38,39
 1055 698 1055 698 1079.5 642.5 c 128,-1,40
 1104 587 1104 587 1104 505 c 128,-1,41
 1104 423 1104 423 1107.5 389 c 128,-1,42
 1111 355 1111 355 1121 332 c 1,43,-1
 1121 316 l 1,44,-1
 966 316 l 1,45,46
 953 350 953 350 953 510 c 0,47,48
 953 586 953 586 920 619.5 c 128,-1,49
 887 653 887 653 810 653 c 2,50,-1
 652 653 l 1,29,-1
652 787 m 1,51,-1
 788 787 l 2,52,53
 862 787 862 787 909.5 819 c 128,-1,54
 957 851 957 851 957 903 c 0,55,56
 957 973 957 973 921.5 1002.5 c 128,-1,57
 886 1032 886 1032 793 1033 c 2,58,-1
 652 1033 l 1,59,-1
 652 787 l 1,51,-1
EndSplineSet
EndChar

StartChar: macron
Encoding: 175 175 112
Width: 1026
Flags: W
LayerCount: 2
Back
Fore
SplineSet
878 1290 m 1,0,-1
 148 1290 l 1,1,-1
 148 1457 l 1,2,-1
 878 1457 l 1,3,-1
 878 1290 l 1,0,-1
EndSplineSet
EndChar

StartChar: degree
Encoding: 176 176 113
Width: 795
Flags: W
LayerCount: 2
Back
Fore
SplineSet
126 1200 m 0,0,1
 126 1314 126 1314 207 1395 c 128,-1,2
 288 1476 288 1476 398 1476 c 0,3,4
 507 1476 507 1476 586.5 1395.5 c 128,-1,5
 666 1315 666 1315 666 1200 c 128,-1,6
 666 1085 666 1085 586.5 1006.5 c 128,-1,7
 507 928 507 928 398 928 c 0,8,9
 290 928 290 928 208 1006.5 c 128,-1,10
 126 1085 126 1085 126 1200 c 0,0,1
398 1076 m 0,11,12
 451 1076 451 1076 485.5 1111.5 c 128,-1,13
 520 1147 520 1147 520 1200 c 0,14,15
 520 1252 520 1252 485.5 1290 c 128,-1,16
 451 1328 451 1328 398 1328 c 128,-1,17
 345 1328 345 1328 309 1290 c 128,-1,18
 273 1252 273 1252 273 1200 c 128,-1,19
 273 1148 273 1148 309.5 1112 c 128,-1,20
 346 1076 346 1076 398 1076 c 0,11,12
EndSplineSet
EndChar

StartChar: plusminus
Encoding: 177 177 114
Width: 1100
Flags: W
LayerCount: 2
Back
Fore
SplineSet
677 942 m 1,0,-1
 1005 942 l 1,1,-1
 1005 701 l 1,2,-1
 677 701 l 1,3,-1
 677 337 l 1,4,-1
 424 337 l 1,5,-1
 424 701 l 1,6,-1
 89 701 l 1,7,-1
 89 942 l 1,8,-1
 424 942 l 1,9,-1
 424 1285 l 1,10,-1
 677 1285 l 1,11,-1
 677 942 l 1,0,-1
977 1 m 1,12,-1
 113 1 l 1,13,-1
 113 236 l 1,14,-1
 977 236 l 1,15,-1
 977 1 l 1,12,-1
EndSplineSet
EndChar

StartChar: uni00B2
Encoding: 178 178 115
Width: 763
Flags: W
LayerCount: 2
Back
Fore
SplineSet
693 667 m 1,0,-1
 73 667 l 1,1,-1
 73 805 l 1,2,-1
 360 1062 l 2,3,4
 416 1111 416 1111 440.5 1153 c 128,-1,5
 465 1195 465 1195 465 1218 c 0,6,7
 465 1302 465 1302 370 1302 c 0,8,9
 320 1302 320 1302 290.5 1271 c 128,-1,10
 261 1240 261 1240 261 1193 c 1,11,-1
 55 1193 l 1,12,13
 55 1309 55 1309 140.5 1388 c 128,-1,14
 226 1467 226 1467 361 1467 c 0,15,16
 509 1467 509 1467 589.5 1402.5 c 128,-1,17
 670 1338 670 1338 670 1219 c 0,18,19
 670 1149 670 1149 634 1091 c 128,-1,20
 598 1033 598 1033 490 946 c 2,21,-1
 342 831 l 1,22,-1
 693 831 l 1,23,-1
 693 667 l 1,0,-1
EndSplineSet
EndChar

StartChar: uni00B3
Encoding: 179 179 116
Width: 763
Flags: W
LayerCount: 2
Back
Fore
SplineSet
273 1136 m 1,0,-1
 355 1136 l 2,1,2
 474 1136 474 1136 474 1224 c 0,3,4
 474 1259 474 1259 445.5 1280 c 128,-1,5
 417 1301 417 1301 368 1301 c 0,6,7
 326 1301 326 1301 296.5 1285.5 c 128,-1,8
 267 1270 267 1270 267 1241 c 1,9,-1
 62 1241 l 1,10,11
 62 1343 62 1343 146.5 1404.5 c 128,-1,12
 231 1466 231 1466 362 1466 c 0,13,14
 507 1466 507 1466 592.5 1406.5 c 128,-1,15
 678 1347 678 1347 678 1240 c 0,16,17
 678 1121 678 1121 543 1071 c 1,18,19
 693 1030 693 1030 693 887 c 0,20,21
 693 782 693 782 601.5 718.5 c 128,-1,22
 510 655 510 655 362 655 c 0,23,24
 220 655 220 655 134 721.5 c 128,-1,25
 48 788 48 788 48 902 c 1,26,-1
 254 902 l 1,27,28
 254 868 254 868 288 843.5 c 128,-1,29
 322 819 322 819 374 819 c 0,30,31
 434 819 434 819 460.5 845.5 c 128,-1,32
 487 872 487 872 487 907 c 0,33,34
 487 999 487 999 365 1000 c 2,35,-1
 273 1000 l 1,36,-1
 273 1136 l 1,0,-1
EndSplineSet
EndChar

StartChar: acute
Encoding: 180 180 117
Width: 679
Flags: W
LayerCount: 2
Back
Fore
SplineSet
298 1536 m 1,0,-1
 613 1536 l 1,1,-1
 336 1226 l 1,2,-1
 101 1226 l 1,3,-1
 298 1536 l 1,0,-1
EndSplineSet
EndChar

StartChar: mu
Encoding: 181 181 118
Width: 1261
Flags: W
LayerCount: 2
Back
Fore
SplineSet
428 1082 m 1,0,-1
 428 459 l 2,1,2
 428 333 428 333 468.5 273.5 c 128,-1,3
 509 214 509 214 608 214 c 0,4,5
 757 214 757 214 813 319 c 1,6,-1
 813 1082 l 1,7,-1
 1102 1082 l 1,8,-1
 1102 0 l 1,9,-1
 833 0 l 1,10,-1
 827 68 l 1,11,12
 738 -21 738 -21 602 -21 c 0,13,14
 500 -21 500 -21 428 24 c 1,15,-1
 428 -416 l 1,16,-1
 139 -416 l 1,17,-1
 139 1082 l 1,18,-1
 428 1082 l 1,0,-1
EndSplineSet
EndChar

StartChar: paragraph
Encoding: 182 182 119
Width: 1003
Flags: W
LayerCount: 2
Back
Fore
SplineSet
650 0 m 1,0,-1
 650 520 l 1,1,-1
 570 520 l 2,2,3
 340 520 340 520 207.5 647 c 128,-1,4
 75 774 75 774 75 988 c 0,5,6
 75 1201 75 1201 208 1328.5 c 128,-1,7
 341 1456 341 1456 571 1456 c 2,8,-1
 869 1456 l 1,9,-1
 869 0 l 1,10,-1
 650 0 l 1,0,-1
EndSplineSet
EndChar

StartChar: periodcentered
Encoding: 183 183 120
Width: 617
Flags: W
LayerCount: 2
Back
Fore
SplineSet
140 697 m 0,0,1
 140 766 140 766 186 809 c 128,-1,2
 232 852 232 852 303 852 c 128,-1,3
 374 852 374 852 420.5 809 c 128,-1,4
 467 766 467 766 467 697 c 128,-1,5
 467 628 467 628 420 585.5 c 128,-1,6
 373 543 373 543 303 543 c 0,7,8
 231 543 231 543 185.5 586.5 c 128,-1,9
 140 630 140 630 140 697 c 0,0,1
EndSplineSet
EndChar

StartChar: cedilla
Encoding: 184 184 121
Width: 548
GlyphClass: 4
Flags: W
LayerCount: 2
Back
Fore
SplineSet
345 7 m 1,0,-1
 334 -51 l 1,1,2
 484 -78 484 -78 484 -224 c 0,3,4
 484 -334 484 -334 392.5 -398 c 128,-1,5
 301 -462 301 -462 135 -462 c 1,6,-1
 128 -295 l 1,7,8
 240 -295 240 -295 240 -214 c 0,9,10
 240 -172 240 -172 206.5 -156.5 c 128,-1,11
 173 -141 173 -141 98 -136 c 1,12,-1
 129 7 l 1,13,-1
 345 7 l 1,0,-1
EndSplineSet
EndChar

StartChar: uni00B9
Encoding: 185 185 122
Width: 763
Flags: W
LayerCount: 2
Back
Fore
SplineSet
528 669 m 1,0,-1
 324 669 l 1,1,-1
 324 1217 l 1,2,-1
 135 1176 l 1,3,-1
 135 1334 l 1,4,-1
 509 1455 l 1,5,-1
 528 1455 l 1,6,-1
 528 669 l 1,0,-1
EndSplineSet
EndChar

StartChar: ordmasculine
Encoding: 186 186 123
Width: 936
Flags: W
LayerCount: 2
Back
Fore
SplineSet
118 1121 m 2,0,1
 118 1281 118 1281 213.5 1378.5 c 128,-1,2
 309 1476 309 1476 464 1476 c 128,-1,3
 619 1476 619 1476 715 1379 c 128,-1,4
 811 1282 811 1282 811 1116 c 2,5,-1
 811 1044 l 2,6,7
 811 885 811 885 717 787.5 c 128,-1,8
 623 690 623 690 466 690 c 0,9,10
 308 690 308 690 213 788 c 128,-1,11
 118 886 118 886 118 1049 c 2,12,-1
 118 1121 l 2,0,1
293 1044 m 2,13,14
 293 946 293 946 339.5 891 c 128,-1,15
 386 836 386 836 466 836 c 0,16,17
 544 836 544 836 589.5 890 c 128,-1,18
 635 944 635 944 636 1041 c 2,19,-1
 636 1121 l 2,20,21
 636 1218 636 1218 589.5 1273 c 128,-1,22
 543 1328 543 1328 464 1328 c 0,23,24
 386 1328 386 1328 339.5 1273.5 c 128,-1,25
 293 1219 293 1219 293 1117 c 2,26,-1
 293 1044 l 2,13,14
EndSplineSet
EndChar

StartChar: questiondown
Encoding: 191 191 128
Width: 1019
Flags: W
LayerCount: 2
Back
Fore
SplineSet
666 643 m 1,0,1
 666 510 666 510 635 428 c 128,-1,2
 604 346 604 346 524.5 272 c 128,-1,3
 445 198 445 198 416.5 162 c 128,-1,4
 388 126 388 126 373.5 89 c 128,-1,5
 359 52 359 52 359 8 c 0,6,7
 359 -149 359 -149 513 -149 c 0,8,9
 590 -149 590 -149 635.5 -104 c 128,-1,10
 681 -59 681 -59 683 22 c 1,11,-1
 972 22 l 1,12,13
 970 -170 970 -170 849 -277.5 c 128,-1,14
 728 -385 728 -385 518 -385 c 0,15,16
 305 -385 305 -385 187 -283.5 c 128,-1,17
 69 -182 69 -182 69 6 c 0,18,19
 69 165 69 165 222 318 c 1,20,-1
 319 411 l 2,21,22
 369 456 369 456 388.5 505 c 128,-1,23
 408 554 408 554 410 643 c 1,24,-1
 666 643 l 1,0,1
702 949 m 256,25,26
 702 882 702 882 656 839 c 128,-1,27
 610 796 610 796 540 796 c 128,-1,28
 470 796 470 796 424 839 c 128,-1,29
 378 882 378 882 378 949 c 128,-1,30
 378 1016 378 1016 422.5 1059 c 128,-1,31
 467 1102 467 1102 540 1102 c 128,-1,32
 613 1102 613 1102 657.5 1059 c 128,-1,33
 702 1016 702 1016 702 949 c 256,25,26
EndSplineSet
EndChar

StartChar: AE
Encoding: 198 198 129
Width: 1925
GlyphClass: 2
Flags: W
LayerCount: 2
Back
Fore
SplineSet
1865 0 m 1,0,-1
 968 0 l 1,1,-1
 954 333 l 1,2,-1
 508 333 l 1,3,-1
 341 0 l 1,4,-1
 2 0 l 1,5,-1
 788 1456 l 1,6,-1
 1804 1456 l 1,7,-1
 1804 1220 l 1,8,-1
 1206 1220 l 1,9,-1
 1221 865 l 1,10,-1
 1723 865 l 1,11,-1
 1723 629 l 1,12,-1
 1231 629 l 1,13,-1
 1247 235 l 1,14,-1
 1865 235 l 1,15,-1
 1865 0 l 1,0,-1
633 580 m 1,16,-1
 944 580 l 1,17,-1
 920 1150 l 1,18,-1
 633 580 l 1,16,-1
EndSplineSet
EndChar

StartChar: multiply
Encoding: 215 215 130
Width: 1088
Flags: W
LayerCount: 2
Back
Fore
SplineSet
65 373 m 1,0,-1
 372 686 l 1,1,-1
 65 999 l 1,2,-1
 235 1167 l 1,3,-1
 539 856 l 1,4,-1
 844 1167 l 1,5,-1
 1014 999 l 1,6,-1
 707 686 l 1,7,-1
 1014 373 l 1,8,-1
 844 205 l 1,9,-1
 539 515 l 1,10,-1
 235 205 l 1,11,-1
 65 373 l 1,0,-1
EndSplineSet
EndChar

StartChar: Oslash
Encoding: 216 216 131
Width: 1411
GlyphClass: 2
Flags: W
LayerCount: 2
Back
Fore
SplineSet
1333 695 m 2,0,1
 1333 480 1333 480 1257 318 c 128,-1,2
 1181 156 1181 156 1039.5 68 c 128,-1,3
 898 -20 898 -20 715 -20 c 0,4,5
 551 -20 551 -20 420 50 c 1,6,-1
 335 -95 l 1,7,-1
 147 -95 l 1,8,-1
 290 147 l 1,9,10
 93 342 93 342 93 702 c 2,11,-1
 93 759 l 2,12,13
 93 974 93 974 170.5 1137.5 c 128,-1,14
 248 1301 248 1301 389.5 1388.5 c 128,-1,15
 531 1476 531 1476 713 1476 c 0,16,17
 888 1476 888 1476 1027 1394 c 1,18,-1
 1101 1518 l 1,19,-1
 1288 1518 l 1,20,-1
 1154 1291 l 1,21,22
 1333 1093 1333 1093 1333 754 c 2,23,-1
 1333 695 l 2,0,1
397 695 m 2,24,25
 397 523 397 523 446 410 c 1,26,-1
 893 1167 l 1,27,28
 820 1228 820 1228 713 1228 c 0,29,30
 562 1228 562 1228 480 1110.5 c 128,-1,31
 398 993 398 993 397 766 c 2,32,-1
 397 695 l 2,24,25
1030 761 m 2,33,34
 1030 912 1030 912 992 1017 c 1,35,-1
 552 273 l 1,36,37
 622 226 622 226 715 226 c 0,38,39
 866 226 866 226 947.5 344.5 c 128,-1,40
 1029 463 1029 463 1030 690 c 2,41,-1
 1030 761 l 2,33,34
EndSplineSet
EndChar

StartChar: Thorn
Encoding: 222 222 132
Width: 1246
Flags: W
LayerCount: 2
Back
Fore
SplineSet
422 1456 m 1,0,-1
 422 1189 l 1,1,-1
 652 1189 l 2,2,3
 814 1188 814 1188 933.5 1132.5 c 128,-1,4
 1053 1077 1053 1077 1117 974.5 c 128,-1,5
 1181 872 1181 872 1181 738 c 0,6,7
 1181 536 1181 536 1042.5 414 c 128,-1,8
 904 292 904 292 664 287 c 1,9,-1
 422 287 l 1,10,-1
 422 0 l 1,11,-1
 133 0 l 1,12,-1
 133 1456 l 1,13,-1
 422 1456 l 1,0,-1
422 956 m 1,14,-1
 422 520 l 1,15,-1
 645 520 l 2,16,17
 762 520 762 520 827 579 c 128,-1,18
 892 638 892 638 892 736 c 128,-1,19
 892 834 892 834 828.5 894 c 128,-1,20
 765 954 765 954 653 956 c 2,21,-1
 422 956 l 1,14,-1
EndSplineSet
EndChar

StartChar: germandbls
Encoding: 223 223 133
Width: 1292
Flags: W
LayerCount: 2
Back
Fore
SplineSet
424 0 m 1,0,-1
 135 0 l 1,1,-1
 135 1101 l 2,2,3
 135 1321 135 1321 259 1440 c 128,-1,4
 383 1559 383 1559 609 1559 c 0,5,6
 800 1559 800 1559 915.5 1459.5 c 128,-1,7
 1031 1360 1031 1360 1031 1189 c 0,8,9
 1031 1081 1031 1081 977.5 994 c 128,-1,10
 924 907 924 907 924 830 c 0,11,12
 924 793 924 793 954.5 753.5 c 128,-1,13
 985 714 985 714 1073 636 c 0,14,15
 1224 502 1224 502 1224 354 c 0,16,17
 1224 177 1224 177 1109 78.5 c 128,-1,18
 994 -20 994 -20 779 -20 c 0,19,20
 698 -20 698 -20 619 -4 c 128,-1,21
 540 12 540 12 500 36 c 1,22,-1
 554 265 l 1,23,24
 652 213 652 213 773 213 c 0,25,26
 852 213 852 213 894 249.5 c 128,-1,27
 936 286 936 286 936 349 c 0,28,29
 936 395 936 395 901.5 438.5 c 128,-1,30
 867 482 867 482 785 548 c 0,31,32
 635 668 635 668 635 818 c 0,33,34
 635 914 635 914 690 1004.5 c 128,-1,35
 745 1095 745 1095 745 1174 c 0,36,37
 745 1244 745 1244 700.5 1285.5 c 128,-1,38
 656 1327 656 1327 588 1327 c 0,39,40
 429 1327 429 1327 424 1114 c 1,41,-1
 424 0 l 1,0,-1
EndSplineSet
Substitution2: "'c2sc' Capitals to Small Capitals lookup 0 subtable" germandbls.c2sc
EndChar

StartChar: ae
Encoding: 230 230 134
Width: 1729
GlyphClass: 2
Flags: W
LayerCount: 2
Back
Fore
SplineSet
1246 -20 m 0,0,1
 999 -20 999 -20 860 127 c 1,2,3
 796 58 796 58 693.5 19 c 128,-1,4
 591 -20 591 -20 466 -20 c 0,5,6
 280 -20 280 -20 173 69 c 128,-1,7
 66 158 66 158 66 319 c 0,8,9
 66 476 66 476 190 562 c 128,-1,10
 314 648 314 648 557 649 c 2,11,-1
 725 649 l 1,12,-1
 725 706 l 2,13,14
 725 782 725 782 684.5 825 c 128,-1,15
 644 868 644 868 567 868 c 0,16,17
 485 868 485 868 437.5 832.5 c 128,-1,18
 390 797 390 797 390 745 c 1,19,-1
 101 764 l 1,20,21
 101 913 101 913 231.5 1007.5 c 128,-1,22
 362 1102 362 1102 570 1102 c 0,23,24
 781 1102 781 1102 897 992 c 1,25,26
 1023 1104 1023 1104 1223 1102 c 0,27,28
 1435 1102 1435 1102 1556 970.5 c 128,-1,29
 1677 839 1677 839 1677 607 c 2,30,-1
 1677 450 l 1,31,-1
 1009 450 l 1,32,33
 1020 334 1020 334 1089.5 273 c 128,-1,34
 1159 212 1159 212 1276 212 c 0,35,36
 1353 212 1353 212 1418.5 228 c 128,-1,37
 1484 244 1484 244 1571 289 c 1,38,-1
 1648 100 l 1,39,40
 1575 44 1575 44 1467.5 12 c 128,-1,41
 1360 -20 1360 -20 1246 -20 c 0,0,1
521 192 m 0,42,43
 570 192 570 192 628 214.5 c 128,-1,44
 686 237 686 237 725 272 c 1,45,-1
 725 461 l 1,46,-1
 561 461 l 2,47,48
 466 460 466 460 410.5 418 c 128,-1,49
 355 376 355 376 355 315 c 0,50,51
 355 259 355 259 395.5 225.5 c 128,-1,52
 436 192 436 192 521 192 c 0,42,43
1223 868 m 0,53,54
 1133 868 1133 868 1078.5 810.5 c 128,-1,55
 1024 753 1024 753 1011 644 c 1,56,-1
 1393 644 l 1,57,-1
 1393 672 l 2,58,59
 1393 766 1393 766 1349.5 817 c 128,-1,60
 1306 868 1306 868 1223 868 c 0,53,54
EndSplineSet
EndChar

StartChar: eth
Encoding: 240 240 135
Width: 1178
Flags: W
LayerCount: 2
Back
Fore
SplineSet
849 1305 m 1,0,1
 1104 1043 1104 1043 1105 651 c 2,2,-1
 1105 577 l 2,3,4
 1105 405 1105 405 1038.5 268 c 128,-1,5
 972 131 972 131 853 55.5 c 128,-1,6
 734 -20 734 -20 587 -20 c 0,7,8
 443 -20 443 -20 328 43.5 c 128,-1,9
 213 107 213 107 148.5 219.5 c 128,-1,10
 84 332 84 332 84 468 c 0,11,12
 84 699 84 699 207 832.5 c 128,-1,13
 330 966 330 966 536 966 c 0,14,15
 672 966 672 966 780 890 c 1,16,17
 731 1042 731 1042 614 1155 c 1,18,-1
 423 1033 l 1,19,-1
 345 1147 l 1,20,-1
 497 1244 l 1,21,22
 381 1316 381 1316 233 1355 c 1,23,-1
 324 1579 l 1,24,25
 562 1531 562 1531 740 1399 c 1,26,-1
 911 1508 l 1,27,-1
 988 1394 l 1,28,-1
 849 1305 l 1,0,1
816 663 m 1,29,30
 748 746 748 746 601 746 c 0,31,32
 488 746 488 746 430.5 671.5 c 128,-1,33
 373 597 373 597 373 468 c 0,34,35
 373 356 373 356 433 284.5 c 128,-1,36
 493 213 493 213 591 213 c 0,37,38
 694 213 694 213 755 303.5 c 128,-1,39
 816 394 816 394 816 552 c 2,40,-1
 816 663 l 1,29,30
EndSplineSet
Substitution2: "'smcp' Lowercase to Small Capitals lookup 1 subtable" Eth.c2sc
EndChar

StartChar: divide
Encoding: 247 247 136
Width: 1168
Flags: W
LayerCount: 2
Back
Fore
SplineSet
1091 571 m 1,0,-1
 63 571 l 1,1,-1
 63 801 l 1,2,-1
 1091 801 l 1,3,-1
 1091 571 l 1,0,-1
415 1089 m 0,4,5
 415 1157 415 1157 460.5 1199 c 128,-1,6
 506 1241 506 1241 578 1241 c 0,7,8
 649 1241 649 1241 695.5 1199.5 c 128,-1,9
 742 1158 742 1158 742 1089 c 0,10,11
 742 1022 742 1022 697 980.5 c 128,-1,12
 652 939 652 939 578 939 c 0,13,14
 503 939 503 939 459 981 c 128,-1,15
 415 1023 415 1023 415 1089 c 0,4,5
415 277 m 0,16,17
 415 345 415 345 460.5 387 c 128,-1,18
 506 429 506 429 578 429 c 0,19,20
 649 429 649 429 695.5 387.5 c 128,-1,21
 742 346 742 346 742 277 c 0,22,23
 742 210 742 210 697 168.5 c 128,-1,24
 652 127 652 127 578 127 c 0,25,26
 503 127 503 127 459 169 c 128,-1,27
 415 211 415 211 415 277 c 0,16,17
EndSplineSet
EndChar

StartChar: oslash
Encoding: 248 248 137
Width: 1156
GlyphClass: 2
Flags: W
LayerCount: 2
Back
Fore
SplineSet
66 551 m 0,0,1
 66 712 66 712 128 838 c 128,-1,2
 190 964 190 964 306.5 1033 c 128,-1,3
 423 1102 423 1102 577 1102 c 0,4,5
 678 1102 678 1102 763 1073 c 1,6,-1
 833 1216 l 1,7,-1
 994 1216 l 1,8,-1
 891 1005 l 1,9,10
 1091 856 1091 856 1091 530 c 0,11,12
 1091 281 1091 281 952 130.5 c 128,-1,13
 813 -20 813 -20 579 -20 c 0,14,15
 484 -20 484 -20 403 6 c 1,16,-1
 331 -142 l 1,17,-1
 170 -142 l 1,18,-1
 273 70 l 1,19,20
 66 216 66 216 66 551 c 0,0,1
355 530 m 0,21,22
 355 400 355 400 396 322 c 1,23,-1
 656 854 l 1,24,25
 620 868 620 868 577 868 c 0,26,27
 471 868 471 868 413 785.5 c 128,-1,28
 355 703 355 703 355 530 c 0,21,22
802 551 m 0,29,30
 802 665 802 665 765 747 c 1,31,-1
 509 223 l 1,32,33
 539 213 539 213 579 213 c 0,34,35
 684 213 684 213 743 293.5 c 128,-1,36
 802 374 802 374 802 551 c 0,29,30
EndSplineSet
EndChar

StartChar: thorn
Encoding: 254 254 138
Width: 1162
Flags: W
LayerCount: 2
Back
Fore
SplineSet
1087 531 m 2,0,1
 1087 281 1087 281 973.5 130.5 c 128,-1,2
 860 -20 860 -20 667 -20 c 0,3,4
 503 -20 503 -20 403 93 c 1,5,-1
 403 -416 l 1,6,-1
 113 -416 l 1,7,-1
 113 1536 l 1,8,-1
 403 1536 l 1,9,-1
 403 989 l 1,10,11
 503 1102 503 1102 665 1102 c 0,12,13
 863 1102 863 1102 975 955 c 128,-1,14
 1087 808 1087 808 1087 545 c 2,15,-1
 1087 531 l 2,0,1
798 552 m 0,16,17
 798 703 798 703 744.5 785 c 128,-1,18
 691 867 691 867 589 867 c 0,19,20
 457 867 457 867 403 765 c 1,21,-1
 403 318 l 1,22,23
 457 213 457 213 591 213 c 0,24,25
 798 213 798 213 798 552 c 0,16,17
EndSplineSet
EndChar

StartChar: Hbar
Encoding: 294 294 139
Width: 1474
GlyphClass: 2
Flags: W
LayerCount: 2
Back
Fore
SplineSet
1331 1224 m 1,0,-1
 1453 1224 l 1,1,-1
 1453 1050 l 1,2,-1
 1331 1050 l 1,3,-1
 1331 0 l 1,4,-1
 1031 0 l 1,5,-1
 1031 624 l 1,6,-1
 446 624 l 1,7,-1
 446 0 l 1,8,-1
 145 0 l 1,9,-1
 145 1050 l 1,10,-1
 32 1050 l 1,11,-1
 32 1224 l 1,12,-1
 145 1224 l 1,13,-1
 145 1456 l 1,14,-1
 446 1456 l 1,15,-1
 446 1224 l 1,16,-1
 1031 1224 l 1,17,-1
 1031 1456 l 1,18,-1
 1331 1456 l 1,19,-1
 1331 1224 l 1,0,-1
446 866 m 1,20,-1
 1031 866 l 1,21,-1
 1031 1050 l 1,22,-1
 446 1050 l 1,23,-1
 446 866 l 1,20,-1
EndSplineSet
EndChar

StartChar: dotlessi
Encoding: 305 305 140
Width: 561
GlyphClass: 2
Flags: W
LayerCount: 2
Back
Fore
SplineSet
423 0 m 1,0,-1
 134 0 l 1,1,-1
 134 1082 l 1,2,-1
 423 1082 l 1,3,-1
 423 0 l 1,0,-1
EndSplineSet
Substitution2: "'smcp' Lowercase to Small Capitals lookup 1 subtable" Idotaccent.c2sc
EndChar

StartChar: kgreenlandic
Encoding: 312 312 141
Width: 1208
GlyphClass: 2
Flags: W
LayerCount: 2
Back
Fore
SplineSet
537 399 m 1,0,-1
 419 399 l 1,1,-1
 419 0 l 1,2,-1
 130 0 l 1,3,-1
 130 1082 l 1,4,-1
 419 1082 l 1,5,-1
 419 675 l 1,6,-1
 506 675 l 1,7,-1
 788 1082 l 1,8,-1
 1153 1082 l 1,9,-1
 773 561 l 1,10,-1
 1170 0 l 1,11,-1
 799 0 l 1,12,-1
 537 399 l 1,0,-1
EndSplineSet
EndChar

StartChar: Lslash
Encoding: 321 321 142
Width: 1142
GlyphClass: 2
Flags: W
LayerCount: 2
Back
Fore
SplineSet
463 895 m 1,0,-1
 678 957 l 1,1,-1
 678 791 l 1,2,-1
 463 729 l 1,3,-1
 463 241 l 1,4,-1
 1100 241 l 1,5,-1
 1100 0 l 1,6,-1
 163 0 l 1,7,-1
 163 642 l 1,8,-1
 29 604 l 1,9,-1
 29 770 l 1,10,-1
 163 808 l 1,11,-1
 163 1456 l 1,12,-1
 463 1456 l 1,13,-1
 463 895 l 1,0,-1
EndSplineSet
EndChar

StartChar: lslash
Encoding: 322 322 143
Width: 626
GlyphClass: 2
Flags: W
LayerCount: 2
Back
Fore
SplineSet
451 910 m 1,0,-1
 593 957 l 1,1,-1
 593 791 l 1,2,-1
 451 744 l 1,3,-1
 451 0 l 1,4,-1
 162 0 l 1,5,-1
 162 648 l 1,6,-1
 30 604 l 1,7,-1
 30 770 l 1,8,-1
 162 814 l 1,9,-1
 162 1536 l 1,10,-1
 451 1536 l 1,11,-1
 451 910 l 1,0,-1
EndSplineSet
EndChar

StartChar: Eng
Encoding: 330 330 144
Width: 1440
GlyphClass: 2
Flags: W
LayerCount: 2
Back
Fore
SplineSet
1312 1456 m 1,0,-1
 1312 -26 l 2,1,2
 1312 -222 1312 -222 1210 -329.5 c 128,-1,3
 1108 -437 1108 -437 925 -437 c 0,4,5
 844 -437 844 -437 778 -420 c 1,6,-1
 792 -182 l 1,7,8
 838 -194 838 -194 891 -194 c 0,9,10
 1012 -194 1012 -194 1012 -20 c 2,11,-1
 1012 0 l 1,12,-1
 429 980 l 1,13,-1
 429 0 l 1,14,-1
 128 0 l 1,15,-1
 128 1456 l 1,16,-1
 429 1456 l 1,17,-1
 1012 477 l 1,18,-1
 1012 1456 l 1,19,-1
 1312 1456 l 1,0,-1
EndSplineSet
EndChar

StartChar: eng
Encoding: 331 331 145
Width: 1156
GlyphClass: 2
Flags: W
LayerCount: 2
Back
Fore
SplineSet
377 1082 m 1,0,-1
 390 930 l 1,1,2
 503 1102 503 1102 699 1102 c 0,3,4
 871 1102 871 1102 958.5 992 c 128,-1,5
 1046 882 1046 882 1047 666 c 2,6,-1
 1047 -34 l 2,7,8
 1047 -228 1047 -228 946 -332.5 c 128,-1,9
 845 -437 845 -437 666 -437 c 0,10,11
 588 -437 588 -437 523 -420 c 1,12,-1
 537 -189 l 1,13,14
 582 -201 582 -201 636 -201 c 0,15,16
 757 -201 757 -201 757 -28 c 2,17,-1
 757 660 l 2,18,19
 757 768 757 768 718 817.5 c 128,-1,20
 679 867 679 867 593 867 c 0,21,22
 465 867 465 867 397 780 c 1,23,-1
 397 0 l 1,24,-1
 108 0 l 1,25,-1
 108 1082 l 1,26,-1
 377 1082 l 1,0,-1
EndSplineSet
EndChar

StartChar: OE
Encoding: 338 338 146
Width: 1983
GlyphClass: 2
Flags: W
LayerCount: 2
Back
Fore
SplineSet
1876 0 m 1,0,-1
 990 0 l 1,1,2
 823 -20 823 -20 702 -20 c 0,3,4
 528 -20 528 -20 390 53.5 c 128,-1,5
 252 127 252 127 175.5 260.5 c 128,-1,6
 99 394 99 394 96 563 c 2,7,-1
 96 880 l 2,8,9
 96 1053 96 1053 171.5 1189.5 c 128,-1,10
 247 1326 247 1326 385.5 1401 c 128,-1,11
 524 1476 524 1476 700 1476 c 0,12,13
 823 1476 823 1476 990 1456 c 1,14,-1
 1874 1456 l 1,15,-1
 1874 1213 l 1,16,-1
 1201 1213 l 1,17,-1
 1201 866 l 1,18,-1
 1776 866 l 1,19,-1
 1776 631 l 1,20,-1
 1201 631 l 1,21,-1
 1201 241 l 1,22,-1
 1876 241 l 1,23,-1
 1876 0 l 1,0,-1
702 212 m 0,24,25
 796 212 796 212 900 225 c 1,26,-1
 900 1229 l 1,27,28
 788 1243 788 1243 700 1243 c 0,29,30
 550 1243 550 1243 468 1150.5 c 128,-1,31
 386 1058 386 1058 385 885 c 2,32,-1
 385 576 l 2,33,34
 385 400 385 400 468.5 306 c 128,-1,35
 552 212 552 212 702 212 c 0,24,25
EndSplineSet
Substitution2: "'c2sc' Capitals to Small Capitals lookup 0 subtable" OE.c2sc
Position2: "'cpsp' Capital Spacing lookup 0 subtable" dx=36 dy=0 dh=72 dv=0
EndChar

StartChar: oe
Encoding: 339 339 147
Width: 1847
GlyphClass: 2
Flags: W
LayerCount: 2
Back
Fore
SplineSet
83 551 m 2,0,1
 83 712 83 712 144 837.5 c 128,-1,2
 205 963 205 963 321 1032.5 c 128,-1,3
 437 1102 437 1102 591 1102 c 0,4,5
 822 1102 822 1102 962 953 c 1,6,7
 1096 1104 1096 1104 1311 1102 c 0,8,9
 1525 1102 1525 1102 1648 973 c 128,-1,10
 1771 844 1771 844 1771 608 c 2,11,-1
 1771 450 l 1,12,-1
 1117 450 l 1,13,14
 1133 337 1133 337 1198.5 274.5 c 128,-1,15
 1264 212 1264 212 1367 212 c 0,16,17
 1452 212 1452 212 1519 228.5 c 128,-1,18
 1586 245 1586 245 1668 290 c 1,19,-1
 1747 103 l 1,20,21
 1674 45 1674 45 1565 12.5 c 128,-1,22
 1456 -20 1456 -20 1337 -20 c 0,23,24
 1104 -20 1104 -20 964 129 c 1,25,26
 826 -20 826 -20 593 -20 c 128,-1,27
 360 -20 360 -20 221.5 129.5 c 128,-1,28
 83 279 83 279 83 538 c 2,29,-1
 83 551 l 2,0,1
372 530 m 0,30,31
 372 375 372 375 428.5 293.5 c 128,-1,32
 485 212 485 212 593 212 c 0,33,34
 699 212 699 212 756 292.5 c 128,-1,35
 813 373 813 373 813 551 c 0,36,37
 813 704 813 704 755 786 c 128,-1,38
 697 868 697 868 591 868 c 0,39,40
 486 868 486 868 429 786 c 128,-1,41
 372 704 372 704 372 530 c 0,30,31
1311 868 m 0,42,43
 1234 868 1234 868 1185 811 c 128,-1,44
 1136 754 1136 754 1120 647 c 1,45,-1
 1487 647 l 1,46,-1
 1487 673 l 2,47,48
 1487 770 1487 770 1440.5 819 c 128,-1,49
 1394 868 1394 868 1311 868 c 0,42,43
EndSplineSet
Substitution2: "'smcp' Lowercase to Small Capitals lookup 1 subtable" OE.c2sc
EndChar

StartChar: longs
Encoding: 383 383 148
Width: 531
GlyphClass: 2
Flags: W
LayerCount: 2
Back
Fore
SplineSet
117 0 m 1,0,-1
 117 1174 l 2,1,2
 117 1357 117 1357 220.5 1457 c 128,-1,3
 324 1557 324 1557 515 1557 c 0,4,5
 579 1557 579 1557 675 1536 c 1,6,-1
 651 1313 l 1,7,8
 607 1323 607 1323 554 1323 c 0,9,10
 406 1323 406 1323 406 1170 c 2,11,-1
 406 0 l 1,12,-1
 117 0 l 1,0,-1
EndSplineSet
EndChar

StartChar: uni018F
Encoding: 399 399 149
Width: 1423
GlyphClass: 2
Flags: W
LayerCount: 2
Back
Fore
SplineSet
701 -20 m 0,0,1
 404 -20 404 -20 239.5 159 c 128,-1,2
 75 338 75 338 75 671 c 2,3,-1
 75 826 l 1,4,-1
 1025 826 l 1,5,6
 1018 1014 1018 1014 915 1113.5 c 128,-1,7
 812 1213 812 1213 620 1213 c 0,8,9
 416 1213 416 1213 233 1150 c 1,10,-1
 184 1397 l 1,11,12
 248 1427 248 1427 383 1451.5 c 128,-1,13
 518 1476 518 1476 635 1476 c 0,14,15
 957 1476 957 1476 1141.5 1294 c 128,-1,16
 1326 1112 1326 1112 1326 789 c 2,17,-1
 1326 651 l 2,18,19
 1326 460 1326 460 1245 306.5 c 128,-1,20
 1164 153 1164 153 1020 66.5 c 128,-1,21
 876 -20 876 -20 701 -20 c 0,0,1
701 241 m 0,22,23
 834 241 834 241 919 331 c 128,-1,24
 1004 421 1004 421 1022 582 c 1,25,-1
 375 582 l 1,26,-1
 375 551 l 2,27,28
 375 399 375 399 459 320 c 128,-1,29
 543 241 543 241 701 241 c 0,22,23
EndSplineSet
EndChar

StartChar: florin
Encoding: 402 402 150
Width: 739
Flags: W
LayerCount: 2
Back
Fore
SplineSet
681 870 m 1,0,-1
 474 870 l 1,1,-1
 473 -47 l 2,2,3
 473 -235 473 -235 376.5 -336 c 128,-1,4
 280 -437 280 -437 108 -437 c 0,5,6
 30 -437 30 -437 -35 -420 c 1,7,-1
 -20 -191 l 1,8,9
 8 -203 8 -203 71 -203 c 128,-1,10
 134 -203 134 -203 159 -163.5 c 128,-1,11
 184 -124 184 -124 184 -49 c 2,12,-1
 184 870 l 1,13,-1
 23 870 l 1,14,-1
 23 1082 l 1,15,-1
 184 1082 l 1,16,-1
 184 1182 l 2,17,18
 186 1361 186 1361 290.5 1459 c 128,-1,19
 395 1557 395 1557 583 1557 c 0,20,21
 646 1557 646 1557 742 1536 c 1,22,-1
 718 1312 l 1,23,24
 676 1322 676 1322 619 1322 c 0,25,26
 474 1322 474 1322 474 1172 c 2,27,-1
 474 1082 l 1,28,-1
 681 1082 l 1,29,-1
 681 870 l 1,0,-1
EndSplineSet
EndChar

StartChar: Ohorn
Encoding: 416 416 151
Width: 1436
GlyphClass: 2
Flags: W
LayerCount: 2
Back
Fore
SplineSet
1320 695 m 2,0,1
 1320 480 1320 480 1244 318 c 128,-1,2
 1168 156 1168 156 1026.5 68 c 128,-1,3
 885 -20 885 -20 702 -20 c 0,4,5
 521 -20 521 -20 379 67 c 128,-1,6
 237 154 237 154 159 315.5 c 128,-1,7
 81 477 81 477 80 687 c 2,8,-1
 80 759 l 2,9,10
 80 974 80 974 157.5 1137.5 c 128,-1,11
 235 1301 235 1301 376.5 1388.5 c 128,-1,12
 518 1476 518 1476 700 1476 c 0,13,14
 837 1476 837 1476 949.5 1427.5 c 128,-1,15
 1062 1379 1062 1379 1144 1288 c 1,16,17
 1217 1306 1217 1306 1244 1378 c 128,-1,18
 1271 1450 1271 1450 1271 1566 c 1,19,-1
 1467 1566 l 1,20,21
 1467 1222 1467 1222 1239 1145 c 1,22,23
 1318 980 1318 980 1320 769 c 2,24,-1
 1320 695 l 2,0,1
1016 761 m 2,25,26
 1016 990 1016 990 934 1109 c 128,-1,27
 852 1228 852 1228 700 1228 c 0,28,29
 549 1228 549 1228 467 1110.5 c 128,-1,30
 385 993 385 993 384 766 c 2,31,-1
 384 695 l 2,32,33
 384 472 384 472 466 349 c 128,-1,34
 548 226 548 226 702 226 c 0,35,36
 853 226 853 226 934 344.5 c 128,-1,37
 1015 463 1015 463 1016 690 c 2,38,-1
 1016 761 l 2,25,26
EndSplineSet
EndChar

StartChar: ohorn
Encoding: 417 417 152
Width: 1190
GlyphClass: 2
Flags: W
LayerCount: 2
Back
Fore
SplineSet
64 551 m 2,0,1
 64 713 64 713 126.5 839 c 128,-1,2
 189 965 189 965 306 1033.5 c 128,-1,3
 423 1102 423 1102 576 1102 c 0,4,5
 813 1102 813 1102 953 947 c 1,6,7
 999 976 999 976 1015 1036.5 c 128,-1,8
 1031 1097 1031 1097 1031 1183 c 1,9,-1
 1207 1183 l 1,10,11
 1207 911 1207 911 1030 831 c 1,12,13
 1089 708 1089 708 1089 551 c 2,14,-1
 1089 530 l 2,15,16
 1089 368 1089 368 1026.5 242 c 128,-1,17
 964 116 964 116 848.5 48 c 128,-1,18
 733 -20 733 -20 578 -20 c 0,19,20
 354 -20 354 -20 215 119 c 128,-1,21
 76 258 76 258 65 494 c 1,22,-1
 64 551 l 2,0,1
354 530 m 0,23,24
 354 376 354 376 412 294.5 c 128,-1,25
 470 213 470 213 578 213 c 0,26,27
 684 213 684 213 742 294 c 128,-1,28
 800 375 800 375 800 551 c 0,29,30
 800 701 800 701 742 784.5 c 128,-1,31
 684 868 684 868 576 868 c 0,32,33
 470 868 470 868 412 785.5 c 128,-1,34
 354 703 354 703 354 530 c 0,23,24
EndSplineSet
EndChar

StartChar: Uhorn
Encoding: 431 431 153
Width: 1459
GlyphClass: 2
Flags: W
LayerCount: 2
Back
Fore
SplineSet
1232 1456 m 1,0,-1
 1232 1228 l 1,1,2
 1307 1234 1307 1234 1348.5 1264.5 c 128,-1,3
 1390 1295 1390 1295 1408.5 1350.5 c 128,-1,4
 1427 1406 1427 1406 1427 1537 c 1,5,-1
 1620 1537 l 1,6,7
 1620 1297 1620 1297 1526.5 1188 c 128,-1,8
 1433 1079 1433 1079 1232 1070 c 1,9,-1
 1232 497 l 2,10,11
 1232 258 1232 258 1082.5 119 c 128,-1,12
 933 -20 933 -20 674 -20 c 0,13,14
 419 -20 419 -20 269 115 c 128,-1,15
 119 250 119 250 116 486 c 2,16,-1
 116 1456 l 1,17,-1
 416 1456 l 1,18,-1
 416 495 l 2,19,20
 416 352 416 352 484.5 286.5 c 128,-1,21
 553 221 553 221 674 221 c 0,22,23
 927 221 927 221 931 487 c 1,24,-1
 931 1456 l 1,25,-1
 1232 1456 l 1,0,-1
EndSplineSet
EndChar

StartChar: uhorn
Encoding: 432 432 154
Width: 1249
GlyphClass: 2
Flags: W
LayerCount: 2
Back
Fore
SplineSet
1335 1177 m 1,0,1
 1335 995 1335 995 1263.5 907.5 c 128,-1,2
 1192 820 1192 820 1039 804 c 1,3,-1
 1039 0 l 1,4,-1
 767 0 l 1,5,-1
 759 110 l 1,6,7
 652 -20 652 -20 463 -20 c 0,8,9
 289 -20 289 -20 197.5 80 c 128,-1,10
 106 180 106 180 104 373 c 2,11,-1
 104 1082 l 1,12,-1
 393 1082 l 1,13,-1
 393 383 l 2,14,15
 393 214 393 214 547 214 c 0,16,17
 694 214 694 214 749 316 c 1,18,-1
 749 1082 l 1,19,-1
 1039 1082 l 1,20,-1
 1039 943 l 1,21,22
 1107 958 1107 958 1134.5 1005 c 128,-1,23
 1162 1052 1162 1052 1162 1177 c 1,24,-1
 1335 1177 l 1,0,1
EndSplineSet
EndChar

StartChar: uni0237
Encoding: 567 567 155
Width: 577
GlyphClass: 2
Flags: W
LayerCount: 2
Back
Fore
SplineSet
439 1082 m 1,0,-1
 439 -36 l 2,1,2
 438 -228 438 -228 338.5 -332.5 c 128,-1,3
 239 -437 239 -437 59 -437 c 0,4,5
 -18 -437 -18 -437 -83 -420 c 1,6,-1
 -69 -191 l 1,7,8
 -25 -203 -25 -203 29 -203 c 0,9,10
 150 -203 150 -203 150 -27 c 2,11,-1
 150 1082 l 1,12,-1
 439 1082 l 1,0,-1
EndSplineSet
EndChar

StartChar: uni0259
Encoding: 601 601 156
Width: 1084
GlyphClass: 2
Flags: W
LayerCount: 2
Back
Fore
SplineSet
512 1103 m 0,0,1
 739 1103 739 1103 882 955.5 c 128,-1,2
 1025 808 1025 808 1025 563 c 2,3,-1
 1025 534 l 2,4,5
 1025 375 1025 375 964.5 247.5 c 128,-1,6
 904 120 904 120 792.5 50 c 128,-1,7
 681 -20 681 -20 538 -19 c 0,8,9
 322 -19 322 -19 200 110.5 c 128,-1,10
 78 240 78 240 78 474 c 2,11,-1
 78 632 l 1,12,-1
 732 632 l 1,13,14
 716 744 716 744 650.5 807 c 128,-1,15
 585 870 585 870 482 870 c 0,16,17
 342 870 342 870 241 822 c 2,18,-1
 181 792 l 1,19,-1
 102 979 l 1,20,21
 175 1037 175 1037 283 1070 c 128,-1,22
 391 1103 391 1103 512 1103 c 0,0,1
538 214 m 0,23,24
 615 214 615 214 664 271 c 128,-1,25
 713 328 713 328 729 435 c 1,26,-1
 362 435 l 1,27,-1
 362 409 l 2,28,29
 362 313 362 313 408 263.5 c 128,-1,30
 454 214 454 214 538 214 c 0,23,24
EndSplineSet
EndChar

StartChar: circumflex
Encoding: 710 710 157
Width: 1015
Flags: W
LayerCount: 2
Back
Fore
SplineSet
887 1256 m 1,0,-1
 887 1244 l 1,1,-1
 657 1244 l 1,2,-1
 503 1389 l 1,3,-1
 349 1244 l 1,4,-1
 123 1244 l 1,5,-1
 123 1260 l 1,6,-1
 419 1536 l 1,7,-1
 587 1536 l 1,8,-1
 887 1256 l 1,0,-1
EndSplineSet
EndChar

StartChar: caron
Encoding: 711 711 158
Width: 964
Flags: W
LayerCount: 2
Back
Fore
SplineSet
479 1394 m 1,0,-1
 625 1537 l 1,1,-1
 872 1537 l 1,2,-1
 872 1526 l 1,3,-1
 570 1245 l 1,4,-1
 387 1245 l 1,5,-1
 85 1528 l 1,6,-1
 85 1537 l 1,7,-1
 332 1537 l 1,8,-1
 479 1394 l 1,0,-1
EndSplineSet
EndChar

StartChar: breve
Encoding: 728 728 160
Width: 909
Flags: W
LayerCount: 2
Back
Fore
SplineSet
798 1526 m 1,0,1
 798 1393 798 1393 702.5 1311 c 128,-1,2
 607 1229 607 1229 452 1229 c 128,-1,3
 297 1229 297 1229 201.5 1310 c 128,-1,4
 106 1391 106 1391 106 1526 c 1,5,-1
 311 1526 l 1,6,7
 311 1463 311 1463 348.5 1428.5 c 128,-1,8
 386 1394 386 1394 452 1394 c 0,9,10
 517 1394 517 1394 554 1428.5 c 128,-1,11
 591 1463 591 1463 591 1526 c 1,12,-1
 798 1526 l 1,0,1
EndSplineSet
EndChar

StartChar: dotaccent
Encoding: 729 729 161
Width: 543
Flags: W
LayerCount: 2
Back
Fore
SplineSet
266 1511 m 0,0,1
 335 1511 335 1511 374.5 1472.5 c 128,-1,2
 414 1434 414 1434 414 1374 c 128,-1,3
 414 1314 414 1314 374.5 1276 c 128,-1,4
 335 1238 335 1238 266 1238 c 0,5,6
 198 1238 198 1238 158 1276 c 128,-1,7
 118 1314 118 1314 118 1374 c 128,-1,8
 118 1434 118 1434 158.5 1472.5 c 128,-1,9
 199 1511 199 1511 266 1511 c 0,0,1
EndSplineSet
EndChar

StartChar: ring
Encoding: 730 730 162
Width: 682
Flags: W
LayerCount: 2
Back
Fore
SplineSet
119 1325 m 0,0,1
 119 1411 119 1411 184 1470.5 c 128,-1,2
 249 1530 249 1530 342 1530 c 0,3,4
 434 1530 434 1530 499.5 1471.5 c 128,-1,5
 565 1413 565 1413 565 1325 c 0,6,7
 565 1240 565 1240 501 1182 c 128,-1,8
 437 1124 437 1124 342 1124 c 0,9,10
 245 1124 245 1124 182 1183 c 128,-1,11
 119 1242 119 1242 119 1325 c 0,0,1
234 1325 m 0,12,13
 234 1281 234 1281 263 1249.5 c 128,-1,14
 292 1218 292 1218 342 1218 c 128,-1,15
 392 1218 392 1218 421 1249.5 c 128,-1,16
 450 1281 450 1281 450 1325 c 0,17,18
 450 1371 450 1371 420.5 1402.5 c 128,-1,19
 391 1434 391 1434 342 1434 c 128,-1,20
 293 1434 293 1434 263.5 1402.5 c 128,-1,21
 234 1371 234 1371 234 1325 c 0,12,13
EndSplineSet
EndChar

StartChar: ogonek
Encoding: 731 731 163
Width: 616
GlyphClass: 4
Flags: W
LayerCount: 2
Back
Fore
SplineSet
404 0 m 1,0,1
 330 -42 330 -42 290 -82.5 c 128,-1,2
 250 -123 250 -123 250 -176 c 0,3,4
 250 -241 250 -241 316 -241 c 0,5,6
 349 -241 349 -241 396 -221 c 1,7,-1
 425 -378 l 1,8,9
 352 -422 352 -422 260 -422 c 0,10,11
 160 -422 160 -422 96.5 -366.5 c 128,-1,12
 33 -311 33 -311 33 -213 c 0,13,14
 33 -41 33 -41 256 60 c 1,15,-1
 404 0 l 1,0,1
EndSplineSet
EndChar

StartChar: tilde
Encoding: 732 732 164
Width: 985
Flags: W
LayerCount: 2
Back
Fore
SplineSet
870 1524 m 1,0,1
 870 1411 870 1411 804 1334.5 c 128,-1,2
 738 1258 738 1258 643 1258 c 0,3,4
 605 1258 605 1258 575.5 1266.5 c 128,-1,5
 546 1275 546 1275 494 1303 c 128,-1,6
 442 1331 442 1331 419 1337.5 c 128,-1,7
 396 1344 396 1344 369 1344 c 0,8,9
 334 1344 334 1344 309.5 1319 c 128,-1,10
 285 1294 285 1294 285 1248 c 1,11,-1
 117 1258 l 1,12,13
 117 1369 117 1369 182.5 1447 c 128,-1,14
 248 1525 248 1525 343 1525 c 0,15,16
 373 1525 373 1525 399.5 1517.5 c 128,-1,17
 426 1510 426 1510 486 1481 c 128,-1,18
 546 1452 546 1452 569 1446 c 128,-1,19
 592 1440 592 1440 617 1440 c 0,20,21
 652 1440 652 1440 677.5 1464.5 c 128,-1,22
 703 1489 703 1489 703 1535 c 1,23,-1
 870 1524 l 1,0,1
EndSplineSet
EndChar

StartChar: hungarumlaut
Encoding: 733 733 165
Width: 840
Flags: W
LayerCount: 2
Back
Fore
SplineSet
634 1535 m 1,0,-1
 893 1535 l 1,1,-1
 627 1234 l 1,2,-1
 409 1234 l 1,3,-1
 634 1535 l 1,0,-1
243 1535 m 1,4,-1
 498 1535 l 1,5,-1
 269 1234 l 1,6,-1
 57 1234 l 1,7,-1
 243 1535 l 1,4,-1
EndSplineSet
EndChar

StartChar: uni02F3
Encoding: 755 755 166
Width: 643
Flags: W
LayerCount: 2
Back
Fore
SplineSet
330 -57 m 0,0,1
 411 -57 411 -57 463 -108 c 128,-1,2
 515 -159 515 -159 515 -230 c 128,-1,3
 515 -301 515 -301 463 -350 c 128,-1,4
 411 -399 411 -399 330 -399 c 0,5,6
 250 -399 250 -399 196 -351 c 128,-1,7
 142 -303 142 -303 142 -230 c 128,-1,8
 142 -157 142 -157 196 -107 c 128,-1,9
 250 -57 250 -57 330 -57 c 0,0,1
255 -230 m 0,10,11
 255 -262 255 -262 276.5 -283 c 128,-1,12
 298 -304 298 -304 330 -304 c 128,-1,13
 362 -304 362 -304 382 -283 c 128,-1,14
 402 -262 402 -262 402 -230 c 0,15,16
 402 -196 402 -196 382 -174.5 c 128,-1,17
 362 -153 362 -153 330 -153 c 128,-1,18
 298 -153 298 -153 276.5 -174.5 c 128,-1,19
 255 -196 255 -196 255 -230 c 0,10,11
EndSplineSet
EndChar

StartChar: gravecomb
Encoding: 768 768 167
Width: 0
GlyphClass: 4
Flags: W
LayerCount: 2
Back
Fore
SplineSet
-383 1226 m 1,0,-1
 -620 1226 l 1,1,-1
 -896 1536 l 1,2,-1
 -580 1536 l 1,3,-1
 -383 1226 l 1,0,-1
EndSplineSet
EndChar

StartChar: acutecomb
Encoding: 769 769 168
Width: 0
GlyphClass: 4
Flags: W
LayerCount: 2
Back
Fore
SplineSet
-486 1536 m 1,0,-1
 -170 1536 l 1,1,-1
 -448 1226 l 1,2,-1
 -682 1226 l 1,3,-1
 -486 1536 l 1,0,-1
EndSplineSet
EndChar

StartChar: hookabovecomb
Encoding: 777 777 170
Width: 0
GlyphClass: 4
Flags: W
LayerCount: 2
Back
Fore
SplineSet
-718 1267 m 1,0,-1
 -733 1401 l 1,1,2
 -660 1405 -660 1405 -627.5 1419.5 c 128,-1,3
 -595 1434 -595 1434 -595 1466 c 0,4,5
 -595 1535 -595 1535 -737 1535 c 1,6,-1
 -730 1670 l 1,7,8
 -542 1670 -542 1670 -446.5 1618 c 128,-1,9
 -351 1566 -351 1566 -351 1475 c 0,10,11
 -351 1416 -351 1416 -392 1378.5 c 128,-1,12
 -433 1341 -433 1341 -501 1331 c 1,13,-1
 -501 1267 l 1,14,-1
 -718 1267 l 1,0,-1
EndSplineSet
EndChar

StartChar: uni030F
Encoding: 783 783 171
Width: 0
GlyphClass: 4
Flags: W
LayerCount: 2
Back
Fore
SplineSet
-509 1252 m 1,0,-1
 -748 1252 l 1,1,-1
 -1040 1518 l 1,2,-1
 -754 1518 l 1,3,-1
 -509 1252 l 1,0,-1
-170 1252 m 1,4,-1
 -403 1252 l 1,5,-1
 -648 1518 l 1,6,-1
 -368 1518 l 1,7,-1
 -170 1252 l 1,4,-1
EndSplineSet
EndChar

StartChar: dotbelowcomb
Encoding: 803 803 172
Width: 0
GlyphClass: 4
Flags: W
LayerCount: 2
Back
Fore
SplineSet
-761 -234 m 0,0,1
 -761 -174 -761 -174 -716 -135 c 128,-1,2
 -671 -96 -671 -96 -600 -96 c 0,3,4
 -528 -96 -528 -96 -483 -135 c 128,-1,5
 -438 -174 -438 -174 -438 -234 c 0,6,7
 -438 -293 -438 -293 -482.5 -333 c 128,-1,8
 -527 -373 -527 -373 -600 -373 c 128,-1,9
 -673 -373 -673 -373 -717 -333 c 128,-1,10
 -761 -293 -761 -293 -761 -234 c 0,0,1
EndSplineSet
EndChar

StartChar: tonos
Encoding: 900 900 173
Width: 690
Flags: W
LayerCount: 2
Back
Fore
SplineSet
291 1601 m 1,0,-1
 553 1601 l 1,1,-1
 390 1256 l 1,2,-1
 218 1256 l 1,3,-1
 291 1601 l 1,0,-1
EndSplineSet
EndChar

StartChar: dieresistonos
Encoding: 901 901 174
Width: 1123
Flags: W
LayerCount: 2
Back
Fore
SplineSet
507 1751 m 1,0,-1
 766 1751 l 1,1,-1
 612 1419 l 1,2,-1
 464 1419 l 1,3,-1
 507 1751 l 1,0,-1
102 1365 m 0,4,5
 102 1417 102 1417 140.5 1454.5 c 128,-1,6
 179 1492 179 1492 241 1492 c 128,-1,7
 303 1492 303 1492 341 1454.5 c 128,-1,8
 379 1417 379 1417 379 1365 c 128,-1,9
 379 1313 379 1313 341 1276 c 128,-1,10
 303 1239 303 1239 241 1239 c 0,11,12
 180 1239 180 1239 141 1275.5 c 128,-1,13
 102 1312 102 1312 102 1365 c 0,4,5
719 1365 m 0,14,15
 719 1418 719 1418 758.5 1455 c 128,-1,16
 798 1492 798 1492 857 1492 c 0,17,18
 915 1492 915 1492 955.5 1455.5 c 128,-1,19
 996 1419 996 1419 996 1365 c 0,20,21
 996 1313 996 1313 957.5 1275.5 c 128,-1,22
 919 1238 919 1238 857 1238 c 128,-1,23
 795 1238 795 1238 757 1275.5 c 128,-1,24
 719 1313 719 1313 719 1365 c 0,14,15
EndSplineSet
EndChar

StartChar: Gamma
Encoding: 915 915 176
Width: 1141
GlyphClass: 2
Flags: W
LayerCount: 2
Back
Fore
SplineSet
1085 1213 m 1,0,-1
 432 1213 l 1,1,-1
 432 0 l 1,2,-1
 132 0 l 1,3,-1
 132 1456 l 1,4,-1
 1085 1456 l 1,5,-1
 1085 1213 l 1,0,-1
EndSplineSet
Substitution2: "'c2sc' Capitals to Small Capitals lookup 0 subtable" Gamma.c2sc
Position2: "'cpsp' Capital Spacing lookup 0 subtable" dx=36 dy=0 dh=72 dv=0
EndChar

StartChar: Delta
Encoding: 8710 8710 177
AltUni2: 000394.ffffffff.0
Width: 1497
Flags: W
LayerCount: 2
Back
Fore
SplineSet
601 1456 m 1,0,-1
 912 1456 l 1,1,-1
 1485 0 l 1,2,-1
 20 0 l 1,3,-1
 601 1456 l 1,0,-1
427 241 m 1,4,-1
 1080 241 l 1,5,-1
 755 1109 l 1,6,-1
 427 241 l 1,4,-1
EndSplineSet
Substitution2: "'c2sc' Capitals to Small Capitals lookup 0 subtable" Delta.c2sc
Position2: "'cpsp' Capital Spacing lookup 0 subtable" dx=36 dy=0 dh=72 dv=0
EndChar

StartChar: Theta
Encoding: 920 920 178
Width: 1409
Flags: W
LayerCount: 2
Back
Fore
SplineSet
901 607 m 1,0,-1
 518 607 l 1,1,-1
 518 839 l 1,2,-1
 901 839 l 1,3,-1
 901 607 l 1,0,-1
1322 695 m 2,4,5
 1322 480 1322 480 1246 318 c 128,-1,6
 1170 156 1170 156 1028.5 68 c 128,-1,7
 887 -20 887 -20 704 -20 c 0,8,9
 523 -20 523 -20 381 67 c 128,-1,10
 239 154 239 154 161 315.5 c 128,-1,11
 83 477 83 477 82 687 c 2,12,-1
 82 759 l 2,13,14
 82 974 82 974 159.5 1137.5 c 128,-1,15
 237 1301 237 1301 378.5 1388.5 c 128,-1,16
 520 1476 520 1476 702 1476 c 128,-1,17
 884 1476 884 1476 1025.5 1388.5 c 128,-1,18
 1167 1301 1167 1301 1244.5 1137.5 c 128,-1,19
 1322 974 1322 974 1322 760 c 2,20,-1
 1322 695 l 2,4,5
1018 761 m 2,21,22
 1018 990 1018 990 936 1109 c 128,-1,23
 854 1228 854 1228 702 1228 c 0,24,25
 551 1228 551 1228 469 1110.5 c 128,-1,26
 387 993 387 993 386 766 c 2,27,-1
 386 695 l 2,28,29
 386 472 386 472 468 349 c 128,-1,30
 550 226 550 226 704 226 c 0,31,32
 855 226 855 226 936 344.5 c 128,-1,33
 1017 463 1017 463 1018 690 c 2,34,-1
 1018 761 l 2,21,22
EndSplineSet
Substitution2: "'c2sc' Capitals to Small Capitals lookup 0 subtable" Theta.c2sc
Position2: "'cpsp' Capital Spacing lookup 0 subtable" dx=36 dy=0 dh=72 dv=0
EndChar

StartChar: Lambda
Encoding: 923 923 179
Width: 1326
Flags: W
LayerCount: 2
Back
Fore
SplineSet
661 1043 m 1,0,-1
 341 0 l 1,1,-1
 16 0 l 1,2,-1
 505 1456 l 1,3,-1
 817 1456 l 1,4,-1
 1307 0 l 1,5,-1
 982 0 l 1,6,-1
 661 1043 l 1,0,-1
EndSplineSet
Substitution2: "'c2sc' Capitals to Small Capitals lookup 0 subtable" Lambda.c2sc
Position2: "'cpsp' Capital Spacing lookup 0 subtable" dx=36 dy=0 dh=72 dv=0
EndChar

StartChar: Xi
Encoding: 926 926 180
Width: 1161
Flags: W
LayerCount: 2
Back
Fore
SplineSet
95 241 m 1,0,-1
 1080 241 l 1,1,-1
 1080 0 l 1,2,-1
 95 0 l 1,3,-1
 95 241 l 1,0,-1
210 852 m 1,4,-1
 965 852 l 1,5,-1
 965 619 l 1,6,-1
 210 619 l 1,7,-1
 210 852 l 1,4,-1
119 1456 m 1,8,-1
 1037 1456 l 1,9,-1
 1037 1213 l 1,10,-1
 119 1213 l 1,11,-1
 119 1456 l 1,8,-1
EndSplineSet
Substitution2: "'c2sc' Capitals to Small Capitals lookup 0 subtable" Xi.c2sc
Position2: "'cpsp' Capital Spacing lookup 0 subtable" dx=36 dy=0 dh=72 dv=0
EndChar

StartChar: Pi
Encoding: 928 928 181
Width: 1449
Flags: W
LayerCount: 2
Back
Fore
SplineSet
1316 0 m 1,0,-1
 1015 0 l 1,1,-1
 1015 1213 l 1,2,-1
 432 1213 l 1,3,-1
 432 0 l 1,4,-1
 132 0 l 1,5,-1
 132 1456 l 1,6,-1
 1316 1456 l 1,7,-1
 1316 0 l 1,0,-1
EndSplineSet
Substitution2: "'c2sc' Capitals to Small Capitals lookup 0 subtable" Pi.c2sc
Position2: "'cpsp' Capital Spacing lookup 0 subtable" dx=36 dy=0 dh=72 dv=0
EndChar

StartChar: Sigma
Encoding: 931 931 182
Width: 1161
Flags: W
LayerCount: 2
Back
Fore
SplineSet
829 727 m 1,0,-1
 479 241 l 1,1,-1
 1105 241 l 1,2,-1
 1105 0 l 1,3,-1
 72 0 l 1,4,-1
 72 151 l 1,5,-1
 511 735 l 1,6,-1
 72 1305 l 1,7,-1
 72 1456 l 1,8,-1
 1081 1456 l 1,9,-1
 1081 1213 l 1,10,-1
 484 1213 l 1,11,-1
 829 742 l 1,12,-1
 829 727 l 1,0,-1
EndSplineSet
Substitution2: "'c2sc' Capitals to Small Capitals lookup 0 subtable" Sigma.c2sc
Position2: "'cpsp' Capital Spacing lookup 0 subtable" dx=36 dy=0 dh=72 dv=0
EndChar

StartChar: Phi
Encoding: 934 934 183
Width: 1576
Flags: W
LayerCount: 2
Back
Fore
SplineSet
945 1287 m 1,0,1
 1112 1282 1112 1282 1242.5 1209 c 128,-1,2
 1373 1136 1373 1136 1443.5 1009 c 128,-1,3
 1514 882 1514 882 1514 719 c 0,4,5
 1514 561 1514 561 1443 436 c 128,-1,6
 1372 311 1372 311 1242 240 c 128,-1,7
 1112 169 1112 169 945 164 c 1,8,-1
 945 0 l 1,9,-1
 645 0 l 1,10,-1
 645 164 l 1,11,12
 478 169 478 169 347 239 c 128,-1,13
 216 309 216 309 144.5 433.5 c 128,-1,14
 73 558 73 558 73 717 c 0,15,16
 73 882 73 882 145 1010.5 c 128,-1,17
 217 1139 217 1139 347.5 1210.5 c 128,-1,18
 478 1282 478 1282 645 1287 c 1,19,-1
 645 1456 l 1,20,-1
 945 1456 l 1,21,-1
 945 1287 l 1,0,1
368 717 m 0,22,23
 368 584 368 584 441.5 507.5 c 128,-1,24
 515 431 515 431 645 425 c 1,25,-1
 645 1026 l 1,26,27
 517 1020 517 1020 442.5 939.5 c 128,-1,28
 368 859 368 859 368 717 c 0,22,23
1219 719 m 0,29,30
 1219 859 1219 859 1146 939.5 c 128,-1,31
 1073 1020 1073 1020 945 1026 c 1,32,-1
 945 425 l 1,33,34
 1074 431 1074 431 1146.5 508.5 c 128,-1,35
 1219 586 1219 586 1219 719 c 0,29,30
EndSplineSet
Substitution2: "'c2sc' Capitals to Small Capitals lookup 0 subtable" Phi.c2sc
Position2: "'cpsp' Capital Spacing lookup 0 subtable" dx=36 dy=0 dh=72 dv=0
EndChar

StartChar: Psi
Encoding: 936 936 184
Width: 1488
Flags: W
LayerCount: 2
Back
Fore
SplineSet
897 634 m 1,0,1
 1015 656 1015 656 1072.5 744 c 128,-1,2
 1130 832 1130 832 1130 993 c 2,3,-1
 1130 1456 l 1,4,-1
 1432 1456 l 1,5,-1
 1432 984 l 2,6,7
 1429 717 1429 717 1274 558 c 0,8,9
 1134 416 1134 416 897 390 c 1,10,-1
 897 0 l 1,11,-1
 597 0 l 1,12,-1
 597 389 l 1,13,14
 346 409 346 409 199.5 567 c 128,-1,15
 53 725 53 725 52 990 c 2,16,-1
 52 1456 l 1,17,-1
 352 1456 l 1,18,-1
 352 993 l 2,19,20
 352 836 352 836 416.5 747.5 c 128,-1,21
 481 659 481 659 597 636 c 1,22,-1
 597 1456 l 1,23,-1
 897 1456 l 1,24,-1
 897 634 l 1,0,1
EndSplineSet
Substitution2: "'c2sc' Capitals to Small Capitals lookup 0 subtable" Psi.c2sc
Position2: "'cpsp' Capital Spacing lookup 0 subtable" dx=36 dy=0 dh=72 dv=0
EndChar

StartChar: Omega
Encoding: 8486 8486 185
AltUni2: 0003a9.ffffffff.0
Width: 1376
GlyphClass: 2
Flags: W
LayerCount: 2
Back
Fore
SplineSet
735 248 m 1,0,1
 909 323 909 323 921 716 c 1,2,-1
 922 862 l 2,3,4
 922 1045 922 1045 858 1137.5 c 128,-1,5
 794 1230 794 1230 679 1230 c 0,6,7
 566 1230 566 1230 501.5 1137.5 c 128,-1,8
 437 1045 437 1045 437 862 c 2,9,-1
 437 775 l 2,10,11
 437 550 437 550 486 417.5 c 128,-1,12
 535 285 535 285 631 248 c 1,13,-1
 631 0 l 1,14,-1
 119 0 l 1,15,-1
 119 244 l 1,16,-1
 336 244 l 1,17,18
 227 342 227 342 165 481.5 c 128,-1,19
 103 621 103 621 102 771 c 2,20,-1
 102 860 l 2,21,22
 102 1037 102 1037 175 1178 c 128,-1,23
 248 1319 248 1319 380 1397 c 128,-1,24
 512 1475 512 1475 679 1475 c 0,25,26
 844 1475 844 1475 975.5 1398.5 c 128,-1,27
 1107 1322 1107 1322 1180.5 1184.5 c 128,-1,28
 1254 1047 1254 1047 1257 875 c 2,29,-1
 1257 775 l 2,30,31
 1257 620 1257 620 1194 480.5 c 128,-1,32
 1131 341 1131 341 1023 244 c 1,33,-1
 1239 244 l 1,34,-1
 1239 0 l 1,35,-1
 735 0 l 1,36,-1
 735 248 l 1,0,1
EndSplineSet
Substitution2: "'c2sc' Capitals to Small Capitals lookup 0 subtable" Omega.c2sc
Position2: "'cpsp' Capital Spacing lookup 0 subtable" dx=36 dy=0 dh=72 dv=0
EndChar

StartChar: alpha
Encoding: 945 945 186
Width: 1154
GlyphClass: 2
Flags: W
LayerCount: 2
Back
Fore
SplineSet
1031 1082 m 1,0,-1
 1031 335 l 2,1,2
 1034 217 1034 217 1102 217 c 0,3,4
 1116 217 1116 217 1124 221 c 1,5,-1
 1148 4 l 1,6,7
 1098 -21 1098 -21 1023 -21 c 0,8,9
 842 -21 842 -21 774 146 c 1,10,11
 676 -20 676 -20 495 -20 c 0,12,13
 310 -20 310 -20 197 111.5 c 128,-1,14
 84 243 84 243 74 472 c 1,15,-1
 73 533 l 1,16,17
 73 796 73 796 187 949 c 128,-1,18
 301 1102 301 1102 497 1102 c 0,19,20
 662 1102 662 1102 759 952 c 1,21,-1
 780 1082 l 1,22,-1
 1031 1082 l 1,0,-1
363 512 m 0,23,24
 363 212 363 212 568 212 c 0,25,26
 687 212 687 212 742 308 c 1,27,-1
 742 763 l 1,28,29
 687 868 687 868 570 868 c 0,30,31
 471 868 471 868 417 782 c 128,-1,32
 363 696 363 696 363 512 c 0,23,24
EndSplineSet
Substitution2: "'ss02' Style Set 2 lookup 11 subtable" alpha.ss02
EndChar

StartChar: beta
Encoding: 946 946 187
Width: 1232
Flags: W
LayerCount: 2
Back
Fore
SplineSet
626 1476 m 0,0,1
 842 1476 842 1476 968.5 1372 c 128,-1,2
 1095 1268 1095 1268 1095 1082 c 0,3,4
 1095 982 1095 982 1045 901 c 128,-1,5
 995 820 995 820 904 771 c 1,6,7
 1027 729 1027 729 1092.5 637 c 128,-1,8
 1158 545 1158 545 1158 414 c 0,9,10
 1158 209 1158 209 1039 94.5 c 128,-1,11
 920 -20 920 -20 712 -20 c 0,12,13
 554 -20 554 -20 431 56 c 1,14,-1
 431 -406 l 1,15,-1
 142 -406 l 1,16,-1
 142 1034 l 2,17,18
 142 1159 142 1159 205 1260.5 c 128,-1,19
 268 1362 268 1362 380 1419 c 128,-1,20
 492 1476 492 1476 626 1476 c 0,0,1
806 1060 m 0,21,22
 806 1142 806 1142 756.5 1192 c 128,-1,23
 707 1242 707 1242 626 1242 c 0,24,25
 541 1242 541 1242 486 1185.5 c 128,-1,26
 431 1129 431 1129 431 1030 c 2,27,-1
 431 271 l 1,28,29
 513 213 513 213 647 213 c 0,30,31
 749 213 749 213 809 270.5 c 128,-1,32
 869 328 869 328 869 418 c 0,33,34
 869 526 869 526 814.5 586.5 c 128,-1,35
 760 647 760 647 654 647 c 2,36,-1
 557 647 l 1,37,-1
 557 858 l 1,38,-1
 635 858 l 1,39,40
 806 864 806 864 806 1060 c 0,21,22
EndSplineSet
EndChar

StartChar: gamma
Encoding: 947 947 188
Width: 1045
Flags: W
LayerCount: 2
Back
Fore
SplineSet
527 341 m 1,0,-1
 728 1082 l 1,1,-1
 1030 1082 l 1,2,-1
 667 14 l 1,3,-1
 667 -417 l 1,4,-1
 378 -417 l 1,5,-1
 378 23 l 1,6,-1
 17 1082 l 1,7,-1
 319 1082 l 1,8,-1
 527 341 l 1,0,-1
EndSplineSet
EndChar

StartChar: delta
Encoding: 948 948 189
Width: 1156
Flags: W
LayerCount: 2
Back
Fore
SplineSet
192 1249 m 0,0,1
 192 1402 192 1402 302.5 1487 c 128,-1,2
 413 1572 413 1572 603 1572 c 0,3,4
 704 1572 704 1572 796 1547 c 2,5,-1
 864 1527 l 1,6,-1
 864 1305 l 1,7,8
 715 1352 715 1352 628 1352 c 0,9,10
 553 1352 553 1352 510 1326.5 c 128,-1,11
 467 1301 467 1301 467 1256 c 0,12,13
 467 1176 467 1176 626 1120 c 128,-1,14
 785 1064 785 1064 890.5 980 c 128,-1,15
 996 896 996 896 1046 789 c 128,-1,16
 1096 682 1096 682 1096 524 c 0,17,18
 1096 281 1096 281 955.5 130.5 c 128,-1,19
 815 -20 815 -20 584 -20 c 0,20,21
 351 -20 351 -20 209.5 125.5 c 128,-1,22
 68 271 68 271 68 519 c 2,23,-1
 68 530 l 2,24,25
 68 688 68 688 157.5 814 c 128,-1,26
 247 940 247 940 383 975 c 1,27,-1
 380 981 l 1,28,29
 192 1078 192 1078 192 1249 c 0,0,1
357 537 m 0,30,31
 357 384 357 384 418 298 c 128,-1,32
 479 212 479 212 584 212 c 0,33,34
 687 212 687 212 747 298 c 128,-1,35
 807 384 807 384 807 557 c 0,36,37
 807 668 807 668 744 760 c 128,-1,38
 681 852 681 852 584 873 c 1,39,40
 480 873 480 873 418.5 787.5 c 128,-1,41
 357 702 357 702 357 537 c 0,30,31
EndSplineSet
EndChar

StartChar: epsilon
Encoding: 949 949 190
Width: 1139
GlyphClass: 2
Flags: W
LayerCount: 2
Back
Fore
SplineSet
95 306 m 0,0,1
 95 490 95 490 299 557 c 1,2,3
 212 593 212 593 163 653.5 c 128,-1,4
 114 714 114 714 114 786 c 0,5,6
 114 933 114 933 243.5 1017 c 128,-1,7
 373 1101 373 1101 597 1101 c 0,8,9
 798 1101 798 1101 926 1008 c 128,-1,10
 1054 915 1054 915 1054 770 c 1,11,-1
 765 770 l 1,12,13
 765 821 765 821 714.5 852 c 128,-1,14
 664 883 664 883 582 883 c 0,15,16
 501 883 501 883 452 850 c 128,-1,17
 403 817 403 817 403 763 c 0,18,19
 403 711 403 711 448 680 c 128,-1,20
 493 649 493 649 583 649 c 2,21,-1
 770 649 l 1,22,-1
 770 456 l 1,23,-1
 579 456 l 2,24,25
 383 455 383 455 383 327 c 0,26,27
 383 272 383 272 437.5 234.5 c 128,-1,28
 492 197 492 197 581 197 c 0,29,30
 673 197 673 197 727.5 232 c 128,-1,31
 782 267 782 267 782 320 c 1,32,-1
 1071 320 l 1,33,34
 1071 166 1071 166 938 73 c 128,-1,35
 805 -20 805 -20 597 -20 c 0,36,37
 374 -20 374 -20 234.5 69.5 c 128,-1,38
 95 159 95 159 95 306 c 0,0,1
EndSplineSet
EndChar

StartChar: zeta
Encoding: 950 950 191
Width: 1026
Flags: W
LayerCount: 2
Back
Fore
SplineSet
968 1456 m 1,0,-1
 968 1291 l 1,1,-1
 609 862 l 1,2,3
 492 729 492 729 449 634.5 c 128,-1,4
 406 540 406 540 406 426 c 0,5,6
 406 344 406 344 442 300.5 c 128,-1,7
 478 257 478 257 587 226 c 128,-1,8
 696 195 696 195 749 176 c 0,9,10
 852 140 852 140 894.5 86.5 c 128,-1,11
 937 33 937 33 937 -50 c 0,12,13
 937 -125 937 -125 870 -222.5 c 128,-1,14
 803 -320 803 -320 705 -389 c 1,15,-1
 558 -277 l 1,16,17
 654 -176 654 -176 650 -109 c 1,18,19
 654 -46 654 -46 561 -18 c 1,20,-1
 471 5 l 2,21,22
 286 52 286 52 202.5 142 c 128,-1,23
 119 232 119 232 119 382 c 0,24,25
 119 535 119 535 181.5 672.5 c 128,-1,26
 244 810 244 810 391 984 c 2,27,-1
 594 1224 l 1,28,-1
 76 1224 l 1,29,-1
 76 1456 l 1,30,-1
 968 1456 l 1,0,-1
EndSplineSet
EndChar

StartChar: eta
Encoding: 951 951 192
Width: 1156
GlyphClass: 2
Flags: W
LayerCount: 2
Back
Fore
SplineSet
377 1082 m 1,0,-1
 388 949 l 1,1,2
 507 1102 507 1102 699 1102 c 0,3,4
 1039 1102 1039 1102 1047 713 c 1,5,-1
 1047 -415 l 1,6,-1
 757 -415 l 1,7,-1
 757 700 l 2,8,9
 754 868 754 868 593 868 c 0,10,11
 466 868 466 868 397 775 c 1,12,-1
 397 0 l 1,13,-1
 108 0 l 1,14,-1
 108 1082 l 1,15,-1
 377 1082 l 1,0,-1
EndSplineSet
EndChar

StartChar: theta
Encoding: 952 952 193
Width: 1208
Flags: W
LayerCount: 2
Back
Fore
SplineSet
1095 608 m 2,0,1
 1095 307 1095 307 968 143.5 c 128,-1,2
 841 -20 841 -20 605 -20 c 0,3,4
 372 -20 372 -20 244 139 c 128,-1,5
 116 298 116 298 112 591 c 1,6,-1
 112 850 l 2,7,8
 112 1152 112 1152 239.5 1314 c 128,-1,9
 367 1476 367 1476 603 1476 c 0,10,11
 834 1476 834 1476 962.5 1319.5 c 128,-1,12
 1091 1163 1091 1163 1095 868 c 1,13,-1
 1095 608 l 2,0,1
806 620 m 1,14,-1
 401 620 l 1,15,-1
 401 569 l 2,16,17
 401 213 401 213 605 213 c 0,18,19
 792 213 792 213 805 517 c 1,20,-1
 806 620 l 1,14,-1
401 843 m 1,21,-1
 806 843 l 1,22,-1
 806 891 l 2,23,24
 806 1069 806 1069 755.5 1155.5 c 128,-1,25
 705 1242 705 1242 603 1242 c 0,26,27
 415 1242 415 1242 402 941 c 1,28,-1
 401 843 l 1,21,-1
EndSplineSet
EndChar

StartChar: iota
Encoding: 953 953 194
Width: 690
GlyphClass: 2
Flags: W
LayerCount: 2
Back
Fore
SplineSet
428 1082 m 1,0,-1
 427 338 l 2,1,2
 427 278 427 278 450.5 252 c 128,-1,3
 474 226 474 226 539 226 c 0,4,5
 583 226 583 226 623 234 c 1,6,-1
 623 15 l 1,7,8
 545 -11 545 -11 448 -11 c 0,9,10
 143 -11 143 -11 138 298 c 1,11,-1
 138 1082 l 1,12,-1
 428 1082 l 1,0,-1
EndSplineSet
EndChar

StartChar: lambda
Encoding: 955 955 195
Width: 1123
Flags: W
LayerCount: 2
Back
Fore
SplineSet
286 1546 m 0,0,1
 484 1546 484 1546 553 1383 c 2,2,-1
 975 324 l 1,3,-1
 991 289 l 2,4,5
 1025 217 1025 217 1077 216 c 2,6,-1
 1097 216 l 1,7,-1
 1113 217 l 1,8,-1
 1115 -11 l 1,9,10
 1074 -18 1074 -18 1005 -18 c 0,11,12
 894 -18 894 -18 823.5 31.5 c 128,-1,13
 753 81 753 81 711 194 c 2,14,-1
 540 663 l 1,15,-1
 319 0 l 1,16,-1
 7 0 l 1,17,-1
 390 1057 l 1,18,-1
 318 1222 l 2,19,20
 298 1272 298 1272 267 1292 c 128,-1,21
 236 1312 236 1312 189 1312 c 2,22,-1
 131 1309 l 1,23,-1
 125 1524 l 1,24,25
 195 1546 195 1546 286 1546 c 0,0,1
EndSplineSet
EndChar

StartChar: xi
Encoding: 958 958 196
Width: 1085
Flags: W
LayerCount: 2
Back
Fore
SplineSet
922 1200 m 1,0,1
 831 1224 831 1224 789 1230.5 c 128,-1,2
 747 1237 747 1237 697 1237 c 0,3,4
 582 1237 582 1237 529.5 1198.5 c 128,-1,5
 477 1160 477 1160 477 1097 c 0,6,7
 477 949 477 949 713 949 c 2,8,-1
 856 949 l 1,9,-1
 856 708 l 1,10,-1
 717 708 l 2,11,12
 392 708 392 708 392 458 c 0,13,14
 392 283 392 283 634 226 c 2,15,-1
 782 190 l 1,16,-1
 858 165 l 1,17,18
 1025 101 1025 101 1022 -54 c 0,19,20
 1022 -132 1022 -132 953.5 -229.5 c 128,-1,21
 885 -327 885 -327 791 -393 c 1,22,-1
 641 -281 l 1,23,24
 736 -182 736 -182 736 -112 c 0,25,26
 736 -46 736 -46 619 -14 c 2,27,-1
 560 2 l 2,28,29
 452 35 452 35 367 66.5 c 128,-1,30
 282 98 282 98 223.5 145.5 c 128,-1,31
 165 193 165 193 134 264.5 c 128,-1,32
 103 336 103 336 103 448 c 0,33,34
 103 590 103 590 180.5 685 c 128,-1,35
 258 780 258 780 403 827 c 1,36,37
 188 905 188 905 188 1092 c 0,38,39
 188 1271 188 1271 317.5 1373.5 c 128,-1,40
 447 1476 447 1476 665 1476 c 0,41,42
 757 1476 757 1476 821 1465.5 c 128,-1,43
 885 1455 885 1455 967 1426 c 1,44,-1
 922 1200 l 1,0,1
EndSplineSet
EndChar

StartChar: pi
Encoding: 960 960 197
Width: 1318
Flags: W
LayerCount: 2
Back
Fore
SplineSet
1254 861 m 1,0,-1
 1083 861 l 1,1,-1
 1083 338 l 2,2,3
 1083 279 1083 279 1105.5 252.5 c 128,-1,4
 1128 226 1128 226 1194 226 c 0,5,6
 1238 226 1238 226 1278 234 c 1,7,-1
 1278 15 l 1,8,9
 1200 -11 1200 -11 1104 -11 c 0,10,11
 800 -11 800 -11 794 296 c 1,12,-1
 794 861 l 1,13,-1
 518 861 l 1,14,-1
 518 0 l 1,15,-1
 229 0 l 1,16,-1
 229 861 l 1,17,-1
 52 861 l 1,18,-1
 52 1082 l 1,19,-1
 1254 1082 l 1,20,-1
 1254 861 l 1,0,-1
EndSplineSet
EndChar

StartChar: rho
Encoding: 961 961 198
Width: 1156
GlyphClass: 2
Flags: W
LayerCount: 2
Back
Fore
SplineSet
606 1102 m 0,0,1
 830 1102 830 1102 958 949 c 128,-1,2
 1086 796 1086 796 1086 525 c 2,3,-1
 1086 512 l 2,4,5
 1086 264 1086 264 972.5 122 c 128,-1,6
 859 -20 859 -20 667 -20 c 0,7,8
 504 -20 504 -20 402 101 c 1,9,-1
 402 -416 l 1,10,-1
 113 -416 l 1,11,-1
 113 568 l 2,12,13
 113 812 113 812 248 957 c 128,-1,14
 383 1102 383 1102 606 1102 c 0,0,1
402 304 m 1,15,16
 458 212 458 212 591 212 c 0,17,18
 691 212 691 212 744 287.5 c 128,-1,19
 797 363 797 363 797 533 c 0,20,21
 797 695 797 695 743.5 781.5 c 128,-1,22
 690 868 690 868 592 868 c 0,23,24
 503 868 503 868 452.5 785.5 c 128,-1,25
 402 703 402 703 402 545 c 2,26,-1
 402 304 l 1,15,16
EndSplineSet
EndChar

StartChar: sigma1
Encoding: 962 962 199
Width: 1054
Flags: W
LayerCount: 2
Back
Fore
SplineSet
563 1102 m 0,0,1
 766 1102 766 1102 886 987 c 128,-1,2
 1006 872 1006 872 1006 679 c 1,3,-1
 734 679 l 1,4,5
 734 765 734 765 688.5 816.5 c 128,-1,6
 643 868 643 868 563 868 c 0,7,8
 463 868 463 868 408.5 790 c 128,-1,9
 354 712 354 712 353 557 c 2,10,-1
 353 526 l 2,11,12
 353 402 353 402 410 334.5 c 128,-1,13
 467 267 467 267 604.5 228.5 c 128,-1,14
 742 190 742 190 797 159.5 c 128,-1,15
 852 129 852 129 880.5 83 c 128,-1,16
 909 37 909 37 911 -34 c 0,17,18
 911 -113 911 -113 842.5 -212 c 128,-1,19
 774 -311 774 -311 684 -374 c 1,20,-1
 533 -260 l 1,21,22
 627 -162 627 -162 625 -92 c 0,23,24
 625 -20 625 -20 519 4 c 0,25,26
 282 66 282 66 174 188 c 128,-1,27
 66 310 66 310 63 513 c 2,28,-1
 63 554 l 2,29,30
 63 715 63 715 123.5 840.5 c 128,-1,31
 184 966 184 966 297.5 1034 c 128,-1,32
 411 1102 411 1102 563 1102 c 0,0,1
EndSplineSet
EndChar

StartChar: sigma
Encoding: 963 963 200
Width: 1172
Flags: W
LayerCount: 2
Back
Fore
SplineSet
1150 848 m 1,0,-1
 896 848 l 1,1,2
 1071 706 1071 706 1071 489 c 0,3,4
 1071 261 1071 261 936 120.5 c 128,-1,5
 801 -20 801 -20 577 -20 c 0,6,7
 345 -20 345 -20 205.5 129 c 128,-1,8
 66 278 66 278 66 538 c 2,9,-1
 66 551 l 2,10,11
 66 790 66 790 203.5 936 c 128,-1,12
 341 1082 341 1082 579 1082 c 2,13,-1
 1150 1082 l 1,14,-1
 1150 848 l 1,0,-1
355 530 m 0,15,16
 355 374 355 374 412.5 293 c 128,-1,17
 470 212 470 212 577 212 c 0,18,19
 675 212 675 212 728.5 293 c 128,-1,20
 782 374 782 374 782 551 c 0,21,22
 782 693 782 693 728 770.5 c 128,-1,23
 674 848 674 848 575 848 c 0,24,25
 471 848 471 848 413 772 c 128,-1,26
 355 696 355 696 355 530 c 0,15,16
EndSplineSet
EndChar

StartChar: tau
Encoding: 964 964 201
Width: 1066
Flags: W
LayerCount: 2
Back
Fore
SplineSet
1021 850 m 1,0,-1
 665 850 l 1,1,-1
 665 328 l 2,2,3
 665 269 665 269 686 242 c 128,-1,4
 707 215 707 215 756 215 c 0,5,6
 803 215 803 215 854 232 c 1,7,-1
 884 12 l 1,8,9
 799 -20 799 -20 697 -20 c 0,10,11
 547 -20 547 -20 462 64.5 c 128,-1,12
 377 149 377 149 376 327 c 2,13,-1
 376 850 l 1,14,-1
 44 850 l 1,15,-1
 44 1082 l 1,16,-1
 1021 1082 l 1,17,-1
 1021 850 l 1,0,-1
EndSplineSet
EndChar

StartChar: upsilon
Encoding: 965 965 202
Width: 1118
GlyphClass: 2
Flags: W
LayerCount: 2
Back
Fore
SplineSet
403 1082 m 1,0,-1
 403 420 l 2,1,2
 403 212 403 212 529 212 c 0,3,4
 625 212 625 212 688.5 314.5 c 128,-1,5
 752 417 752 417 752 566 c 0,6,7
 748 802 748 802 650 1082 c 1,8,-1
 926 1082 l 1,9,10
 1040 854 1040 854 1040 566 c 0,11,12
 1040 292 1040 292 910 135.5 c 128,-1,13
 780 -21 780 -21 539 -21 c 0,14,15
 331 -21 331 -21 223 90.5 c 128,-1,16
 115 202 115 202 113 409 c 2,17,-1
 113 1082 l 1,18,-1
 403 1082 l 1,0,-1
EndSplineSet
EndChar

StartChar: phi
Encoding: 966 966 203
Width: 1527
Flags: W
LayerCount: 2
Back
Fore
SplineSet
610 -12 m 1,0,1
 342 21 342 21 198 178.5 c 128,-1,2
 54 336 54 336 54 595 c 0,3,4
 54 749 54 749 114 880.5 c 128,-1,5
 174 1012 174 1012 279 1096 c 1,6,-1
 477 942 l 1,7,8
 414 873 414 873 379.5 782 c 128,-1,9
 345 691 345 691 343 595 c 0,10,11
 343 287 343 287 610 227 c 1,12,-1
 610 799 l 2,13,14
 610 928 610 928 697.5 1012.5 c 128,-1,15
 785 1097 785 1097 915 1097 c 0,16,17
 1070 1097 1070 1097 1192 1031.5 c 128,-1,18
 1314 966 1314 966 1387 838.5 c 128,-1,19
 1460 711 1460 711 1460 559 c 0,20,21
 1460 314 1460 314 1313.5 164.5 c 128,-1,22
 1167 15 1167 15 899 -14 c 1,23,-1
 899 -478 l 1,24,-1
 610 -478 l 1,25,-1
 610 -12 l 1,0,1
899 224 m 1,26,27
 1029 249 1029 249 1100 333 c 128,-1,28
 1171 417 1171 417 1171 559 c 0,29,30
 1169 698 1169 698 1110 781 c 128,-1,31
 1051 864 1051 864 950 864 c 0,32,33
 899 864 899 864 899 812 c 2,34,-1
 899 224 l 1,26,27
EndSplineSet
EndChar

StartChar: psi
Encoding: 968 968 204
Width: 1524
GlyphClass: 2
Flags: W
LayerCount: 2
Back
Fore
SplineSet
896 1082 m 1,0,-1
 896 226 l 1,1,2
 1168 283 1168 283 1168 595 c 0,3,4
 1165 808 1165 808 1060 1082 c 1,5,-1
 1328 1082 l 1,6,7
 1457 864 1457 864 1457 595 c 0,8,9
 1457 329 1457 329 1311.5 172.5 c 128,-1,10
 1166 16 1166 16 896 -13 c 1,11,-1
 896 -478 l 1,12,-1
 607 -478 l 1,13,-1
 607 -12 l 1,14,15
 346 20 346 20 208.5 168.5 c 128,-1,16
 71 317 71 317 68 577 c 2,17,-1
 68 1082 l 1,18,-1
 358 1082 l 1,19,-1
 358 588 l 2,20,21
 358 287 358 287 607 228 c 1,22,-1
 607 1082 l 1,23,-1
 896 1082 l 1,0,-1
EndSplineSet
EndChar

StartChar: omega
Encoding: 969 969 205
Width: 1681
GlyphClass: 2
Flags: W
LayerCount: 2
Back
Fore
SplineSet
508 1082 m 1,0,1
 380 812 380 812 373 566 c 1,2,3
 373 393 373 393 414.5 302.5 c 128,-1,4
 456 212 456 212 530 212 c 0,5,6
 690 212 690 212 690 501 c 2,7,-1
 690 844 l 1,8,-1
 995 844 l 1,9,-1
 995 501 l 2,10,11
 995 212 995 212 1155 212 c 0,12,13
 1231 212 1231 212 1271.5 305.5 c 128,-1,14
 1312 399 1312 399 1312 566 c 1,15,16
 1305 814 1305 814 1176 1082 c 1,17,-1
 1452 1082 l 1,18,19
 1601 854 1601 854 1601 566 c 0,20,21
 1601 274 1601 274 1490 127 c 128,-1,22
 1379 -20 1379 -20 1165 -20 c 0,23,24
 1055 -20 1055 -20 972.5 34 c 128,-1,25
 890 88 890 88 842 192 c 1,26,27
 793 88 793 88 711 34 c 128,-1,28
 629 -20 629 -20 520 -20 c 0,29,30
 305 -20 305 -20 194 127.5 c 128,-1,31
 83 275 83 275 83 566 c 0,32,33
 83 854 83 854 232 1082 c 1,34,-1
 508 1082 l 1,0,1
EndSplineSet
EndChar

StartChar: theta1
Encoding: 977 977 206
Width: 1219
Flags: W
LayerCount: 2
Back
Fore
SplineSet
1209 577 m 1,0,1
 1161 561 1161 561 1096 549 c 1,2,-1
 1096 465 l 2,3,4
 1096 241 1096 241 960 110.5 c 128,-1,5
 824 -20 824 -20 603 -20 c 0,6,7
 387 -20 387 -20 252 114.5 c 128,-1,8
 117 249 117 249 117 466 c 2,9,-1
 117 703 l 1,10,-1
 392 704 l 1,11,-1
 392 462 l 2,12,13
 392 353 392 353 453 287.5 c 128,-1,14
 514 222 514 222 617 222 c 0,15,16
 700 222 700 222 746 284.5 c 128,-1,17
 792 347 792 347 792 458 c 2,18,-1
 792 547 l 1,19,20
 589 590 589 590 466.5 724.5 c 128,-1,21
 344 859 344 859 340 1042 c 1,22,-1
 340 1076 l 2,23,24
 340 1260 340 1260 447 1368 c 128,-1,25
 554 1476 554 1476 726 1476 c 128,-1,26
 898 1476 898 1476 996 1365.5 c 128,-1,27
 1094 1255 1094 1255 1096 1063 c 2,28,-1
 1096 801 l 1,29,-1
 1198 821 l 1,30,-1
 1209 577 l 1,0,1
615 1066 m 2,31,32
 615 979 615 979 660 912 c 128,-1,33
 705 845 705 845 792 813 c 1,34,-1
 792 1095 l 2,35,36
 790 1219 790 1219 711 1219 c 0,37,38
 615 1219 615 1219 615 1084 c 2,39,-1
 615 1066 l 2,31,32
EndSplineSet
EndChar

StartChar: Upsilon1
Encoding: 978 978 207
Width: 1210
GlyphClass: 2
Flags: W
LayerCount: 2
Back
Fore
SplineSet
606 767 m 1,0,-1
 788 1238 l 2,1,2
 837 1368 837 1368 911 1425 c 128,-1,3
 985 1482 985 1482 1092 1482 c 0,4,5
 1165 1482 1165 1482 1238 1457 c 1,6,-1
 1200 1226 l 1,7,-1
 1143 1231 l 1,8,9
 1075 1231 1075 1231 1044 1160 c 2,10,-1
 755 488 l 1,11,-1
 755 0 l 1,12,-1
 453 0 l 1,13,-1
 453 488 l 1,14,-1
 167 1160 l 2,15,16
 137 1231 137 1231 67 1231 c 1,17,-1
 10 1226 l 1,18,-1
 -25 1457 l 1,19,20
 50 1482 50 1482 119 1482 c 0,21,22
 232 1482 232 1482 303 1428.5 c 128,-1,23
 374 1375 374 1375 420 1259 c 2,24,-1
 606 767 l 1,0,-1
EndSplineSet
EndChar

StartChar: omega1
Encoding: 982 982 208
Width: 1694
GlyphClass: 2
Flags: W
LayerCount: 2
Back
Fore
SplineSet
1685 876 m 1,0,-1
 1559 876 l 1,1,2
 1609 728 1609 728 1609 566 c 0,3,4
 1609 273 1609 273 1501.5 126.5 c 128,-1,5
 1394 -20 1394 -20 1186 -20 c 0,6,7
 1071 -20 1071 -20 984.5 35 c 128,-1,8
 898 90 898 90 848 197 c 1,9,10
 797 90 797 90 711 35 c 128,-1,11
 625 -20 625 -20 510 -20 c 0,12,13
 301 -20 301 -20 193.5 128 c 128,-1,14
 86 276 86 276 86 566 c 0,15,16
 86 728 86 728 136 876 c 1,17,-1
 20 876 l 1,18,-1
 20 1082 l 1,19,-1
 1685 1082 l 1,20,-1
 1685 876 l 1,0,-1
1321 566 m 1,21,22
 1317 712 1317 712 1266 876 c 1,23,-1
 429 876 l 1,24,25
 379 715 379 715 375 566 c 1,26,27
 375 394 375 394 413 303 c 128,-1,28
 451 212 451 212 521 212 c 0,29,30
 696 212 696 212 696 501 c 2,31,-1
 696 693 l 1,32,-1
 1000 693 l 1,33,-1
 1000 501 l 2,34,35
 1000 212 1000 212 1175 212 c 0,36,37
 1245 212 1245 212 1283 303 c 128,-1,38
 1321 394 1321 394 1321 566 c 1,21,22
EndSplineSet
EndChar

StartChar: uni0402
Encoding: 1026 1026 209
Width: 1531
Flags: W
LayerCount: 2
Back
Fore
SplineSet
1165 1213 m 1,0,-1
 692 1213 l 1,1,-1
 692 864 l 1,2,3
 825 895 825 895 935 895 c 0,4,5
 1194 895 1194 895 1334.5 776.5 c 128,-1,6
 1475 658 1475 658 1475 443 c 0,7,8
 1475 345 1475 345 1439.5 257 c 128,-1,9
 1404 169 1404 169 1328 106 c 0,10,11
 1181 -17 1181 -17 919 -17 c 1,12,-1
 919 210 l 1,13,14
 1175 210 1175 210 1175 425 c 0,15,16
 1175 527 1175 527 1109 589 c 128,-1,17
 1043 651 1043 651 920 651 c 0,18,19
 803 651 803 651 692 628 c 1,20,-1
 692 0 l 1,21,-1
 391 0 l 1,22,-1
 391 1213 l 1,23,-1
 29 1213 l 1,24,-1
 29 1456 l 1,25,-1
 1165 1456 l 1,26,-1
 1165 1213 l 1,0,-1
EndSplineSet
Substitution2: "'c2sc' Capitals to Small Capitals lookup 0 subtable" uni0402.c2sc
Position2: "'cpsp' Capital Spacing lookup 0 subtable" dx=36 dy=0 dh=72 dv=0
EndChar

StartChar: uni0404
Encoding: 1028 1028 210
Width: 1351
GlyphClass: 2
Flags: W
LayerCount: 2
Back
Fore
SplineSet
1275 484 m 1,0,1
 1258 253 1258 253 1102.5 116.5 c 128,-1,2
 947 -20 947 -20 689 -20 c 0,3,4
 412 -20 412 -20 251 165 c 128,-1,5
 90 350 90 350 87 669 c 2,6,-1
 87 773 l 2,7,8
 87 986 87 986 161 1145.5 c 128,-1,9
 235 1305 235 1305 372.5 1390.5 c 128,-1,10
 510 1476 510 1476 692 1476 c 0,11,12
 945 1476 945 1476 1098.5 1340.5 c 128,-1,13
 1252 1205 1252 1205 1276 961 c 1,14,-1
 976 961 l 1,15,16
 965 1102 965 1102 897.5 1167.5 c 128,-1,17
 830 1233 830 1233 692 1233 c 0,18,19
 552 1233 552 1233 476.5 1139 c 128,-1,20
 401 1045 401 1045 389 850 c 1,21,-1
 836 850 l 1,22,-1
 836 608 l 1,23,-1
 389 608 l 1,24,25
 399 417 399 417 469.5 318.5 c 128,-1,26
 540 220 540 220 689 220 c 0,27,28
 824 220 824 220 894 284.5 c 128,-1,29
 964 349 964 349 974 484 c 1,30,-1
 1275 484 l 1,0,1
EndSplineSet
Substitution2: "'c2sc' Capitals to Small Capitals lookup 0 subtable" uni0404.c2sc
Position2: "'cpsp' Capital Spacing lookup 0 subtable" dx=36 dy=0 dh=72 dv=0
EndChar

StartChar: uni0409
Encoding: 1033 1033 211
Width: 2166
Flags: W
LayerCount: 2
Back
Fore
SplineSet
1314 961 m 1,0,-1
 1555 961 l 2,1,2
 1717 961 1717 961 1843 900.5 c 128,-1,3
 1969 840 1969 840 2037.5 730 c 128,-1,4
 2106 620 2106 620 2106 481 c 0,5,6
 2106 267 2106 267 1954.5 133.5 c 128,-1,7
 1803 0 1803 0 1546 0 c 2,8,-1
 1013 0 l 1,9,-1
 1013 1213 l 1,10,-1
 625 1213 l 1,11,-1
 601 699 l 2,12,13
 586 439 586 439 535 289.5 c 128,-1,14
 484 140 484 140 386 70.5 c 128,-1,15
 288 1 288 1 118 0 c 2,16,-1
 40 0 l 1,17,-1
 40 241 l 1,18,-1
 90 246 l 2,19,20
 203 261 203 261 251.5 376.5 c 128,-1,21
 300 492 300 492 313 788 c 2,22,-1
 338 1456 l 1,23,-1
 1314 1456 l 1,24,-1
 1314 961 l 1,0,-1
1314 719 m 1,25,-1
 1314 241 l 1,26,-1
 1553 241 l 2,27,28
 1668 241 1668 241 1736.5 308.5 c 128,-1,29
 1805 376 1805 376 1805 483 c 0,30,31
 1805 584 1805 584 1739.5 650 c 128,-1,32
 1674 716 1674 716 1563 719 c 2,33,-1
 1314 719 l 1,25,-1
EndSplineSet
Substitution2: "'c2sc' Capitals to Small Capitals lookup 0 subtable" uni0409.c2sc
Position2: "'cpsp' Capital Spacing lookup 0 subtable" dx=36 dy=0 dh=72 dv=0
EndChar

StartChar: uni040A
Encoding: 1034 1034 212
Width: 2168
Flags: W
LayerCount: 2
Back
Fore
SplineSet
432 842 m 1,0,-1
 1015 842 l 1,1,-1
 1015 1456 l 1,2,-1
 1315 1456 l 1,3,-1
 1315 952 l 1,4,-1
 1557 952 l 2,5,6
 1719 952 1719 952 1844 892.5 c 128,-1,7
 1969 833 1969 833 2037.5 724.5 c 128,-1,8
 2106 616 2106 616 2106 477 c 0,9,10
 2106 265 2106 265 1957.5 134 c 128,-1,11
 1809 3 1809 3 1565 0 c 2,12,-1
 1015 0 l 1,13,-1
 1015 601 l 1,14,-1
 432 601 l 1,15,-1
 432 0 l 1,16,-1
 132 0 l 1,17,-1
 132 1456 l 1,18,-1
 432 1456 l 1,19,-1
 432 842 l 1,0,-1
1315 710 m 1,20,-1
 1315 243 l 1,21,-1
 1555 243 l 2,22,23
 1669 243 1669 243 1738 308.5 c 128,-1,24
 1807 374 1807 374 1807 479 c 0,25,26
 1807 581 1807 581 1738.5 645.5 c 128,-1,27
 1670 710 1670 710 1554 710 c 2,28,-1
 1315 710 l 1,20,-1
EndSplineSet
Substitution2: "'c2sc' Capitals to Small Capitals lookup 0 subtable" uni040A.c2sc
Position2: "'cpsp' Capital Spacing lookup 0 subtable" dx=36 dy=0 dh=72 dv=0
EndChar

StartChar: uni040B
Encoding: 1035 1035 213
Width: 1580
Flags: W
LayerCount: 2
Back
Fore
SplineSet
1145 1213 m 1,0,-1
 678 1213 l 1,1,-1
 678 914 l 1,2,3
 806 932 806 932 895 932 c 0,4,5
 1172 932 1172 932 1315.5 811 c 128,-1,6
 1459 690 1459 690 1463 462 c 1,7,-1
 1463 0 l 1,8,-1
 1163 0 l 1,9,-1
 1163 451 l 2,10,11
 1163 580 1163 580 1102 635 c 128,-1,12
 1041 690 1041 690 895 690 c 0,13,14
 806 690 806 690 678 672 c 1,15,-1
 678 0 l 1,16,-1
 378 0 l 1,17,-1
 378 1213 l 1,18,-1
 33 1213 l 1,19,-1
 33 1456 l 1,20,-1
 1145 1456 l 1,21,-1
 1145 1213 l 1,0,-1
EndSplineSet
Substitution2: "'c2sc' Capitals to Small Capitals lookup 0 subtable" uni040B.c2sc
Position2: "'cpsp' Capital Spacing lookup 0 subtable" dx=36 dy=0 dh=72 dv=0
EndChar

StartChar: uni040F
Encoding: 1039 1039 214
Width: 1434
Flags: W
LayerCount: 2
Back
Fore
SplineSet
117 1456 m 1,0,-1
 417 1456 l 1,1,-1
 417 241 l 1,2,-1
 1000 241 l 1,3,-1
 1000 1456 l 1,4,-1
 1301 1456 l 1,5,-1
 1301 0 l 1,6,-1
 873 0 l 1,7,-1
 873 -360 l 1,8,-1
 571 -360 l 1,9,-1
 571 0 l 1,10,-1
 117 0 l 1,11,-1
 117 1456 l 1,0,-1
EndSplineSet
Substitution2: "'c2sc' Capitals to Small Capitals lookup 0 subtable" uni040F.c2sc
Position2: "'cpsp' Capital Spacing lookup 0 subtable" dx=36 dy=0 dh=72 dv=0
EndChar

StartChar: uni0411
Encoding: 1041 1041 215
Width: 1283
Flags: W
LayerCount: 2
Back
Fore
SplineSet
1080 1213 m 1,0,-1
 430 1213 l 1,1,-1
 430 931 l 1,2,-1
 664 931 l 2,3,4
 921 931 921 931 1071.5 806.5 c 128,-1,5
 1222 682 1222 682 1222 471 c 0,6,7
 1222 259 1222 259 1072.5 130.5 c 128,-1,8
 923 2 923 2 675 0 c 2,9,-1
 127 0 l 1,10,-1
 127 1456 l 1,11,-1
 1080 1456 l 1,12,-1
 1080 1213 l 1,0,-1
430 689 m 1,13,-1
 430 241 l 1,14,-1
 669 241 l 2,15,16
 784 241 784 241 852.5 304 c 128,-1,17
 921 367 921 367 921 473 c 0,18,19
 921 572 921 572 855.5 629.5 c 128,-1,20
 790 687 790 687 676 689 c 2,21,-1
 430 689 l 1,13,-1
EndSplineSet
Substitution2: "'c2sc' Capitals to Small Capitals lookup 0 subtable" uni0411.c2sc
Position2: "'cpsp' Capital Spacing lookup 0 subtable" dx=36 dy=0 dh=72 dv=0
EndChar

StartChar: uni0414
Encoding: 1044 1044 216
Width: 1531
Flags: W
LayerCount: 2
Back
Fore
SplineSet
1480 -358 m 1,0,-1
 1203 -358 l 1,1,-1
 1203 0 l 1,2,-1
 325 0 l 1,3,-1
 325 -357 l 1,4,-1
 41 -357 l 1,5,-1
 25 241 l 1,6,-1
 135 241 l 1,7,8
 224 315 224 315 272.5 458.5 c 128,-1,9
 321 602 321 602 338 814 c 2,10,-1
 380 1456 l 1,11,-1
 1334 1456 l 1,12,-1
 1334 241 l 1,13,-1
 1504 241 l 1,14,-1
 1480 -358 l 1,0,-1
479 241 m 1,15,-1
 1034 241 l 1,16,-1
 1034 1213 l 1,17,-1
 665 1213 l 1,18,-1
 640 830 l 1,19,20
 610 445 610 445 479 241 c 1,15,-1
EndSplineSet
Substitution2: "'c2sc' Capitals to Small Capitals lookup 0 subtable" uni0414.c2sc
Position2: "'cpsp' Capital Spacing lookup 0 subtable" dx=36 dy=0 dh=72 dv=0
EndChar

StartChar: uni0416
Encoding: 1046 1046 217
Width: 2043
GlyphClass: 2
Flags: W
LayerCount: 2
Back
Fore
SplineSet
1358 593 m 1,0,-1
 1185 593 l 1,1,-1
 1185 0 l 1,2,-1
 885 0 l 1,3,-1
 885 593 l 1,4,-1
 708 593 l 1,5,-1
 391 0 l 1,6,-1
 17 0 l 1,7,-1
 471 781 l 1,8,-1
 39 1456 l 1,9,-1
 412 1456 l 1,10,-1
 736 869 l 1,11,-1
 885 869 l 1,12,-1
 885 1456 l 1,13,-1
 1185 1456 l 1,14,-1
 1185 869 l 1,15,-1
 1331 869 l 1,16,-1
 1647 1456 l 1,17,-1
 2019 1456 l 1,18,-1
 1595 782 l 1,19,-1
 2042 0 l 1,20,-1
 1667 0 l 1,21,-1
 1358 593 l 1,0,-1
EndSplineSet
Substitution2: "'c2sc' Capitals to Small Capitals lookup 0 subtable" uni0416.c2sc
Position2: "'cpsp' Capital Spacing lookup 0 subtable" dx=36 dy=0 dh=72 dv=0
EndChar

StartChar: uni0417
Encoding: 1047 1047 218
Width: 1263
GlyphClass: 2
Flags: W
LayerCount: 2
Back
Fore
SplineSet
848 1055 m 0,0,1
 848 1138 848 1138 783 1185.5 c 128,-1,2
 718 1233 718 1233 611 1233 c 0,3,4
 515 1233 515 1233 451.5 1185.5 c 128,-1,5
 388 1138 388 1138 388 1062 c 1,6,-1
 88 1062 l 1,7,8
 88 1180 88 1180 154.5 1274.5 c 128,-1,9
 221 1369 221 1369 343.5 1422 c 128,-1,10
 466 1475 466 1475 611 1475 c 0,11,12
 863 1475 863 1475 1006 1367 c 128,-1,13
 1149 1259 1149 1259 1149 1061 c 0,14,15
 1149 964 1149 964 1090.5 881 c 128,-1,16
 1032 798 1032 798 924 748 c 1,17,18
 1044 706 1044 706 1108 620.5 c 128,-1,19
 1172 535 1172 535 1172 408 c 0,20,21
 1172 212 1172 212 1018.5 96.5 c 128,-1,22
 865 -19 865 -19 611 -19 c 0,23,24
 452 -19 452 -19 325 35.5 c 128,-1,25
 198 90 198 90 132.5 184.5 c 128,-1,26
 67 279 67 279 67 404 c 1,27,-1
 369 404 l 1,28,29
 369 326 369 326 437 273.5 c 128,-1,30
 505 221 505 221 611 221 c 0,31,32
 731 221 731 221 800.5 275 c 128,-1,33
 870 329 870 329 870 412 c 0,34,35
 870 526 870 526 808 575.5 c 128,-1,36
 746 625 746 625 627 625 c 2,37,-1
 448 625 l 1,38,-1
 448 860 l 1,39,-1
 633 860 l 2,40,41
 848 863 848 863 848 1055 c 0,0,1
EndSplineSet
Substitution2: "'c2sc' Capitals to Small Capitals lookup 0 subtable" uni0417.c2sc
Position2: "'cpsp' Capital Spacing lookup 0 subtable" dx=36 dy=0 dh=72 dv=0
EndChar

StartChar: uni0418
Encoding: 1048 1048 219
Width: 1434
GlyphClass: 2
Flags: W
LayerCount: 2
Back
Fore
SplineSet
1003 1456 m 1,0,-1
 1304 1456 l 1,1,-1
 1304 0 l 1,2,-1
 1003 0 l 1,3,-1
 1003 967 l 1,4,-1
 420 0 l 1,5,-1
 120 0 l 1,6,-1
 120 1456 l 1,7,-1
 420 1456 l 1,8,-1
 420 487 l 1,9,-1
 1003 1456 l 1,0,-1
EndSplineSet
Substitution2: "'c2sc' Capitals to Small Capitals lookup 0 subtable" uni0418.c2sc
Position2: "'cpsp' Capital Spacing lookup 0 subtable" dx=36 dy=0 dh=72 dv=0
EndChar

StartChar: uni041B
Encoding: 1051 1051 220
Width: 1446
GlyphClass: 2
Flags: W
LayerCount: 2
Back
Fore
SplineSet
1314 1456 m 1,0,-1
 1314 0 l 1,1,-1
 1013 0 l 1,2,-1
 1013 1213 l 1,3,-1
 625 1213 l 1,4,-1
 601 699 l 2,5,6
 586 439 586 439 535 289.5 c 128,-1,7
 484 140 484 140 386 70.5 c 128,-1,8
 288 1 288 1 118 0 c 2,9,-1
 40 0 l 1,10,-1
 40 241 l 1,11,-1
 90 246 l 2,12,13
 203 261 203 261 251.5 376.5 c 128,-1,14
 300 492 300 492 313 788 c 2,15,-1
 338 1456 l 1,16,-1
 1314 1456 l 1,0,-1
EndSplineSet
Substitution2: "'c2sc' Capitals to Small Capitals lookup 0 subtable" uni041B.c2sc
Position2: "'cpsp' Capital Spacing lookup 0 subtable" dx=36 dy=0 dh=72 dv=0
EndChar

StartChar: uni0423
Encoding: 1059 1059 221
Width: 1293
GlyphClass: 2
Flags: W
LayerCount: 2
Back
Fore
SplineSet
676 768 m 1,0,-1
 941 1456 l 1,1,-1
 1265 1456 l 1,2,-1
 756 255 l 1,3,-1
 715 176 l 1,4,5
 602 -21 602 -21 369 -21 c 1,6,-1
 264 -17 l 1,7,-1
 261 224 l 1,8,9
 285 220 285 220 339 220 c 0,10,11
 402 220 402 220 440.5 242 c 128,-1,12
 479 264 479 264 505 323 c 2,13,-1
 542 418 l 1,14,-1
 31 1456 l 1,15,-1
 354 1456 l 1,16,-1
 676 768 l 1,0,-1
EndSplineSet
Substitution2: "'c2sc' Capitals to Small Capitals lookup 0 subtable" uni0423.c2sc
Position2: "'cpsp' Capital Spacing lookup 0 subtable" dx=36 dy=0 dh=72 dv=0
EndChar

StartChar: uni0424
Encoding: 1060 1060 222
Width: 1672
Flags: W
LayerCount: 2
Back
Fore
SplineSet
985 1326 m 1,0,1
 1168 1326 1168 1326 1309.5 1250 c 128,-1,2
 1451 1174 1451 1174 1528 1036 c 128,-1,3
 1605 898 1605 898 1605 720 c 0,4,5
 1605 546 1605 546 1527.5 410 c 128,-1,6
 1450 274 1450 274 1308.5 200 c 128,-1,7
 1167 126 1167 126 985 126 c 1,8,-1
 985 -60 l 1,9,-1
 696 -60 l 1,10,-1
 696 126 l 1,11,12
 509 126 509 126 367.5 200.5 c 128,-1,13
 226 275 226 275 149.5 410 c 128,-1,14
 73 545 73 545 73 718 c 0,15,16
 73 896 73 896 150.5 1034.5 c 128,-1,17
 228 1173 228 1173 369 1249.5 c 128,-1,18
 510 1326 510 1326 696 1326 c 1,19,-1
 696 1516 l 1,20,-1
 985 1516 l 1,21,-1
 985 1326 l 1,0,1
689 1077 m 2,22,23
 531 1077 531 1077 444 982.5 c 128,-1,24
 357 888 357 888 357 718 c 0,25,26
 357 556 357 556 444 465.5 c 128,-1,27
 531 375 531 375 696 375 c 1,28,-1
 696 1077 l 1,29,-1
 689 1077 l 2,22,23
985 1077 m 1,30,-1
 985 375 l 1,31,-1
 990 375 l 2,32,33
 1146 375 1146 375 1233.5 466 c 128,-1,34
 1321 557 1321 557 1321 720 c 0,35,36
 1321 890 1321 890 1235 983.5 c 128,-1,37
 1149 1077 1149 1077 985 1077 c 1,30,-1
EndSplineSet
Substitution2: "'c2sc' Capitals to Small Capitals lookup 0 subtable" uni0424.c2sc
Position2: "'cpsp' Capital Spacing lookup 0 subtable" dx=36 dy=0 dh=72 dv=0
EndChar

StartChar: uni0426
Encoding: 1062 1062 223
Width: 1554
Flags: W
LayerCount: 2
Back
Fore
SplineSet
117 1456 m 1,0,-1
 417 1456 l 1,1,-1
 417 241 l 1,2,-1
 1000 241 l 1,3,-1
 1000 1456 l 1,4,-1
 1301 1456 l 1,5,-1
 1301 241 l 1,6,-1
 1500 241 l 1,7,-1
 1480 -351 l 1,8,-1
 1200 -351 l 1,9,-1
 1200 0 l 1,10,-1
 117 0 l 1,11,-1
 117 1456 l 1,0,-1
EndSplineSet
Substitution2: "'c2sc' Capitals to Small Capitals lookup 0 subtable" uni0426.c2sc
Position2: "'cpsp' Capital Spacing lookup 0 subtable" dx=36 dy=0 dh=72 dv=0
EndChar

StartChar: uni0427
Encoding: 1063 1063 224
Width: 1424
GlyphClass: 2
Flags: W
LayerCount: 2
Back
Fore
SplineSet
1292 1456 m 1,0,-1
 1292 0 l 1,1,-1
 991 0 l 1,2,-1
 991 552 l 1,3,4
 854 523 854 523 705 523 c 0,5,6
 428 523 428 523 284.5 644 c 128,-1,7
 141 765 141 765 137 994 c 1,8,-1
 137 1456 l 1,9,-1
 438 1456 l 1,10,-1
 438 1000 l 2,11,12
 439 875 439 875 498.5 820 c 128,-1,13
 558 765 558 765 705 765 c 0,14,15
 854 765 854 765 991 794 c 1,16,-1
 991 1456 l 1,17,-1
 1292 1456 l 1,0,-1
EndSplineSet
Substitution2: "'c2sc' Capitals to Small Capitals lookup 0 subtable" uni0427.c2sc
Position2: "'cpsp' Capital Spacing lookup 0 subtable" dx=36 dy=0 dh=72 dv=0
EndChar

StartChar: uni0428
Encoding: 1064 1064 225
Width: 1963
Flags: W
LayerCount: 2
Back
Fore
SplineSet
429 1456 m 1,0,-1
 429 241 l 1,1,-1
 833 241 l 1,2,-1
 833 1456 l 1,3,-1
 1134 1456 l 1,4,-1
 1134 241 l 1,5,-1
 1534 241 l 1,6,-1
 1534 1456 l 1,7,-1
 1834 1456 l 1,8,-1
 1834 0 l 1,9,-1
 128 0 l 1,10,-1
 128 1456 l 1,11,-1
 429 1456 l 1,0,-1
EndSplineSet
Substitution2: "'c2sc' Capitals to Small Capitals lookup 0 subtable" uni0428.c2sc
Position2: "'cpsp' Capital Spacing lookup 0 subtable" dx=36 dy=0 dh=72 dv=0
EndChar

StartChar: uni0429
Encoding: 1065 1065 226
Width: 2091
Flags: W
LayerCount: 2
Back
Fore
SplineSet
429 1456 m 1,0,-1
 429 241 l 1,1,-1
 833 241 l 1,2,-1
 833 1456 l 1,3,-1
 1134 1456 l 1,4,-1
 1134 241 l 1,5,-1
 1534 241 l 1,6,-1
 1534 1456 l 1,7,-1
 1834 1456 l 1,8,-1
 1834 232 l 1,9,-1
 2026 232 l 1,10,-1
 2006 -350 l 1,11,-1
 1738 -350 l 1,12,-1
 1738 0 l 1,13,-1
 128 0 l 1,14,-1
 128 1456 l 1,15,-1
 429 1456 l 1,0,-1
EndSplineSet
Substitution2: "'c2sc' Capitals to Small Capitals lookup 0 subtable" uni0429.c2sc
Position2: "'cpsp' Capital Spacing lookup 0 subtable" dx=36 dy=0 dh=72 dv=0
EndChar

StartChar: uni042A
Encoding: 1066 1066 227
Width: 1578
Flags: W
LayerCount: 2
Back
Fore
SplineSet
25 1456 m 1,0,-1
 725 1456 l 1,1,-1
 725 931 l 1,2,-1
 959 931 l 2,3,4
 1216 931 1216 931 1366.5 806.5 c 128,-1,5
 1517 682 1517 682 1517 471 c 0,6,7
 1517 259 1517 259 1367.5 130.5 c 128,-1,8
 1218 2 1218 2 970 0 c 2,9,-1
 423 0 l 1,10,-1
 423 1222 l 1,11,-1
 25 1222 l 1,12,-1
 25 1456 l 1,0,-1
725 689 m 1,13,-1
 725 241 l 1,14,-1
 964 241 l 2,15,16
 1079 241 1079 241 1147.5 304 c 128,-1,17
 1216 367 1216 367 1216 473 c 0,18,19
 1216 572 1216 572 1150.5 629.5 c 128,-1,20
 1085 687 1085 687 971 689 c 2,21,-1
 725 689 l 1,13,-1
EndSplineSet
Substitution2: "'c2sc' Capitals to Small Capitals lookup 0 subtable" uni042A.c2sc
Position2: "'cpsp' Capital Spacing lookup 0 subtable" dx=36 dy=0 dh=72 dv=0
EndChar

StartChar: uni042B
Encoding: 1067 1067 228
Width: 1785
GlyphClass: 2
Flags: W
LayerCount: 2
Back
Fore
SplineSet
435 931 m 1,0,-1
 669 931 l 2,1,2
 926 931 926 931 1076.5 806.5 c 128,-1,3
 1227 682 1227 682 1227 471 c 0,4,5
 1227 259 1227 259 1077.5 130.5 c 128,-1,6
 928 2 928 2 680 0 c 2,7,-1
 133 0 l 1,8,-1
 133 1456 l 1,9,-1
 435 1456 l 1,10,-1
 435 931 l 1,0,-1
1652 0 m 1,11,-1
 1352 0 l 1,12,-1
 1352 1456 l 1,13,-1
 1652 1456 l 1,14,-1
 1652 0 l 1,11,-1
435 689 m 1,15,-1
 435 241 l 1,16,-1
 674 241 l 2,17,18
 789 241 789 241 857.5 304 c 128,-1,19
 926 367 926 367 926 473 c 0,20,21
 926 572 926 572 860.5 629.5 c 128,-1,22
 795 687 795 687 681 689 c 2,23,-1
 435 689 l 1,15,-1
EndSplineSet
Substitution2: "'c2sc' Capitals to Small Capitals lookup 0 subtable" uni042B.c2sc
Position2: "'cpsp' Capital Spacing lookup 0 subtable" dx=36 dy=0 dh=72 dv=0
EndChar

StartChar: uni042C
Encoding: 1068 1068 229
Width: 1281
Flags: W
LayerCount: 2
Back
Fore
SplineSet
430 931 m 1,0,-1
 664 931 l 2,1,2
 921 931 921 931 1071.5 806.5 c 128,-1,3
 1222 682 1222 682 1222 471 c 0,4,5
 1222 259 1222 259 1072.5 130.5 c 128,-1,6
 923 2 923 2 675 0 c 2,7,-1
 128 0 l 1,8,-1
 128 1456 l 1,9,-1
 430 1456 l 1,10,-1
 430 931 l 1,0,-1
430 689 m 1,11,-1
 430 241 l 1,12,-1
 669 241 l 2,13,14
 784 241 784 241 852.5 304 c 128,-1,15
 921 367 921 367 921 473 c 0,16,17
 921 572 921 572 855.5 629.5 c 128,-1,18
 790 687 790 687 676 689 c 2,19,-1
 430 689 l 1,11,-1
EndSplineSet
Substitution2: "'c2sc' Capitals to Small Capitals lookup 0 subtable" uni042C.c2sc
Position2: "'cpsp' Capital Spacing lookup 0 subtable" dx=36 dy=0 dh=72 dv=0
EndChar

StartChar: uni042D
Encoding: 1069 1069 230
Width: 1332
GlyphClass: 2
Flags: W
LayerCount: 2
Back
Fore
SplineSet
363 484 m 1,0,1
 376 343 376 343 446 281.5 c 128,-1,2
 516 220 516 220 649 220 c 0,3,4
 796 220 796 220 867 317.5 c 128,-1,5
 938 415 938 415 949 606 c 1,6,-1
 489 606 l 1,7,-1
 489 849 l 1,8,-1
 948 849 l 1,9,10
 936 1044 936 1044 860.5 1138.5 c 128,-1,11
 785 1233 785 1233 645 1233 c 0,12,13
 509 1233 509 1233 441 1168.5 c 128,-1,14
 373 1104 373 1104 362 961 c 1,15,-1
 62 961 l 1,16,17
 84 1200 84 1200 236.5 1338 c 128,-1,18
 389 1476 389 1476 645 1476 c 0,19,20
 827 1476 827 1476 964.5 1390.5 c 128,-1,21
 1102 1305 1102 1305 1176 1145.5 c 128,-1,22
 1250 986 1250 986 1250 774 c 2,23,-1
 1250 679 l 2,24,25
 1250 357 1250 357 1089.5 168.5 c 128,-1,26
 929 -20 929 -20 649 -20 c 0,27,28
 391 -20 391 -20 235.5 116.5 c 128,-1,29
 80 253 80 253 63 484 c 1,30,-1
 363 484 l 1,0,1
EndSplineSet
Substitution2: "'c2sc' Capitals to Small Capitals lookup 0 subtable" uni042D.c2sc
Position2: "'cpsp' Capital Spacing lookup 0 subtable" dx=36 dy=0 dh=72 dv=0
EndChar

StartChar: uni042E
Encoding: 1070 1070 231
Width: 1932
GlyphClass: 2
Flags: W
LayerCount: 2
Back
Fore
SplineSet
1843 695 m 2,0,1
 1843 480 1843 480 1767 318 c 128,-1,2
 1691 156 1691 156 1549.5 68 c 128,-1,3
 1408 -20 1408 -20 1225 -20 c 0,4,5
 1058 -20 1058 -20 925.5 52.5 c 128,-1,6
 793 125 793 125 710.5 261 c 128,-1,7
 628 397 628 397 609 579 c 1,8,-1
 442 579 l 1,9,-1
 442 0 l 1,10,-1
 142 0 l 1,11,-1
 142 1456 l 1,12,-1
 442 1456 l 1,13,-1
 442 812 l 1,14,-1
 604 812 l 1,15,16
 613 1009 613 1009 691.5 1160 c 128,-1,17
 770 1311 770 1311 908.5 1393.5 c 128,-1,18
 1047 1476 1047 1476 1223 1476 c 0,19,20
 1405 1476 1405 1476 1546.5 1388.5 c 128,-1,21
 1688 1301 1688 1301 1765.5 1137.5 c 128,-1,22
 1843 974 1843 974 1843 760 c 2,23,-1
 1843 695 l 2,0,1
1539 761 m 2,24,25
 1539 990 1539 990 1457 1109 c 128,-1,26
 1375 1228 1375 1228 1223 1228 c 0,27,28
 1072 1228 1072 1228 990 1110.5 c 128,-1,29
 908 993 908 993 907 766 c 2,30,-1
 907 695 l 2,31,32
 907 472 907 472 989 349 c 128,-1,33
 1071 226 1071 226 1225 226 c 0,34,35
 1376 226 1376 226 1457 344.5 c 128,-1,36
 1538 463 1538 463 1539 690 c 2,37,-1
 1539 761 l 2,24,25
EndSplineSet
Substitution2: "'c2sc' Capitals to Small Capitals lookup 0 subtable" uni042E.c2sc
Position2: "'cpsp' Capital Spacing lookup 0 subtable" dx=36 dy=0 dh=72 dv=0
EndChar

StartChar: uni042F
Encoding: 1071 1071 232
Width: 1222
GlyphClass: 2
Flags: W
LayerCount: 2
Back
Fore
SplineSet
803 0 m 1,0,-1
 803 525 l 1,1,-1
 559 525 l 1,2,-1
 296 0 l 1,3,-1
 -28 0 l 1,4,-1
 283 621 l 1,5,6
 58 745 58 745 58 1006 c 0,7,8
 58 1220 58 1220 198 1337 c 128,-1,9
 338 1454 338 1454 589 1456 c 2,10,-1
 1104 1456 l 1,11,-1
 1104 0 l 1,12,-1
 803 0 l 1,0,-1
358 984 m 0,13,14
 358 862 358 862 417.5 807 c 128,-1,15
 477 752 477 752 596 752 c 2,16,-1
 803 752 l 1,17,-1
 803 1213 l 1,18,-1
 596 1213 l 2,19,20
 358 1213 358 1213 358 984 c 0,13,14
EndSplineSet
Substitution2: "'c2sc' Capitals to Small Capitals lookup 0 subtable" uni042F.c2sc
Position2: "'cpsp' Capital Spacing lookup 0 subtable" dx=36 dy=0 dh=72 dv=0
EndChar

StartChar: uni0431
Encoding: 1073 1073 233
Width: 1166
Flags: W
LayerCount: 2
Back
Fore
SplineSet
648 1022 m 0,0,1
 856 1022 856 1022 980 884 c 128,-1,2
 1104 746 1104 746 1104 509 c 2,3,-1
 1104 495 l 2,4,5
 1104 261 1104 261 966 120 c 128,-1,6
 828 -21 828 -21 595 -21 c 0,7,8
 361 -21 361 -21 222.5 131.5 c 128,-1,9
 84 284 84 284 84 546 c 2,10,-1
 84 594 l 2,11,12
 86 959 86 959 207.5 1165.5 c 128,-1,13
 329 1372 329 1372 573 1426 c 0,14,15
 701 1454 701 1454 738 1481.5 c 128,-1,16
 775 1509 775 1509 775 1558 c 1,17,-1
 1009 1558 l 1,18,19
 1009 1401 1009 1401 924.5 1322 c 128,-1,20
 840 1243 840 1243 624 1200 c 0,21,22
 496 1174 496 1174 422 1099 c 128,-1,23
 348 1024 348 1024 322 888 c 1,24,25
 460 1022 460 1022 648 1022 c 0,0,1
593 788 m 0,26,27
 490 788 490 788 431.5 719 c 128,-1,28
 373 650 373 650 373 495 c 0,29,30
 373 357 373 357 430 284.5 c 128,-1,31
 487 212 487 212 595 212 c 0,32,33
 700 212 700 212 757 283 c 128,-1,34
 814 354 814 354 815 492 c 2,35,-1
 815 516 l 2,36,37
 815 649 815 649 756.5 718.5 c 128,-1,38
 698 788 698 788 593 788 c 0,26,27
EndSplineSet
Substitution2: "'smcp' Lowercase to Small Capitals lookup 1 subtable" uni0411.c2sc
EndChar

StartChar: uni0432
Encoding: 1074 1074 234
Width: 1159
GlyphClass: 2
Flags: W
LayerCount: 2
Back
Fore
SplineSet
130 0 m 1,0,-1
 130 1082 l 1,1,-1
 582 1082 l 2,2,3
 803 1082 803 1082 921 1004 c 128,-1,4
 1039 926 1039 926 1039 780 c 0,5,6
 1039 705 1039 705 989.5 645.5 c 128,-1,7
 940 586 940 586 845 554 c 1,8,9
 961 532 961 532 1027.5 467.5 c 128,-1,10
 1094 403 1094 403 1094 309 c 0,11,12
 1094 158 1094 158 980.5 79 c 128,-1,13
 867 0 867 0 651 0 c 2,14,-1
 130 0 l 1,0,-1
419 449 m 1,15,-1
 419 231 l 1,16,-1
 652 231 l 2,17,18
 805 231 805 231 805 338 c 0,19,20
 805 447 805 447 659 449 c 2,21,-1
 419 449 l 1,15,-1
419 643 m 1,22,-1
 598 643 l 2,23,24
 750 645 750 645 750 741 c 0,25,26
 750 800 750 800 708.5 825 c 128,-1,27
 667 850 667 850 582 850 c 2,28,-1
 419 850 l 1,29,-1
 419 643 l 1,22,-1
EndSplineSet
Substitution2: "'smcp' Lowercase to Small Capitals lookup 1 subtable" uni0412.c2sc
EndChar

StartChar: uni0433
Encoding: 1075 1075 235
Width: 858
GlyphClass: 2
Flags: W
LayerCount: 2
Back
Fore
SplineSet
848 848 m 1,0,-1
 400 848 l 1,1,-1
 400 0 l 1,2,-1
 111 0 l 1,3,-1
 111 1082 l 1,4,-1
 848 1082 l 1,5,-1
 848 848 l 1,0,-1
EndSplineSet
Substitution2: "'smcp' Lowercase to Small Capitals lookup 1 subtable" uni0413.c2sc
EndChar

StartChar: uni0434
Encoding: 1076 1076 236
Width: 1293
GlyphClass: 2
Flags: W
LayerCount: 2
Back
Fore
SplineSet
126 233 m 1,0,1
 224 337 224 337 259 439 c 128,-1,2
 294 541 294 541 298 728 c 2,3,-1
 306 1082 l 1,4,-1
 1102 1082 l 1,5,-1
 1102 233 l 1,6,-1
 1258 233 l 1,7,-1
 1258 -325 l 1,8,-1
 969 -325 l 1,9,-1
 969 0 l 1,10,-1
 328 0 l 1,11,-1
 328 -325 l 1,12,-1
 33 -325 l 1,13,-1
 33 233 l 1,14,-1
 126 233 l 1,0,1
467 233 m 1,15,-1
 814 233 l 1,16,-1
 814 843 l 1,17,-1
 589 843 l 1,18,-1
 587 713 l 1,19,20
 578 415 578 415 467 233 c 1,15,-1
EndSplineSet
Substitution2: "'smcp' Lowercase to Small Capitals lookup 1 subtable" uni0414.c2sc
EndChar

StartChar: uni0436
Encoding: 1078 1078 237
Width: 1749
GlyphClass: 2
Flags: W
LayerCount: 2
Back
Fore
SplineSet
1152 401 m 1,0,-1
 1021 401 l 1,1,-1
 1021 0 l 1,2,-1
 732 0 l 1,3,-1
 732 401 l 1,4,-1
 603 401 l 1,5,-1
 388 0 l 1,6,-1
 39 0 l 1,7,-1
 380 566 l 1,8,-1
 43 1082 l 1,9,-1
 401 1082 l 1,10,-1
 626 678 l 1,11,-1
 732 678 l 1,12,-1
 732 1082 l 1,13,-1
 1021 1082 l 1,14,-1
 1021 678 l 1,15,-1
 1129 678 l 1,16,-1
 1355 1082 l 1,17,-1
 1713 1082 l 1,18,-1
 1378 573 l 1,19,-1
 1722 0 l 1,20,-1
 1367 0 l 1,21,-1
 1152 401 l 1,0,-1
EndSplineSet
Substitution2: "'smcp' Lowercase to Small Capitals lookup 1 subtable" uni0416.c2sc
EndChar

StartChar: uni0437
Encoding: 1079 1079 238
Width: 1052
GlyphClass: 2
Flags: W
LayerCount: 2
Back
Fore
SplineSet
679 763 m 0,0,1
 679 820 679 820 641.5 851.5 c 128,-1,2
 604 883 604 883 535 883 c 0,3,4
 464 883 464 883 419.5 853.5 c 128,-1,5
 375 824 375 824 375 770 c 1,6,-1
 86 770 l 1,7,8
 86 917 86 917 208 1009 c 128,-1,9
 330 1101 330 1101 520 1101 c 0,10,11
 729 1101 729 1101 848.5 1019 c 128,-1,12
 968 937 968 937 968 786 c 0,13,14
 968 714 968 714 924.5 653.5 c 128,-1,15
 881 593 881 593 802 557 c 1,16,17
 987 492 987 492 987 306 c 0,18,19
 987 157 987 157 859.5 68.5 c 128,-1,20
 732 -20 732 -20 520 -20 c 0,21,22
 323 -20 323 -20 196 72 c 128,-1,23
 69 164 69 164 69 320 c 1,24,-1
 358 320 l 1,25,26
 358 265 358 265 407 231 c 128,-1,27
 456 197 456 197 535 197 c 0,28,29
 612 197 612 197 655 233 c 128,-1,30
 698 269 698 269 698 327 c 0,31,32
 698 398 698 398 657 428.5 c 128,-1,33
 616 459 616 459 534 459 c 2,34,-1
 377 459 l 1,35,-1
 377 647 l 1,36,-1
 544 647 l 1,37,38
 679 651 679 651 679 763 c 0,0,1
EndSplineSet
Substitution2: "'smcp' Lowercase to Small Capitals lookup 1 subtable" uni0417.c2sc
EndChar

StartChar: uni0438
Encoding: 1080 1080 239
Width: 1162
GlyphClass: 2
Flags: W
LayerCount: 2
Back
Fore
SplineSet
763 1082 m 1,0,-1
 1052 1082 l 1,1,-1
 1052 0 l 1,2,-1
 763 0 l 1,3,-1
 763 668 l 1,4,-1
 401 0 l 1,5,-1
 111 0 l 1,6,-1
 111 1082 l 1,7,-1
 401 1082 l 1,8,-1
 401 415 l 1,9,-1
 763 1082 l 1,0,-1
EndSplineSet
Substitution2: "'smcp' Lowercase to Small Capitals lookup 1 subtable" uni0418.c2sc
EndChar

StartChar: uni043A
Encoding: 1082 1082 240
Width: 1154
GlyphClass: 2
Flags: W
LayerCount: 2
Back
Fore
SplineSet
535 399 m 1,0,-1
 419 399 l 1,1,-1
 419 0 l 1,2,-1
 130 0 l 1,3,-1
 130 1082 l 1,4,-1
 419 1082 l 1,5,-1
 419 675 l 1,6,-1
 522 675 l 1,7,-1
 758 1082 l 1,8,-1
 1123 1082 l 1,9,-1
 769 567 l 1,10,-1
 1156 0 l 1,11,-1
 771 0 l 1,12,-1
 535 399 l 1,0,-1
EndSplineSet
Substitution2: "'smcp' Lowercase to Small Capitals lookup 1 subtable" uni041A.c2sc
EndChar

StartChar: uni043B
Encoding: 1083 1083 241
Width: 1164
GlyphClass: 2
Flags: W
LayerCount: 2
Back
Fore
SplineSet
1052 1082 m 1,0,-1
 1052 0 l 1,1,-1
 763 0 l 1,2,-1
 763 848 l 1,3,-1
 508 848 l 1,4,-1
 490 514 l 2,5,6
 473 247 473 247 385 125 c 128,-1,7
 297 3 297 3 123 0 c 2,8,-1
 25 0 l 1,9,-1
 22 235 l 1,10,-1
 58 238 l 2,11,12
 136 244 136 244 172 330 c 128,-1,13
 208 416 208 416 217 623 c 2,14,-1
 237 1082 l 1,15,-1
 1052 1082 l 1,0,-1
EndSplineSet
Substitution2: "'smcp' Lowercase to Small Capitals lookup 1 subtable" uni041B.c2sc
EndChar

StartChar: uni043C
Encoding: 1084 1084 242
Width: 1555
GlyphClass: 2
Flags: W
LayerCount: 2
Back
Fore
SplineSet
770 341 m 1,0,-1
 1053 1082 l 1,1,-1
 1415 1082 l 1,2,-1
 1415 0 l 1,3,-1
 1126 0 l 1,4,-1
 1126 664 l 1,5,-1
 867 0 l 1,6,-1
 673 0 l 1,7,-1
 419 653 l 1,8,-1
 419 0 l 1,9,-1
 130 0 l 1,10,-1
 130 1082 l 1,11,-1
 489 1082 l 1,12,-1
 770 341 l 1,0,-1
EndSplineSet
Substitution2: "'smcp' Lowercase to Small Capitals lookup 1 subtable" uni041C.c2sc
EndChar

StartChar: uni043D
Encoding: 1085 1085 243
Width: 1162
GlyphClass: 2
Flags: W
LayerCount: 2
Back
Fore
SplineSet
1049 0 m 1,0,-1
 759 0 l 1,1,-1
 759 416 l 1,2,-1
 400 416 l 1,3,-1
 400 0 l 1,4,-1
 111 0 l 1,5,-1
 111 1082 l 1,6,-1
 400 1082 l 1,7,-1
 400 648 l 1,8,-1
 759 648 l 1,9,-1
 759 1082 l 1,10,-1
 1049 1082 l 1,11,-1
 1049 0 l 1,0,-1
EndSplineSet
Substitution2: "'smcp' Lowercase to Small Capitals lookup 1 subtable" uni041D.c2sc
EndChar

StartChar: uni043F
Encoding: 1087 1087 244
Width: 1162
GlyphClass: 2
Flags: W
LayerCount: 2
Back
Fore
SplineSet
1052 0 m 1,0,-1
 762 0 l 1,1,-1
 762 848 l 1,2,-1
 400 848 l 1,3,-1
 400 0 l 1,4,-1
 111 0 l 1,5,-1
 111 1082 l 1,6,-1
 1052 1082 l 1,7,-1
 1052 0 l 1,0,-1
EndSplineSet
Substitution2: "'smcp' Lowercase to Small Capitals lookup 1 subtable" uni041F.c2sc
EndChar

StartChar: uni0442
Encoding: 1090 1090 245
Width: 1043
GlyphClass: 2
Flags: W
LayerCount: 2
Back
Fore
SplineSet
1009 850 m 1,0,-1
 662 850 l 1,1,-1
 662 0 l 1,2,-1
 372 0 l 1,3,-1
 372 850 l 1,4,-1
 31 850 l 1,5,-1
 31 1082 l 1,6,-1
 1009 1082 l 1,7,-1
 1009 850 l 1,0,-1
EndSplineSet
Substitution2: "'smcp' Lowercase to Small Capitals lookup 1 subtable" uni0422.c2sc
EndChar

StartChar: uni0444
Encoding: 1092 1092 246
Width: 1496
GlyphClass: 2
Flags: W
LayerCount: 2
Back
Fore
SplineSet
68 533 m 1,0,1
 68 794 68 794 174.5 948 c 128,-1,2
 281 1102 281 1102 468 1102 c 0,3,4
 541 1102 541 1102 601 1073 c 1,5,-1
 601 1536 l 1,6,-1
 890 1536 l 1,7,-1
 890 1072 l 1,8,9
 952 1102 952 1102 1027 1102 c 0,10,11
 1215 1102 1215 1102 1321.5 948.5 c 128,-1,12
 1428 795 1428 795 1428 512 c 0,13,14
 1428 267 1428 267 1321 123.5 c 128,-1,15
 1214 -20 1214 -20 1029 -20 c 0,16,17
 952 -20 952 -20 890 8 c 1,18,-1
 890 -416 l 1,19,-1
 601 -416 l 1,20,-1
 601 7 l 1,21,22
 541 -20 541 -20 466 -20 c 0,23,24
 291 -20 291 -20 185 111 c 128,-1,25
 79 242 79 242 69 470 c 1,26,-1
 68 533 l 1,0,1
1138 533 m 2,27,28
 1138 695 1138 695 1089 781.5 c 128,-1,29
 1040 868 1040 868 951 868 c 0,30,31
 923 868 923 868 890 861 c 1,32,-1
 890 218 l 1,33,34
 918 212 918 212 953 212 c 0,35,36
 1123 212 1123 212 1137 470 c 1,37,-1
 1138 533 l 2,27,28
357 512 m 0,38,39
 357 213 357 213 540 213 c 0,40,41
 578 213 578 213 601 218 c 1,42,-1
 601 861 l 1,43,44
 568 868 568 868 542 868 c 0,45,46
 453 868 453 868 405 783.5 c 128,-1,47
 357 699 357 699 357 512 c 0,38,39
EndSplineSet
Substitution2: "'smcp' Lowercase to Small Capitals lookup 1 subtable" uni0424.c2sc
EndChar

StartChar: uni0446
Encoding: 1094 1094 247
Width: 1248
GlyphClass: 2
Flags: W
LayerCount: 2
Back
Fore
SplineSet
111 1082 m 1,0,-1
 400 1082 l 1,1,-1
 400 233 l 1,2,-1
 762 233 l 1,3,-1
 762 1082 l 1,4,-1
 1052 1082 l 1,5,-1
 1052 231 l 1,6,-1
 1214 231 l 1,7,-1
 1194 -321 l 1,8,-1
 925 -321 l 1,9,-1
 925 0 l 1,10,-1
 111 0 l 1,11,-1
 111 1082 l 1,0,-1
EndSplineSet
Substitution2: "'smcp' Lowercase to Small Capitals lookup 1 subtable" uni0426.c2sc
EndChar

StartChar: uni0447
Encoding: 1095 1095 248
Width: 1134
GlyphClass: 2
Flags: W
LayerCount: 2
Back
Fore
SplineSet
1023 0 m 1,0,-1
 734 0 l 1,1,-1
 734 340 l 1,2,3
 653 325 653 325 583 325 c 0,4,5
 338 325 338 325 214 429 c 128,-1,6
 90 533 90 533 88 733 c 2,7,-1
 88 1082 l 1,8,-1
 377 1082 l 1,9,-1
 377 733 l 2,10,11
 378 639 378 639 423 598.5 c 128,-1,12
 468 558 468 558 583 558 c 0,13,14
 655 558 655 558 734 575 c 1,15,-1
 734 1082 l 1,16,-1
 1023 1082 l 1,17,-1
 1023 0 l 1,0,-1
EndSplineSet
Substitution2: "'smcp' Lowercase to Small Capitals lookup 1 subtable" uni0427.c2sc
EndChar

StartChar: uni0448
Encoding: 1096 1096 249
Width: 1694
GlyphClass: 2
Flags: W
LayerCount: 2
Back
Fore
SplineSet
400 1082 m 1,0,-1
 400 233 l 1,1,-1
 697 233 l 1,2,-1
 697 1082 l 1,3,-1
 987 1082 l 1,4,-1
 987 233 l 1,5,-1
 1284 233 l 1,6,-1
 1284 1082 l 1,7,-1
 1573 1082 l 1,8,-1
 1573 0 l 1,9,-1
 111 0 l 1,10,-1
 111 1082 l 1,11,-1
 400 1082 l 1,0,-1
EndSplineSet
Substitution2: "'smcp' Lowercase to Small Capitals lookup 1 subtable" uni0428.c2sc
EndChar

StartChar: uni0449
Encoding: 1097 1097 250
Width: 1843
GlyphClass: 2
Flags: W
LayerCount: 2
Back
Fore
SplineSet
397 1082 m 1,0,-1
 397 233 l 1,1,-1
 694 233 l 1,2,-1
 694 1082 l 1,3,-1
 984 1082 l 1,4,-1
 984 233 l 1,5,-1
 1280 233 l 1,6,-1
 1280 1082 l 1,7,-1
 1570 1082 l 1,8,-1
 1570 231 l 1,9,-1
 1785 231 l 1,10,-1
 1765 -321 l 1,11,-1
 1496 -321 l 1,12,-1
 1496 0 l 1,13,-1
 108 0 l 1,14,-1
 108 1082 l 1,15,-1
 397 1082 l 1,0,-1
EndSplineSet
Substitution2: "'smcp' Lowercase to Small Capitals lookup 1 subtable" uni0429.c2sc
EndChar

StartChar: uni044A
Encoding: 1098 1098 251
Width: 1343
Flags: W
LayerCount: 2
Back
Fore
SplineSet
33 1082 m 1,0,-1
 631 1082 l 1,1,-1
 631 765 l 1,2,-1
 838 765 l 2,3,4
 978 765 978 765 1084 718 c 128,-1,5
 1190 671 1190 671 1246.5 583.5 c 128,-1,6
 1303 496 1303 496 1303 380 c 0,7,8
 1303 209 1303 209 1176.5 104.5 c 128,-1,9
 1050 0 1050 0 832 0 c 2,10,-1
 342 0 l 1,11,-1
 342 848 l 1,12,-1
 33 848 l 1,13,-1
 33 1082 l 1,0,-1
631 533 m 1,14,-1
 631 231 l 1,15,-1
 836 231 l 2,16,17
 922 231 922 231 968 271 c 128,-1,18
 1014 311 1014 311 1014 380 c 0,19,20
 1014 450 1014 450 969 491.5 c 128,-1,21
 924 533 924 533 836 533 c 2,22,-1
 631 533 l 1,14,-1
EndSplineSet
Substitution2: "'smcp' Lowercase to Small Capitals lookup 1 subtable" uni042A.c2sc
EndChar

StartChar: uni044B
Encoding: 1099 1099 252
Width: 1695
GlyphClass: 2
Flags: W
LayerCount: 2
Back
Fore
SplineSet
420 765 m 1,0,-1
 627 765 l 2,1,2
 767 765 767 765 873 718 c 128,-1,3
 979 671 979 671 1035.5 583.5 c 128,-1,4
 1092 496 1092 496 1092 380 c 0,5,6
 1092 209 1092 209 965.5 104.5 c 128,-1,7
 839 0 839 0 621 0 c 2,8,-1
 130 0 l 1,9,-1
 130 1082 l 1,10,-1
 420 1082 l 1,11,-1
 420 765 l 1,0,-1
1552 0 m 1,12,-1
 1263 0 l 1,13,-1
 1263 1082 l 1,14,-1
 1552 1082 l 1,15,-1
 1552 0 l 1,12,-1
420 533 m 1,16,-1
 420 231 l 1,17,-1
 625 231 l 2,18,19
 711 231 711 231 757 271 c 128,-1,20
 803 311 803 311 803 380 c 0,21,22
 803 450 803 450 758 491.5 c 128,-1,23
 713 533 713 533 625 533 c 2,24,-1
 420 533 l 1,16,-1
EndSplineSet
Substitution2: "'smcp' Lowercase to Small Capitals lookup 1 subtable" uni042B.c2sc
EndChar

StartChar: uni044C
Encoding: 1100 1100 253
Width: 1143
Flags: W
LayerCount: 2
Back
Fore
SplineSet
420 765 m 1,0,-1
 627 765 l 2,1,2
 767 765 767 765 873 718 c 128,-1,3
 979 671 979 671 1035.5 583.5 c 128,-1,4
 1092 496 1092 496 1092 380 c 0,5,6
 1092 209 1092 209 965.5 104.5 c 128,-1,7
 839 0 839 0 621 0 c 2,8,-1
 130 0 l 1,9,-1
 130 1082 l 1,10,-1
 420 1082 l 1,11,-1
 420 765 l 1,0,-1
420 533 m 1,12,-1
 420 231 l 1,13,-1
 625 231 l 2,14,15
 711 231 711 231 757 271 c 128,-1,16
 803 311 803 311 803 380 c 0,17,18
 803 450 803 450 758 491.5 c 128,-1,19
 713 533 713 533 625 533 c 2,20,-1
 420 533 l 1,12,-1
EndSplineSet
Substitution2: "'smcp' Lowercase to Small Capitals lookup 1 subtable" uni042C.c2sc
EndChar

StartChar: uni044D
Encoding: 1101 1101 254
Width: 1065
GlyphClass: 2
Flags: W
LayerCount: 2
Back
Fore
SplineSet
505 868 m 0,0,1
 427 868 427 868 381 824.5 c 128,-1,2
 335 781 335 781 335 708 c 1,3,-1
 63 708 l 1,4,5
 63 818 63 818 121.5 909 c 128,-1,6
 180 1000 180 1000 281.5 1051 c 128,-1,7
 383 1102 383 1102 505 1102 c 0,8,9
 734 1102 734 1102 870 952.5 c 128,-1,10
 1006 803 1006 803 1006 545 c 2,11,-1
 1006 526 l 2,12,13
 1006 366 1006 366 946 241.5 c 128,-1,14
 886 117 886 117 772.5 48.5 c 128,-1,15
 659 -20 659 -20 507 -20 c 0,16,17
 307 -20 307 -20 185 95 c 128,-1,18
 63 210 63 210 63 402 c 1,19,-1
 335 402 l 1,20,21
 335 319 335 319 381.5 265.5 c 128,-1,22
 428 212 428 212 507 212 c 0,23,24
 594 212 594 212 647 273.5 c 128,-1,25
 700 335 700 335 712 456 c 1,26,-1
 422 456 l 1,27,-1
 422 633 l 1,28,-1
 712 633 l 1,29,30
 683 868 683 868 505 868 c 0,0,1
EndSplineSet
Substitution2: "'smcp' Lowercase to Small Capitals lookup 1 subtable" uni042D.c2sc
EndChar

StartChar: uni044E
Encoding: 1102 1102 255
Width: 1662
GlyphClass: 2
Flags: W
LayerCount: 2
Back
Fore
SplineSet
424 667 m 1,0,-1
 580 667 l 1,1,2
 612 869 612 869 745.5 985.5 c 128,-1,3
 879 1102 879 1102 1082 1102 c 0,4,5
 1301 1102 1301 1102 1439.5 968 c 128,-1,6
 1578 834 1578 834 1594 604 c 1,7,-1
 1596 530 l 1,8,9
 1596 281 1596 281 1457 130.5 c 128,-1,10
 1318 -20 1318 -20 1084 -20 c 0,11,12
 873 -20 873 -20 738.5 102 c 128,-1,13
 604 224 604 224 577 433 c 1,14,-1
 424 433 l 1,15,-1
 424 0 l 1,16,-1
 134 0 l 1,17,-1
 134 1082 l 1,18,-1
 424 1082 l 1,19,-1
 424 667 l 1,0,-1
860 530 m 0,20,21
 860 376 860 376 918 294.5 c 128,-1,22
 976 213 976 213 1084 213 c 0,23,24
 1191 213 1191 213 1249 294 c 128,-1,25
 1307 375 1307 375 1307 551 c 0,26,27
 1307 702 1307 702 1248 785 c 128,-1,28
 1189 868 1189 868 1082 868 c 0,29,30
 976 868 976 868 918 785.5 c 128,-1,31
 860 703 860 703 860 530 c 0,20,21
EndSplineSet
Substitution2: "'smcp' Lowercase to Small Capitals lookup 1 subtable" uni042E.c2sc
EndChar

StartChar: uni044F
Encoding: 1103 1103 256
Width: 1145
GlyphClass: 2
Flags: W
LayerCount: 2
Back
Fore
SplineSet
1013 1082 m 1,0,-1
 1013 0 l 1,1,-1
 725 0 l 1,2,-1
 725 374 l 1,3,-1
 542 374 l 1,4,-1
 334 0 l 1,5,-1
 41 0 l 1,6,-1
 277 423 l 1,7,8
 180 468 180 468 127.5 545 c 128,-1,9
 75 622 75 622 75 720 c 0,10,11
 75 877 75 877 196.5 977.5 c 128,-1,12
 318 1078 318 1078 522 1082 c 1,13,-1
 1013 1082 l 1,0,-1
527 576 m 2,14,-1
 725 576 l 1,15,-1
 725 850 l 1,16,-1
 537 850 l 2,17,18
 460 850 460 850 412 809.5 c 128,-1,19
 364 769 364 769 364 711 c 128,-1,20
 364 653 364 653 410 615 c 128,-1,21
 456 577 456 577 527 576 c 2,14,-1
EndSplineSet
Substitution2: "'smcp' Lowercase to Small Capitals lookup 1 subtable" uni042F.c2sc
EndChar

StartChar: uni0452
Encoding: 1106 1106 257
Width: 1146
Flags: W
LayerCount: 2
Back
Fore
SplineSet
647 1189 m 1,0,-1
 393 1189 l 1,1,-1
 393 964 l 1,2,3
 508 1102 508 1102 682 1102 c 0,4,5
 1034 1102 1034 1102 1039 693 c 1,6,-1
 1039 -34 l 2,7,8
 1039 -227 1039 -227 939 -332 c 128,-1,9
 839 -437 839 -437 659 -437 c 0,10,11
 581 -437 581 -437 516 -420 c 1,12,-1
 530 -191 l 1,13,14
 573 -203 573 -203 629 -203 c 0,15,16
 750 -203 750 -203 750 -27 c 2,17,-1
 750 684 l 2,18,19
 750 778 750 778 710 822.5 c 128,-1,20
 670 867 670 867 577 867 c 0,21,22
 450 867 450 867 393 769 c 1,23,-1
 393 0 l 1,24,-1
 104 0 l 1,25,-1
 104 1189 l 1,26,-1
 -52 1189 l 1,27,-1
 -52 1372 l 1,28,-1
 104 1372 l 1,29,-1
 104 1536 l 1,30,-1
 393 1536 l 1,31,-1
 393 1372 l 1,32,-1
 647 1372 l 1,33,-1
 647 1189 l 1,0,-1
EndSplineSet
Substitution2: "'smcp' Lowercase to Small Capitals lookup 1 subtable" uni0402.c2sc
EndChar

StartChar: uni0454
Encoding: 1108 1108 258
Width: 1065
GlyphClass: 2
Flags: W
LayerCount: 2
Back
Fore
SplineSet
559 213 m 0,0,1
 639 213 639 213 689 257 c 128,-1,2
 739 301 739 301 741 374 c 1,3,-1
 1013 374 l 1,4,5
 1012 263 1012 263 952.5 172 c 128,-1,6
 893 81 893 81 790.5 30.5 c 128,-1,7
 688 -20 688 -20 564 -20 c 0,8,9
 334 -20 334 -20 199 127 c 128,-1,10
 64 274 64 274 64 534 c 2,11,-1
 64 554 l 2,12,13
 64 804 64 804 197 953 c 128,-1,14
 330 1102 330 1102 563 1102 c 0,15,16
 765 1102 765 1102 888 986.5 c 128,-1,17
 1011 871 1011 871 1013 679 c 1,18,-1
 741 679 l 1,19,20
 739 765 739 765 689 816.5 c 128,-1,21
 639 868 639 868 558 868 c 0,22,23
 370 868 370 868 355 617 c 1,24,-1
 660 617 l 1,25,-1
 660 440 l 1,26,-1
 357 440 l 1,27,28
 369 323 369 323 418.5 268 c 128,-1,29
 468 213 468 213 559 213 c 0,0,1
EndSplineSet
Substitution2: "'smcp' Lowercase to Small Capitals lookup 1 subtable" uni0404.c2sc
EndChar

StartChar: uni0459
Encoding: 1113 1113 259
Width: 1758
Flags: W
LayerCount: 2
Back
Fore
SplineSet
1042 740 m 1,0,-1
 1240 740 l 2,1,2
 1465 740 1465 740 1589.5 639 c 128,-1,3
 1714 538 1714 538 1714 371 c 0,4,5
 1714 203 1714 203 1588 101.5 c 128,-1,6
 1462 0 1462 0 1243 0 c 2,7,-1
 752 0 l 1,8,-1
 752 848 l 1,9,-1
 507 848 l 1,10,-1
 489 514 l 2,11,12
 472 249 472 249 385.5 127 c 128,-1,13
 299 5 299 5 127 0 c 1,14,-1
 23 0 l 1,15,-1
 21 235 l 1,16,-1
 57 238 l 2,17,18
 135 244 135 244 171 330 c 128,-1,19
 207 416 207 416 216 623 c 2,20,-1
 236 1082 l 1,21,-1
 1042 1082 l 1,22,-1
 1042 740 l 1,0,-1
1042 508 m 1,23,-1
 1042 231 l 1,24,-1
 1247 231 l 2,25,26
 1333 231 1333 231 1379 269.5 c 128,-1,27
 1425 308 1425 308 1425 373 c 0,28,29
 1425 435 1425 435 1379 471.5 c 128,-1,30
 1333 508 1333 508 1247 508 c 2,31,-1
 1042 508 l 1,23,-1
EndSplineSet
Substitution2: "'smcp' Lowercase to Small Capitals lookup 1 subtable" uni0409.c2sc
EndChar

StartChar: uni045A
Encoding: 1114 1114 260
Width: 1764
Flags: W
LayerCount: 2
Back
Fore
SplineSet
400 664 m 1,0,-1
 759 664 l 1,1,-1
 759 1082 l 1,2,-1
 1049 1082 l 1,3,-1
 1049 740 l 1,4,-1
 1247 740 l 2,5,6
 1472 740 1472 740 1596.5 639 c 128,-1,7
 1721 538 1721 538 1721 371 c 0,8,9
 1721 203 1721 203 1595 101.5 c 128,-1,10
 1469 0 1469 0 1250 0 c 2,11,-1
 759 0 l 1,12,-1
 759 432 l 1,13,-1
 400 432 l 1,14,-1
 400 0 l 1,15,-1
 111 0 l 1,16,-1
 111 1082 l 1,17,-1
 400 1082 l 1,18,-1
 400 664 l 1,0,-1
1049 508 m 1,19,-1
 1049 231 l 1,20,-1
 1254 231 l 2,21,22
 1340 231 1340 231 1386 269.5 c 128,-1,23
 1432 308 1432 308 1432 373 c 0,24,25
 1432 435 1432 435 1386 471.5 c 128,-1,26
 1340 508 1340 508 1254 508 c 2,27,-1
 1049 508 l 1,19,-1
EndSplineSet
Substitution2: "'smcp' Lowercase to Small Capitals lookup 1 subtable" uni040A.c2sc
EndChar

StartChar: uni045B
Encoding: 1115 1115 261
Width: 1156
Flags: W
LayerCount: 2
Back
Fore
SplineSet
661 1201 m 1,0,-1
 393 1201 l 1,1,-1
 393 964 l 1,2,3
 508 1102 508 1102 682 1102 c 0,4,5
 1034 1102 1034 1102 1039 693 c 1,6,-1
 1039 0 l 1,7,-1
 750 0 l 1,8,-1
 750 685 l 2,9,10
 750 778 750 778 710 822.5 c 128,-1,11
 670 867 670 867 577 867 c 0,12,13
 450 867 450 867 393 769 c 1,14,-1
 393 0 l 1,15,-1
 104 0 l 1,16,-1
 104 1201 l 1,17,-1
 -38 1201 l 1,18,-1
 -38 1384 l 1,19,-1
 104 1384 l 1,20,-1
 104 1536 l 1,21,-1
 393 1536 l 1,22,-1
 393 1384 l 1,23,-1
 661 1384 l 1,24,-1
 661 1201 l 1,0,-1
EndSplineSet
Substitution2: "'smcp' Lowercase to Small Capitals lookup 1 subtable" uni040B.c2sc
EndChar

StartChar: uni045F
Encoding: 1119 1119 262
Width: 1162
Flags: W
LayerCount: 2
Back
Fore
SplineSet
400 1082 m 1,0,-1
 400 233 l 1,1,-1
 762 233 l 1,2,-1
 762 1082 l 1,3,-1
 1052 1082 l 1,4,-1
 1052 0 l 1,5,-1
 726 0 l 1,6,-1
 726 -359 l 1,7,-1
 437 -359 l 1,8,-1
 437 0 l 1,9,-1
 111 0 l 1,10,-1
 111 1082 l 1,11,-1
 400 1082 l 1,0,-1
EndSplineSet
Substitution2: "'smcp' Lowercase to Small Capitals lookup 1 subtable" uni040F.c2sc
EndChar

StartChar: uni0460
Encoding: 1120 1120 263
Width: 1939
GlyphClass: 2
Flags: W
LayerCount: 2
Back
Fore
SplineSet
1811 1456 m 1,0,-1
 1811 467 l 2,1,2
 1811 242 1811 242 1678 110.5 c 128,-1,3
 1545 -21 1545 -21 1314 -21 c 0,4,5
 1085 -21 1085 -21 965 141 c 1,6,7
 845 -21 845 -21 615 -21 c 0,8,9
 386 -21 386 -21 252.5 110 c 128,-1,10
 119 241 119 241 119 468 c 2,11,-1
 119 1456 l 1,12,-1
 420 1456 l 1,13,-1
 420 476 l 2,14,15
 420 220 420 220 615 220 c 0,16,17
 707 220 707 220 760.5 278.5 c 128,-1,18
 814 337 814 337 814 465 c 2,19,-1
 814 1456 l 1,20,-1
 1116 1456 l 1,21,-1
 1116 474 l 2,22,23
 1116 220 1116 220 1314 220 c 0,24,25
 1405 220 1405 220 1457.5 278.5 c 128,-1,26
 1510 337 1510 337 1510 465 c 2,27,-1
 1510 1456 l 1,28,-1
 1811 1456 l 1,0,-1
EndSplineSet
EndChar

StartChar: uni0461
Encoding: 1121 1121 264
Width: 1680
GlyphClass: 2
Flags: W
LayerCount: 2
Back
Fore
SplineSet
1600 1082 m 1,0,-1
 1600 440 l 2,1,2
 1598 225 1598 225 1480.5 102.5 c 128,-1,3
 1363 -20 1363 -20 1161 -21 c 2,4,-1
 1159 -21 l 2,5,6
 958 -21 958 -21 852 123 c 1,7,8
 742 -21 742 -21 537 -21 c 0,9,10
 338 -21 338 -21 220.5 101 c 128,-1,11
 103 223 103 223 100 436 c 2,12,-1
 100 1082 l 1,13,-1
 390 1082 l 1,14,-1
 390 432 l 1,15,16
 394 212 394 212 537 212 c 0,17,18
 706 212 706 212 709 436 c 2,19,-1
 709 1082 l 1,20,-1
 999 1082 l 1,21,-1
 999 429 l 1,22,23
 1004 212 1004 212 1159 212 c 0,24,25
 1306 212 1306 212 1310 431 c 1,26,-1
 1310 1082 l 1,27,-1
 1600 1082 l 1,0,-1
EndSplineSet
EndChar

StartChar: uni0463
Encoding: 1123 1123 265
Width: 1142
Flags: W
LayerCount: 2
Back
Fore
SplineSet
676 1082 m 1,0,-1
 420 1082 l 1,1,-1
 420 790 l 1,2,-1
 631 790 l 2,3,4
 843 788 843 788 967 681 c 128,-1,5
 1091 574 1091 574 1091 397 c 128,-1,6
 1091 220 1091 220 968 111.5 c 128,-1,7
 845 3 845 3 636 0 c 2,8,-1
 130 0 l 1,9,-1
 130 1082 l 1,10,-1
 -27 1082 l 1,11,-1
 -27 1265 l 1,12,-1
 130 1265 l 1,13,-1
 130 1561 l 1,14,-1
 420 1561 l 1,15,-1
 420 1265 l 1,16,-1
 676 1265 l 1,17,-1
 676 1082 l 1,0,-1
420 558 m 1,18,-1
 420 231 l 1,19,-1
 625 231 l 2,20,21
 712 231 712 231 757.5 275 c 128,-1,22
 803 319 803 319 803 396 c 0,23,24
 803 468 803 468 759.5 512 c 128,-1,25
 716 556 716 556 632 558 c 2,26,-1
 420 558 l 1,18,-1
EndSplineSet
EndChar

StartChar: uni0464
Encoding: 1124 1124 266
Width: 1828
Flags: W
LayerCount: 2
Back
Fore
SplineSet
425 860 m 1,0,-1
 600 860 l 1,1,2
 614 1048 614 1048 692.5 1188.5 c 128,-1,3
 771 1329 771 1329 902.5 1403 c 128,-1,4
 1034 1477 1034 1477 1202 1477 c 0,5,6
 1454 1477 1454 1477 1608 1342 c 128,-1,7
 1762 1207 1762 1207 1786 963 c 1,8,-1
 1486 963 l 1,9,10
 1475 1104 1475 1104 1407.5 1167.5 c 128,-1,11
 1340 1231 1340 1231 1202 1231 c 128,-1,12
 1064 1231 1064 1231 990 1140 c 128,-1,13
 916 1049 916 1049 903 860 c 1,14,-1
 1332 860 l 1,15,-1
 1332 626 l 1,16,-1
 902 626 l 1,17,18
 910 418 910 418 982 322 c 128,-1,19
 1054 226 1054 226 1199 226 c 0,20,21
 1337 226 1337 226 1405.5 288.5 c 128,-1,22
 1474 351 1474 351 1484 486 c 1,23,-1
 1784 486 l 1,24,25
 1767 251 1767 251 1610.5 116 c 128,-1,26
 1454 -19 1454 -19 1199 -19 c 0,27,28
 930 -19 930 -19 771 154 c 128,-1,29
 612 327 612 327 598 626 c 1,30,-1
 425 626 l 1,31,-1
 425 0 l 1,32,-1
 125 0 l 1,33,-1
 125 1456 l 1,34,-1
 425 1456 l 1,35,-1
 425 860 l 1,0,-1
EndSplineSet
EndChar

StartChar: uni0465
Encoding: 1125 1125 267
Width: 1545
Flags: W
LayerCount: 2
Back
Fore
SplineSet
407 634 m 1,0,-1
 542 634 l 1,1,2
 564 852 564 852 694 977 c 128,-1,3
 824 1102 824 1102 1036 1102 c 0,4,5
 1238 1102 1238 1102 1361 986.5 c 128,-1,6
 1484 871 1484 871 1486 679 c 1,7,-1
 1215 679 l 1,8,9
 1213 763 1213 763 1163 815.5 c 128,-1,10
 1113 868 1113 868 1031 868 c 0,11,12
 854 868 854 868 830 634 c 1,13,-1
 1155 634 l 1,14,-1
 1155 451 l 1,15,-1
 829 451 l 1,16,17
 848 213 848 213 1032 213 c 0,18,19
 1112 213 1112 213 1162.5 257.5 c 128,-1,20
 1213 302 1213 302 1215 374 c 1,21,-1
 1486 374 l 1,22,23
 1484 205 1484 205 1356.5 92.5 c 128,-1,24
 1229 -20 1229 -20 1038 -20 c 0,25,26
 825 -20 825 -20 693 105.5 c 128,-1,27
 561 231 561 231 541 451 c 1,28,-1
 407 451 l 1,29,-1
 407 0 l 1,30,-1
 117 0 l 1,31,-1
 117 1082 l 1,32,-1
 407 1082 l 1,33,-1
 407 634 l 1,0,-1
EndSplineSet
EndChar

StartChar: uni0466
Encoding: 1126 1126 268
Width: 1353
Flags: W
LayerCount: 2
Back
Fore
SplineSet
898 419 m 1,0,-1
 802 419 l 1,1,-1
 802 0 l 1,2,-1
 552 0 l 1,3,-1
 552 419 l 1,4,-1
 467 419 l 1,5,-1
 330 0 l 1,6,-1
 15 0 l 1,7,-1
 528 1456 l 1,8,-1
 840 1456 l 1,9,-1
 1351 0 l 1,10,-1
 1036 0 l 1,11,-1
 898 419 l 1,0,-1
535 627 m 1,12,-1
 830 627 l 1,13,-1
 683 1076 l 1,14,-1
 535 627 l 1,12,-1
EndSplineSet
EndChar

StartChar: uni0467
Encoding: 1127 1127 269
Width: 1145
Flags: W
LayerCount: 2
Back
Fore
SplineSet
732 269 m 1,0,-1
 655 269 l 1,1,-1
 655 0 l 1,2,-1
 464 0 l 1,3,-1
 464 269 l 1,4,-1
 395 269 l 1,5,-1
 302 0 l 1,6,-1
 7 0 l 1,7,-1
 416 1082 l 1,8,-1
 713 1082 l 1,9,-1
 1122 0 l 1,10,-1
 827 0 l 1,11,-1
 732 269 l 1,0,-1
460 457 m 1,12,-1
 666 457 l 1,13,-1
 593 667 l 1,14,-1
 563 795 l 1,15,-1
 533 667 l 1,16,-1
 460 457 l 1,12,-1
EndSplineSet
EndChar

StartChar: uni0468
Encoding: 1128 1128 270
Width: 1915
Flags: W
LayerCount: 2
Back
Fore
SplineSet
447 626 m 1,0,-1
 780 626 l 1,1,-1
 1073 1456 l 1,2,-1
 1385 1456 l 1,3,-1
 1896 0 l 1,4,-1
 1581 0 l 1,5,-1
 1443 419 l 1,6,-1
 1347 419 l 1,7,-1
 1347 0 l 1,8,-1
 1097 0 l 1,9,-1
 1097 419 l 1,10,-1
 1013 419 l 1,11,-1
 875 0 l 1,12,-1
 560 0 l 1,13,-1
 707 419 l 1,14,-1
 447 419 l 1,15,-1
 447 0 l 1,16,-1
 147 0 l 1,17,-1
 147 1456 l 1,18,-1
 447 1456 l 1,19,-1
 447 626 l 1,0,-1
1081 627 m 1,20,-1
 1375 627 l 1,21,-1
 1228 1074 l 1,22,-1
 1081 627 l 1,20,-1
EndSplineSet
EndChar

StartChar: uni0469
Encoding: 1129 1129 271
Width: 1635
Flags: W
LayerCount: 2
Back
Fore
SplineSet
416 456 m 1,0,-1
 668 456 l 1,1,-1
 905 1082 l 1,2,-1
 1201 1082 l 1,3,-1
 1611 0 l 1,4,-1
 1316 0 l 1,5,-1
 1221 269 l 1,6,-1
 1144 269 l 1,7,-1
 1144 0 l 1,8,-1
 953 0 l 1,9,-1
 953 269 l 1,10,-1
 884 269 l 1,11,-1
 791 0 l 1,12,-1
 495 0 l 1,13,-1
 597 269 l 1,14,-1
 416 269 l 1,15,-1
 416 0 l 1,16,-1
 126 0 l 1,17,-1
 126 1082 l 1,18,-1
 416 1082 l 1,19,-1
 416 456 l 1,0,-1
949 457 m 1,20,-1
 1155 457 l 1,21,-1
 1082 667 l 1,22,-1
 1052 795 l 1,23,-1
 1022 667 l 1,24,-1
 949 457 l 1,20,-1
EndSplineSet
EndChar

StartChar: uni046A
Encoding: 1130 1130 272
Width: 1785
Flags: W
LayerCount: 2
Back
Fore
SplineSet
1181 799 m 1,0,1
 1429 791 1429 791 1549.5 680.5 c 128,-1,2
 1670 570 1670 570 1675 355 c 1,3,-1
 1675 0 l 1,4,-1
 1375 0 l 1,5,-1
 1375 343 l 2,6,7
 1374 456 1374 456 1321.5 504.5 c 128,-1,8
 1269 553 1269 553 1147 555 c 2,9,-1
 1056 555 l 1,10,-1
 1056 0 l 1,11,-1
 756 0 l 1,12,-1
 756 555 l 1,13,-1
 649 555 l 2,14,15
 519 555 519 555 464.5 505.5 c 128,-1,16
 410 456 410 456 409 343 c 2,17,-1
 409 0 l 1,18,-1
 109 0 l 1,19,-1
 109 341 l 2,20,21
 110 571 110 571 238.5 684.5 c 128,-1,22
 367 798 367 798 637 800 c 1,23,-1
 265 1456 l 1,24,-1
 1555 1456 l 1,25,-1
 1181 799 l 1,0,1
910 846 m 1,26,-1
 1098 1210 l 1,27,-1
 722 1210 l 1,28,-1
 910 846 l 1,26,-1
EndSplineSet
EndChar

StartChar: uni046B
Encoding: 1131 1131 273
Width: 1502
Flags: W
LayerCount: 2
Back
Fore
SplineSet
1016 608 m 1,0,1
 1209 586 1209 586 1300 479 c 128,-1,2
 1391 372 1391 372 1391 181 c 2,3,-1
 1391 0 l 1,4,-1
 1102 0 l 1,5,-1
 1102 189 l 2,6,7
 1101 300 1101 300 1057 346 c 128,-1,8
 1013 392 1013 392 900 392 c 1,9,-1
 900 0 l 1,10,-1
 611 0 l 1,11,-1
 611 392 l 1,12,-1
 589 392 l 2,13,14
 486 392 486 392 443.5 345 c 128,-1,15
 401 298 401 298 400 188 c 2,16,-1
 400 0 l 1,17,-1
 111 0 l 1,18,-1
 111 190 l 2,19,20
 113 385 113 385 208.5 488 c 128,-1,21
 304 591 304 591 500 610 c 1,22,-1
 227 1082 l 1,23,-1
 1289 1082 l 1,24,-1
 1016 608 l 1,0,1
758 629 m 1,25,-1
 884 891 l 1,26,-1
 633 891 l 1,27,-1
 758 629 l 1,25,-1
EndSplineSet
EndChar

StartChar: uni046C
Encoding: 1132 1132 274
Width: 2381
Flags: W
LayerCount: 2
Back
Fore
SplineSet
706 0 m 1,0,-1
 706 338 l 2,1,2
 706 470 706 470 749 568 c 1,3,-1
 449 568 l 1,4,-1
 449 0 l 1,5,-1
 149 0 l 1,6,-1
 149 1456 l 1,7,-1
 449 1456 l 1,8,-1
 449 804 l 1,9,-1
 1232 804 l 1,10,-1
 862 1456 l 1,11,-1
 2152 1456 l 1,12,-1
 1778 799 l 1,13,14
 2026 791 2026 791 2146.5 680.5 c 128,-1,15
 2267 570 2267 570 2272 355 c 1,16,-1
 2272 0 l 1,17,-1
 1972 0 l 1,18,-1
 1972 343 l 2,19,20
 1971 456 1971 456 1918.5 504.5 c 128,-1,21
 1866 553 1866 553 1744 555 c 2,22,-1
 1653 555 l 1,23,-1
 1653 0 l 1,24,-1
 1353 0 l 1,25,-1
 1353 555 l 1,26,-1
 1246 555 l 2,27,28
 1116 555 1116 555 1061.5 505.5 c 128,-1,29
 1007 456 1007 456 1006 343 c 2,30,-1
 1006 0 l 1,31,-1
 706 0 l 1,0,-1
1507 846 m 1,32,-1
 1695 1210 l 1,33,-1
 1319 1210 l 1,34,-1
 1507 846 l 1,32,-1
EndSplineSet
EndChar

StartChar: uni046D
Encoding: 1133 1133 275
Width: 2060
Flags: W
LayerCount: 2
Back
Fore
SplineSet
668 0 m 1,0,-1
 668 181 l 2,1,2
 668 309 668 309 708 400 c 1,3,-1
 423 400 l 1,4,-1
 423 0 l 1,5,-1
 134 0 l 1,6,-1
 134 1082 l 1,7,-1
 423 1082 l 1,8,-1
 423 614 l 1,9,-1
 1056 614 l 1,10,-1
 785 1082 l 1,11,-1
 1847 1082 l 1,12,-1
 1574 608 l 1,13,14
 1767 586 1767 586 1858 479 c 128,-1,15
 1949 372 1949 372 1949 181 c 2,16,-1
 1949 0 l 1,17,-1
 1659 0 l 1,18,-1
 1659 183 l 2,19,20
 1659 296 1659 296 1616.5 344 c 128,-1,21
 1574 392 1574 392 1458 392 c 1,22,-1
 1458 0 l 1,23,-1
 1169 0 l 1,24,-1
 1169 392 l 1,25,-1
 1147 392 l 2,26,27
 1043 392 1043 392 1000.5 345 c 128,-1,28
 958 298 958 298 957 188 c 2,29,-1
 957 0 l 1,30,-1
 668 0 l 1,0,-1
1316 629 m 1,31,-1
 1441 891 l 1,32,-1
 1191 891 l 1,33,-1
 1316 629 l 1,31,-1
EndSplineSet
EndChar

StartChar: uni046E
Encoding: 1134 1134 276
Width: 1052
Flags: W
LayerCount: 2
Back
Fore
SplineSet
612 1048 m 0,0,1
 612 1124 612 1124 556.5 1169.5 c 128,-1,2
 501 1215 501 1215 382 1215 c 2,3,-1
 121 1215 l 1,4,-1
 121 1456 l 1,5,-1
 379 1456 l 2,6,7
 635 1456 635 1456 768.5 1357 c 128,-1,8
 902 1258 902 1258 902 1076 c 0,9,10
 902 839 902 839 674 746 c 1,11,12
 806 704 806 704 876 618.5 c 128,-1,13
 946 533 946 533 946 408 c 0,14,15
 946 210 946 210 810.5 94.5 c 128,-1,16
 675 -21 675 -21 435 -21 c 2,17,-1
 379 -21 l 2,18,19
 270 -23 270 -23 270 -115 c 0,20,21
 270 -213 270 -213 415 -271 c 1,22,-1
 333 -448 l 1,23,24
 179 -413 179 -413 94 -317 c 128,-1,25
 9 -221 9 -221 7 -75 c 0,26,27
 7 65 7 65 97 141.5 c 128,-1,28
 187 218 187 218 356 220 c 2,29,-1
 430 220 l 2,30,31
 534 221 534 221 595 271.5 c 128,-1,32
 656 322 656 322 656 404 c 0,33,34
 656 624 656 624 377 624 c 2,35,-1
 238 624 l 1,36,-1
 238 865 l 1,37,-1
 397 865 l 2,38,39
 500 867 500 867 556 914 c 128,-1,40
 612 961 612 961 612 1048 c 0,0,1
491 1785 m 1,41,-1
 637 1928 l 1,42,-1
 884 1928 l 1,43,-1
 884 1917 l 1,44,-1
 582 1636 l 1,45,-1
 399 1636 l 1,46,-1
 97 1919 l 1,47,-1
 97 1928 l 1,48,-1
 344 1928 l 1,49,-1
 491 1785 l 1,41,-1
EndSplineSet
EndChar

StartChar: uni046F
Encoding: 1135 1135 277
Width: 1031
GlyphClass: 2
Flags: W
LayerCount: 2
Back
Fore
SplineSet
586 757 m 0,0,1
 586 871 586 871 375 871 c 2,2,-1
 121 871 l 1,3,-1
 121 1082 l 1,4,-1
 392 1082 l 2,5,6
 629 1080 629 1080 752 1002.5 c 128,-1,7
 875 925 875 925 875 784 c 0,8,9
 875 615 875 615 699 540 c 1,10,11
 920 474 920 474 920 304 c 0,12,13
 920 155 920 155 796.5 68 c 128,-1,14
 673 -19 673 -19 464 -21 c 2,15,-1
 402 -21 l 2,16,17
 278 -23 278 -23 278 -115 c 0,18,19
 278 -214 278 -214 407 -271 c 1,20,-1
 326 -432 l 1,21,22
 190 -388 190 -388 110 -291.5 c 128,-1,23
 30 -195 30 -195 28 -75 c 0,24,25
 28 50 28 50 112 119.5 c 128,-1,26
 196 189 196 189 358 189 c 2,27,-1
 411 189 l 2,28,29
 508 189 508 189 569.5 223 c 128,-1,30
 631 257 631 257 631 314 c 0,31,32
 631 447 631 447 391 447 c 2,33,-1
 238 447 l 1,34,-1
 238 627 l 1,35,-1
 395 627 l 2,36,37
 586 627 586 627 586 757 c 0,0,1
471 1398 m 1,38,-1
 618 1541 l 1,39,-1
 864 1541 l 1,40,-1
 864 1530 l 1,41,-1
 562 1249 l 1,42,-1
 380 1249 l 1,43,-1
 77 1531 l 1,44,-1
 77 1541 l 1,45,-1
 324 1541 l 1,46,-1
 471 1398 l 1,38,-1
EndSplineSet
EndChar

StartChar: uni0472
Encoding: 1138 1138 278
Width: 1409
GlyphClass: 2
Flags: W
LayerCount: 2
Back
Fore
SplineSet
1330 695 m 2,0,1
 1330 480 1330 480 1254 318 c 128,-1,2
 1178 156 1178 156 1036.5 68 c 128,-1,3
 895 -20 895 -20 712 -20 c 0,4,5
 531 -20 531 -20 389 67 c 128,-1,6
 247 154 247 154 169 315.5 c 128,-1,7
 91 477 91 477 90 687 c 2,8,-1
 90 759 l 2,9,10
 90 974 90 974 167.5 1137.5 c 128,-1,11
 245 1301 245 1301 386.5 1388.5 c 128,-1,12
 528 1476 528 1476 710 1476 c 128,-1,13
 892 1476 892 1476 1033.5 1388.5 c 128,-1,14
 1175 1301 1175 1301 1252.5 1137.5 c 128,-1,15
 1330 974 1330 974 1330 760 c 2,16,-1
 1330 695 l 2,0,1
712 226 m 0,17,18
 854 226 854 226 934.5 332 c 128,-1,19
 1015 438 1015 438 1025 640 c 1,20,-1
 395 640 l 1,21,22
 406 438 406 438 487.5 332 c 128,-1,23
 569 226 569 226 712 226 c 0,17,18
710 1228 m 0,24,25
 568 1228 568 1228 487.5 1124.5 c 128,-1,26
 407 1021 407 1021 396 822 c 1,27,-1
 1025 822 l 1,28,29
 1014 1021 1014 1021 932.5 1124.5 c 128,-1,30
 851 1228 851 1228 710 1228 c 0,24,25
EndSplineSet
EndChar

StartChar: uni0473
Encoding: 1139 1139 279
Width: 1156
GlyphClass: 2
Flags: W
LayerCount: 2
Back
Fore
SplineSet
64 551 m 2,0,1
 64 713 64 713 126.5 839 c 128,-1,2
 189 965 189 965 306 1033.5 c 128,-1,3
 423 1102 423 1102 576 1102 c 0,4,5
 810 1102 810 1102 949.5 951.5 c 128,-1,6
 1089 801 1089 801 1089 541 c 2,7,-1
 1089 530 l 2,8,9
 1089 368 1089 368 1026.5 242 c 128,-1,10
 964 116 964 116 848.5 48 c 128,-1,11
 733 -20 733 -20 578 -20 c 0,12,13
 354 -20 354 -20 215 119 c 128,-1,14
 76 258 76 258 65 494 c 1,15,-1
 64 551 l 2,0,1
576 868 m 0,16,17
 485 868 485 868 428 805 c 128,-1,18
 371 742 371 742 358 629 c 1,19,-1
 795 629 l 1,20,21
 781 746 781 746 724.5 807 c 128,-1,22
 668 868 668 868 576 868 c 0,16,17
578 213 m 0,23,24
 669 213 669 213 724 272.5 c 128,-1,25
 779 332 779 332 795 446 c 1,26,-1
 359 446 l 1,27,28
 372 335 372 335 428 274 c 128,-1,29
 484 213 484 213 578 213 c 0,23,24
EndSplineSet
EndChar

StartChar: uni0474
Encoding: 1140 1140 280
Width: 1316
GlyphClass: 2
Flags: W
LayerCount: 2
Back
Fore
SplineSet
633 395 m 1,0,-1
 652 304 l 1,1,-1
 671 391 l 1,2,-1
 878 1122 l 1,3,4
 935 1307 935 1307 1024 1390.5 c 128,-1,5
 1113 1474 1113 1474 1249 1474 c 2,6,-1
 1288 1473 l 1,7,-1
 1286 1221 l 1,8,-1
 1259 1221 l 2,9,10
 1173 1221 1173 1221 1138 1103 c 2,11,-1
 808 0 l 1,12,-1
 497 0 l 1,13,-1
 11 1456 l 1,14,-1
 329 1456 l 1,15,-1
 633 395 l 1,0,-1
EndSplineSet
EndChar

StartChar: uni0475
Encoding: 1141 1141 281
Width: 1045
GlyphClass: 2
Flags: W
LayerCount: 2
Back
Fore
SplineSet
482 413 m 1,0,-1
 502 307 l 1,1,-1
 521 413 l 1,2,-1
 614 768 l 1,3,4
 662 929 662 929 745 1015.5 c 128,-1,5
 828 1102 828 1102 957 1102 c 0,6,7
 1022 1102 1022 1102 1060 1084 c 1,8,-1
 1036 855 l 1,9,-1
 986 859 l 2,10,11
 948 859 948 859 918 829 c 128,-1,12
 888 799 888 799 875 755 c 2,13,-1
 641 0 l 1,14,-1
 365 0 l 1,15,-1
 17 1082 l 1,16,-1
 319 1082 l 1,17,-1
 482 413 l 1,0,-1
EndSplineSet
EndChar

StartChar: uni047A
Encoding: 1146 1146 282
Width: 1409
Flags: W
LayerCount: 2
Back
Fore
SplineSet
1330 695 m 2,0,1
 1330 500 1330 500 1266 346.5 c 128,-1,2
 1202 193 1202 193 1083 100.5 c 128,-1,3
 964 8 964 8 804 -14 c 1,4,-1
 804 -135 l 1,5,-1
 608 -135 l 1,6,-1
 608 -12 l 1,7,8
 370 23 370 23 230 213 c 128,-1,9
 90 403 90 403 90 700 c 2,10,-1
 90 759 l 2,11,12
 90 1052 90 1052 229 1241.5 c 128,-1,13
 368 1431 368 1431 606 1468 c 1,14,-1
 606 1575 l 1,15,-1
 801 1575 l 1,16,-1
 801 1470 l 1,17,18
 1043 1437 1043 1437 1186.5 1247.5 c 128,-1,19
 1330 1058 1330 1058 1330 753 c 2,20,-1
 1330 695 l 2,0,1
1027 761 m 2,21,22
 1027 953 1027 953 968.5 1067.5 c 128,-1,23
 910 1182 910 1182 801 1215 c 1,24,-1
 801 1113 l 1,25,-1
 606 1113 l 1,26,-1
 606 1211 l 1,27,28
 394 1135 394 1135 394 752 c 2,29,-1
 394 695 l 2,30,31
 394 509 394 509 449 394.5 c 128,-1,32
 504 280 504 280 608 243 c 1,33,-1
 608 336 l 1,34,-1
 804 336 l 1,35,-1
 804 239 l 1,36,37
 912 273 912 273 969.5 388.5 c 128,-1,38
 1027 504 1027 504 1027 695 c 2,39,-1
 1027 761 l 2,21,22
EndSplineSet
EndChar

StartChar: uni047B
Encoding: 1147 1147 283
Width: 1156
GlyphClass: 2
Flags: W
LayerCount: 2
Back
Fore
SplineSet
66 551 m 2,0,1
 66 774 66 774 181.5 922 c 128,-1,2
 297 1070 297 1070 497 1097 c 1,3,-1
 497 1203 l 1,4,-1
 664 1203 l 1,5,-1
 664 1096 l 1,6,7
 860 1069 860 1069 975.5 922.5 c 128,-1,8
 1091 776 1091 776 1091 545 c 2,9,-1
 1091 530 l 2,10,11
 1091 304 1091 304 974.5 157 c 128,-1,12
 858 10 858 10 658 -15 c 1,13,-1
 658 -123 l 1,14,-1
 492 -123 l 1,15,-1
 492 -14 l 1,16,17
 294 13 294 13 180 159.5 c 128,-1,18
 66 306 66 306 66 536 c 2,19,-1
 66 551 l 2,0,1
658 227 m 1,20,21
 802 284 802 284 802 537 c 2,22,-1
 802 551 l 2,23,24
 802 667 802 667 766.5 744.5 c 128,-1,25
 731 822 731 822 664 851 c 1,26,-1
 664 754 l 1,27,-1
 497 754 l 1,28,-1
 497 853 l 1,29,30
 355 797 355 797 355 530 c 0,31,32
 355 288 355 288 492 229 c 1,33,-1
 492 339 l 1,34,-1
 658 339 l 1,35,-1
 658 227 l 1,20,21
EndSplineSet
EndChar

